<svg width="1440" height="1007" viewBox="0 0 1440 1007" fill="none" xmlns="http://www.w3.org/2000/svg">
<rect width="1440" height="1007" fill="#E5E5E5"/>
<g clip-path="url(#clip0_0_1)">
<path d="M1440.5 -1111C1460.5 -602 1272 -477.5 1272 -477.5C1272 -477.5 1199.21 -388.5 1050.5 -388.5C242.5 -388.5 158 -329.5 158 -163C158 12.3318 418 9 503.5 9C589 9 1219.94 1.6145 1258 127C1303.5 276.901 1004 339.401 644.5 312.901C261.142 284.643 201.5 381.401 206.5 432.901C211.5 484.401 322 572.901 738.5 469.401C1155 365.901 1251 479.401 1253.5 538.901C1256 598.401 1146.5 753 738.5 629C330.5 505 186 631 206.5 698.5C227 766 348 809 606.5 736.5C865 664 1175.28 668.901 1239.78 764.401C1304.28 859.901 1143.5 949.901 860.5 867.901C853 865.728 808.053 860.567 773.5 856.401C768.981 855.856 765.253 851.676 761.563 847.385L748.5 837.518V823.425C757.979 823.603 761.438 832.342 765.213 839.12L773.5 846.901C890.5 856.401 1092.42 933.73 1207.5 852.901C1291.5 793.901 1203 748.901 1182.5 736.5C1143.17 716.667 943.4 672.9 673 736.5C335 816 299 821 206.5 725C114 629 343.5 549 487.5 569L495.537 570.116C632.706 589.156 619.456 581.172 851 644.901C1087 709.857 1261.24 602.916 1234 528.901C1228.5 465.401 1057 398.901 718.5 487.401C561.167 520.901 241.4 573.601 203 464.401C155 327.901 332 278.901 503.5 287.401C675 295.901 984.202 321.423 1143.5 247.901C1299.5 175.901 1268.19 98.9548 1090 61.5C864.5 14.1021 876.5 52.2361 550 38.5C421.5 33.0939 179.881 30 142.281 -88C95.2809 -235.5 133 -358 452 -388.5C771 -419 1061 -366 1195 -466C1372.88 -598.747 1406.11 -848.5 1206 -984C974.623 -1140.67 69 -905.099 -12 -1105.1L1440.5 -1111Z" fill="#48A4BD"/>
<path d="M584 2649.4C1170.89 2666.42 1317.5 2553.9 1344 2250.9C1370.66 1946.06 1351.92 1915.55 1296.5 1775.9C1284 1744.4 1272 1727.9 1266.5 1721.4H958.5C959.522 1747.9 1075.5 1775.9 1189 1884.9C1268 2003.4 1311.5 2069.47 1311.5 2237.9C1311.5 2558.9 1108.51 2576.86 997.5 2607.4C886.494 2637.95 648.967 2636.9 471.5 2636.9C333.5 2636.9 244.483 2694.4 215.5 2749.9C178.945 2819.9 229.572 2875.08 298.5 2900.4C347.5 2918.4 421.667 2929.23 451.5 2924.9V2916.4H431C130.5 2900.4 153 2636.9 584 2649.4Z" fill="#48A4BD"/>
<path d="M773.5 846.901C890.5 856.401 1092.42 933.73 1207.5 852.901C1291.5 793.901 1203 748.901 1182.5 736.5C1143.17 716.667 943.4 672.9 673 736.5C335 816 299 821 206.5 725C114 629 343.5 549 487.5 569M773.5 846.901C763.423 845.593 763.558 823.708 748.5 823.425M773.5 846.901L748.5 823.425M487.5 569L495.537 570.116M487.5 569C490.219 569.378 492.897 569.749 495.537 570.116M1234 528.901C1261.24 602.916 1087 709.857 851 644.901C619.456 581.172 632.706 589.156 495.537 570.116M1234 528.901C1228.5 465.401 1057 398.901 718.5 487.401C561.167 520.901 241.4 573.601 203 464.401C155 327.901 332 278.901 503.5 287.401C675 295.901 984.202 321.423 1143.5 247.901C1299.5 175.901 1268.19 98.9548 1090 61.5C864.5 14.1021 876.5 52.2361 550 38.5C421.5 33.0939 179.881 30 142.281 -88C95.2809 -235.5 133 -358 452 -388.5C771 -419 1061 -366 1195 -466C1372.88 -598.747 1406.11 -848.5 1206 -984C974.623 -1140.67 69 -905.099 -12 -1105.1L1440.5 -1111C1460.5 -602 1272 -477.5 1272 -477.5C1272 -477.5 1199.21 -388.5 1050.5 -388.5C242.5 -388.5 158 -329.5 158 -163C158 12.3318 418 9 503.5 9C589 9 1219.94 1.61445 1258 127C1303.5 276.901 1004 339.401 644.5 312.901C261.142 284.643 201.5 381.401 206.5 432.901C211.5 484.401 322 572.901 738.5 469.401C1155 365.901 1251 479.401 1253.5 538.901C1256 598.401 1146.5 753 738.5 629C330.5 505 186 631 206.5 698.5C227 766 348 809 606.5 736.5C865 664 1175.28 668.901 1239.78 764.401C1304.28 859.901 1143.5 949.901 860.5 867.901C853 865.728 808.053 860.567 773.5 856.401M1234 528.901C1226.08 491.401 1234.05 528.951 1234 528.901ZM748.5 823.425V837.518M748.5 837.518C757.996 838.048 764.002 855.256 773.5 856.401M748.5 837.518L773.5 856.401M1344 2250.9C1317.5 2553.9 1170.89 2666.42 584 2649.4C153 2636.9 130.5 2900.4 431 2916.4H451.5V2924.9C421.667 2929.23 347.5 2918.4 298.5 2900.4C229.572 2875.08 178.945 2819.9 215.5 2749.9C244.483 2694.4 333.5 2636.9 471.5 2636.9C648.967 2636.9 886.494 2637.95 997.5 2607.4C1108.51 2576.86 1311.5 2558.9 1311.5 2237.9C1311.5 2069.47 1268 2003.4 1189 1884.9C1075.5 1775.9 959.522 1747.9 958.5 1721.4H1266.5C1272 1727.9 1284 1744.4 1296.5 1775.9C1351.92 1915.55 1370.66 1946.06 1344 2250.9Z" stroke="#48A4BD" stroke-width="3"/>
<path d="M1444.5 -1112.6C1433.3 -1031.62 1415.05 -902.971 1420.78 -814.256C1422.94 -780.826 1423.65 -731.06 1414.59 -726.753C1432.72 -629.06 1432.59 -488.43 1414.29 -391.199C1421.75 -346.323 1420.22 -282.992 1410.74 -243.907C1422.05 -223.695 1427.32 -172.498 1427.29 -125.359C1427.26 -78.2193 1423.07 -32.7455 1420.47 13.3642C1415.97 93.0096 1416.18 175.653 1418.96 256.396C1420.43 298.993 1420.98 353.899 1410.64 372.106C1413.5 383.203 1416.35 394.293 1419.2 405.391C1419.43 478.776 1413.88 552.282 1403.43 614.221C1412.93 648.219 1414.04 702.845 1414.55 752.149C1415.06 802.074 1415.57 852.007 1416.09 901.932C1414.25 896.209 1418.92 899.615 1418.76 908.571C1418 952.773 1417.24 996.967 1416.47 1041.17C1413.04 1059.41 1409.61 1077.66 1406.18 1095.9C1410.72 1097.36 1415 1107.69 1417.24 1122.62C1411.83 1137.08 1406.41 1151.53 1401 1165.99C1404.57 1181.06 1408.14 1196.13 1411.7 1211.19C1413.69 1301.27 1415.69 1391.35 1417.68 1481.43C1418.61 1523.56 1418.36 1574.91 1408.71 1596.49C1412.9 1585.62 1418.65 1607.11 1417.8 1626.02C1416.94 1644.92 1412.47 1658.02 1408.34 1669.2C1409.39 1685.27 1410.44 1701.34 1411.42 1717.48C1423.1 1910.74 1423.43 2113.62 1412.38 2307.4C1410.94 2332.75 1416.22 2373.6 1420.75 2354.11C1417.74 2364.51 1414.48 2377.19 1414.78 2392.53C1415.09 2407.87 1421.75 2417.2 1423.18 2402.78C1417.18 2417.39 1413.01 2442.22 1412.08 2468.91C1417.82 2472.19 1419.14 2508.47 1413.84 2517.44C1417.02 2571.27 1418.29 2626.68 1417.63 2681.77C1418.25 2707.41 1418.88 2733.05 1419.5 2758.69C1420.15 2781.23 1425.63 2806.79 1426.28 2829.33C1422.47 2985.02 1416.53 3138.63 1418.13 3294.87C1422.92 3338.47 1428.48 3354.88 1441 3353.22" fill="#B59D92"/>
<path d="M-12.0458 3299.42C5.95915 3217.94 16.1236 3102.66 6.90784 3013.4C4.11951 2986.4 7.68837 2929.29 16.7435 2905.58C20.0514 2896.92 20.6688 2882.2 18.1339 2871.42C-4.48892 2775.28 -2.27281 2648.28 24.6869 2558.08C24.7948 2557.72 24.7998 2557.18 24.6994 2556.79C13.014 2512.1 15.3632 2449.57 30.1631 2410.36C30.3539 2409.86 30.2987 2408.94 30.0628 2408.67C12.2436 2387.94 3.93128 2336.96 3.97896 2289.99C4.02916 2242.57 10.7528 2196.81 14.939 2150.41C22.1696 2070.28 21.8358 1987.13 17.3659 1905.88C15.0344 1863.49 14.1459 1809 30.1933 1790.08C30.4342 1789.8 30.4844 1788.84 30.2861 1788.36L17.1074 1756.27C17.0296 1756.08 16.9845 1755.8 16.982 1755.5C16.6457 1682.14 25.49 1608.68 42.1221 1546.67C42.24 1546.23 42.2124 1545.58 42.0618 1545.24C27.0485 1510.99 25.2742 1456.39 24.4635 1407.08C23.6504 1357.64 22.8397 1308.18 22.0265 1258.74C22.009 1257.62 22.5536 1257.23 22.6665 1258.29C22.9552 1261.04 17.4688 1257.42 17.6822 1249.69C18.9094 1205.34 20.1342 1160.98 21.3615 1116.62C21.3665 1116.4 21.3966 1116.19 21.4468 1116.03L37.459 1062.73C37.6447 1062.11 37.5142 1061.12 37.2381 1061.05C30.3438 1059.13 23.9114 1049.32 20.3601 1035.25C20.2371 1034.77 20.2898 1034.06 20.4655 1033.77L45.829 991.386C46.0298 991.045 46.0599 990.205 45.8867 989.75L29.1341 945.468C29.0714 945.301 29.0312 945.067 29.0212 944.817L19.429 673.307C17.9306 630.917 18.3297 579.253 33.8475 557.536C27.1038 568.474 17.8679 546.855 19.2382 527.833C20.591 509.037 27.6258 495.934 34.2114 484.776C34.3494 484.542 34.4121 484.05 34.3645 483.595C32.698 467.684 31.034 451.78 29.4905 435.8C10.7076 241.35 10.173 37.2257 27.937 -157.762C30.261 -183.257 21.7781 -224.36 14.4823 -204.755C19.3235 -215.224 24.5714 -227.971 24.0795 -243.413C23.6403 -257.205 15.0469 -266.167 11.5835 -257.576C11.2748 -256.811 11.6111 -255.335 11.96 -255.926C20.7441 -270.641 26.8352 -294.062 28.3662 -319.216C28.4013 -319.784 28.2683 -320.306 28.08 -320.397C19.2533 -324.431 17.2354 -359.35 25.3018 -368.767C25.4649 -368.956 25.5552 -369.479 25.5076 -369.978C20.468 -423.829 18.4451 -479.247 19.5068 -534.339C19.5068 -534.399 19.5068 -534.453 19.5042 -534.513L16.5076 -611.807L13.3629 -679.707C13.3579 -679.791 13.3579 -679.874 13.3629 -679.957C19.4792 -836.468 2.08002 -950.558 -0.5 -1107.6L-13.5 -1107.15C-21.1547 -1150.84 -12.0347 -1152.92 -25 -1179.6" fill="#B59D92"/>
<path d="M1345.16 236.973C1348.02 236.526 1351 236.746 1353.85 237.487C1356.7 238.244 1359.43 239.516 1361.94 241.12C1364.44 242.755 1366.71 244.716 1368.75 246.918C1369.26 247.463 1369.74 248.046 1370.23 248.614C1370.71 249.196 1371.16 249.802 1371.62 250.392C1372.06 251.005 1372.48 251.634 1372.9 252.262C1373.29 252.905 1373.68 253.533 1374.07 254.184C1377.06 259.384 1379.22 264.993 1380.96 270.609C1382.73 276.218 1384.23 281.834 1386.1 287.215C1389.75 298.031 1394.68 308.416 1401.22 317.506C1407.73 326.574 1416.2 334.196 1426.3 338.435L1422.57 342.499C1418.74 334.574 1416.53 326.074 1415.12 317.65C1413.69 309.218 1413.02 300.786 1411.99 292.498C1410.94 284.218 1409.95 275.892 1406.8 268.361C1405.21 264.614 1403.02 261.125 1400.11 258.241C1397.23 255.365 1393.61 253.132 1389.52 252.186C1391.61 252.375 1393.66 252.958 1395.61 253.798C1397.57 254.639 1399.38 255.827 1401.06 257.167C1404.43 259.846 1407.1 263.411 1409.1 267.248C1410.1 269.171 1410.97 271.162 1411.7 273.198C1412.42 275.234 1413.03 277.3 1413.57 279.374C1414.11 281.448 1414.57 283.529 1414.99 285.611C1415.44 287.692 1415.82 289.781 1416.18 291.87C1417.59 300.226 1418.74 308.545 1420.35 316.666C1421.98 324.773 1424.24 332.667 1427.82 339.842L1431.3 346.813L1424.09 343.907C1418.43 341.621 1413.19 338.321 1408.57 334.408C1403.94 330.472 1399.91 325.9 1396.44 320.996C1389.49 311.164 1384.75 300.083 1381.26 288.79C1379.54 283.098 1378.33 277.383 1376.84 271.82C1375.34 266.272 1373.74 260.792 1371.22 255.751C1368.75 250.725 1365.3 246.146 1360.85 242.672C1356.46 239.19 1350.98 236.851 1345.16 236.973Z" fill="#B1BF91"/>
<path d="M1353.63 280.403C1348.29 292.673 1348.59 306.902 1354.12 318.453C1356.95 324.182 1360.99 329.246 1365.72 333.575C1370.47 337.912 1375.8 341.659 1381.32 345.247C1386.84 348.842 1392.54 352.293 1398.06 356.222C1403.59 360.112 1408.96 364.494 1413.59 369.717C1422.8 380.155 1428.76 393.393 1430.54 407.206L1431.62 415.593L1425.91 409.477L1422.61 405.957L1419.25 402.513L1415.83 399.138L1412.33 395.86C1411.15 394.793 1409.93 393.756 1408.73 392.704C1407.52 391.675 1406.26 390.691 1405.03 389.676C1403.77 388.692 1402.49 387.754 1401.22 386.785C1399.95 385.831 1398.61 384.976 1397.3 384.06C1395.98 383.167 1394.6 382.388 1393.25 381.54C1391.89 380.715 1390.45 380.034 1389.07 379.254C1387.66 378.512 1386.19 377.899 1384.76 377.21C1383.31 376.575 1381.8 376.06 1380.31 375.477C1374.31 373.373 1367.93 372.207 1361.44 372.253C1367.87 371.344 1374.52 371.844 1380.91 373.449C1382.48 373.918 1384.09 374.311 1385.65 374.849C1387.18 375.432 1388.76 375.939 1390.28 376.582L1392.54 377.589C1393.29 377.937 1394.06 378.247 1394.78 378.648C1396.24 379.428 1397.73 380.147 1399.15 380.98C1404.91 384.227 1410.28 388.11 1415.35 392.303L1419.12 395.497L1422.79 398.797L1426.35 402.211L1429.83 405.692L1425.19 407.963C1423.19 395.308 1417.56 383.25 1409.12 373.729C1404.94 368.953 1399.94 364.873 1394.68 361.028C1389.4 357.198 1383.84 353.595 1378.33 349.773L1374.22 346.859C1372.86 345.845 1371.5 344.838 1370.16 343.801C1367.5 341.682 1364.91 339.441 1362.49 336.989L1360.69 335.135C1360.09 334.529 1359.56 333.825 1358.99 333.174L1357.33 331.183L1355.82 329.057L1355.07 327.997L1354.69 327.467L1354.36 326.899L1353.07 324.629L1352.43 323.493L1351.87 322.313C1351.5 321.525 1351.12 320.738 1350.82 319.921C1349.52 316.689 1348.59 313.328 1348.06 309.915C1347.55 306.494 1347.43 303.042 1347.67 299.629C1348.17 292.809 1350.18 286.133 1353.63 280.403Z" fill="#B1BF91"/>
<path d="M1366.44 486.965C1366.81 491.93 1368.18 496.668 1370.13 501.096C1371.1 503.314 1372.23 505.463 1373.48 507.529C1374.71 509.611 1376.03 511.639 1377.44 513.607C1383.09 521.464 1389.88 528.609 1395.71 536.905C1397.15 538.986 1398.54 541.128 1399.81 543.361C1401.08 545.594 1402.24 547.88 1403.27 550.226C1405.37 554.896 1406.97 559.74 1408.32 564.622C1410.94 574.409 1412.37 584.34 1413.66 594.149L1416.1 612.701L1408.53 595.746C1406.68 591.598 1404.09 587.761 1400.97 584.377C1397.85 580.994 1394.2 578.057 1390.19 575.665L1387.12 573.993C1386.06 573.508 1384.98 573.047 1383.92 572.547L1380.62 571.313L1377.22 570.337C1372.64 569.186 1367.84 568.732 1363 569.05C1367.7 567.869 1372.69 567.642 1377.59 568.248L1381.25 568.861L1384.87 569.762C1386.05 570.148 1387.22 570.572 1388.41 570.973L1391.85 572.464C1396.38 574.613 1400.6 577.505 1404.29 581.032C1407.97 584.559 1411.1 588.73 1413.41 593.377L1408.28 594.966C1406.63 585.217 1405.05 575.544 1402.53 566.212C1401.28 561.549 1399.73 556.993 1397.89 552.595C1396.03 548.198 1393.82 544.02 1391.19 539.993C1386 531.894 1379.54 524.302 1374.41 515.598C1373.14 513.426 1371.93 511.208 1370.87 508.915C1369.81 506.621 1368.89 504.26 1368.14 501.838C1366.66 497.016 1365.94 491.915 1366.44 486.965Z" fill="#B1BF91"/>
<path d="M1355.27 1040.6C1359.65 1041.3 1363.96 1042.54 1368.14 1044.16C1372.3 1045.83 1376.35 1047.84 1380.16 1050.3C1383.96 1052.74 1387.6 1055.49 1390.95 1058.55C1394.32 1061.6 1397.43 1064.94 1400.31 1068.47L1400.1 1068.23L1406.92 1074.84L1413.7 1081.5L1409.04 1084.81C1405.04 1076.53 1401.97 1067.8 1399.82 1058.85C1397.69 1049.9 1396.46 1040.74 1396.23 1031.56C1395.98 1022.38 1396.69 1013.19 1398.39 1004.22C1400.07 995.255 1402.7 986.49 1406.43 978.255C1404.16 987.005 1402.54 995.83 1401.7 1004.7C1400.86 1013.57 1400.76 1022.47 1401.41 1031.29C1402.07 1040.11 1403.44 1048.86 1405.6 1057.4C1407.73 1065.96 1410.64 1074.29 1414.28 1082.31L1421.29 1097.74L1409.62 1085.62L1403.02 1078.78L1396.48 1071.9L1396.33 1071.74L1396.27 1071.66C1393.7 1068.17 1390.92 1064.86 1387.93 1061.73C1384.92 1058.62 1381.73 1055.67 1378.29 1053.03C1374.84 1050.41 1371.22 1047.96 1367.35 1045.91C1363.5 1043.82 1359.46 1042.07 1355.27 1040.6Z" fill="#B1BF91"/>
<path d="M21.1279 768.719C24.7582 771.663 28.074 774.948 30.9732 778.536C33.8044 782.154 36.27 786.022 38.3275 790.064C40.3424 794.12 41.9578 798.329 43.2671 802.621C44.4999 806.927 45.3756 811.31 45.9963 815.73C46.5659 820.15 46.8125 824.601 46.7784 829.059C46.6934 833.517 46.3448 837.945 45.8262 842.358C44.738 851.183 42.689 859.857 40.3849 868.41C38.0809 876.971 35.3432 885.387 32.7161 893.781C31.4068 897.982 30.1315 902.175 28.9242 906.369C27.7509 910.57 26.5947 914.77 25.5744 918.986C24.5797 923.202 23.704 927.433 23.0068 931.679C22.3352 935.926 21.8506 940.187 21.5615 944.448C21.2979 948.71 21.2639 952.971 21.502 957.217C21.7995 961.456 22.3862 965.672 23.2704 969.842L17.5315 970.183C18.2627 962.735 20.2267 955.431 23.1344 948.482C26.025 941.519 30.021 934.964 34.7651 928.932C39.5007 922.884 45.1716 917.465 51.429 912.719C57.729 908.026 64.6922 904.052 72.1315 901.116C65.1003 904.749 58.6218 909.131 52.8829 914.15C47.1015 919.122 42.1193 924.769 37.8683 930.764C33.6258 936.773 30.276 943.252 27.7679 949.928C25.2769 956.619 23.789 963.575 23.3214 970.561L22.0461 989.476L17.5825 970.902C16.5283 966.504 15.7971 962.054 15.3635 957.58C14.9979 953.107 14.9214 948.626 15.0744 944.161C15.304 939.695 15.7971 935.259 16.4433 930.854C17.1319 926.449 17.9991 922.082 18.9769 917.745C19.9886 913.415 21.1024 909.116 22.3607 904.855C23.6275 900.594 24.9453 896.37 26.2971 892.162C29.0092 883.745 31.7554 875.389 34.2975 867.025C35.5388 862.839 36.7036 858.639 37.7408 854.423C38.7356 850.199 39.6198 845.968 40.3679 841.714C41.0566 837.461 41.5752 833.184 41.8388 828.908C41.8983 826.766 42.0258 824.624 41.9578 822.482C41.9918 820.34 41.8473 818.198 41.7453 816.055C41.3967 811.779 40.81 807.51 39.8663 803.302C38.8801 799.101 37.6558 794.938 35.9894 790.889C34.2635 786.869 32.257 782.934 29.7999 779.187C27.2833 775.508 24.4012 771.989 21.1279 768.719Z" fill="#B1BF91"/>
<path d="M41.2984 884.676C42.7777 892.328 43.5684 900.086 43.985 907.86C44.3421 915.633 44.3251 923.444 43.7725 931.233C43.2368 939.021 42.2846 946.794 40.8733 954.507C39.4874 962.22 37.6425 969.872 35.415 977.434L29.5231 974.807C34.2162 969.638 39.921 965.248 46.204 961.766C52.4955 958.299 59.3651 955.726 66.4728 954.144L71.8461 953.137L77.2789 952.517L82.7287 952.259C84.5481 952.282 86.3676 952.335 88.17 952.395C95.3967 952.842 102.521 954.318 109 956.952C102.088 955.446 95.0651 954.825 88.1275 955.113C86.3931 955.249 84.6671 955.378 82.9497 955.484L77.8315 956.157L72.7983 957.164L67.8587 958.443C61.3631 960.358 55.1737 963.022 49.5708 966.413C43.9595 969.789 38.9348 973.876 34.7773 978.562L25 989.59L28.8854 975.943C30.9939 968.525 32.7963 961.047 34.3522 953.523C35.8826 945.992 37.1664 938.423 38.1696 930.801C39.1474 923.187 39.955 915.535 40.4227 907.852C40.9498 900.147 41.1368 892.434 41.2984 884.676Z" fill="#B1BF91"/>
<path d="M62.6777 397.454C56.5802 402.23 50.4227 406.961 45.1277 412.479C39.7952 417.959 35.7302 424.415 33.0677 431.477C30.4277 438.546 28.9202 446.032 28.2452 453.616C27.5702 461.2 27.5252 468.89 27.7652 476.596C28.2677 492.014 29.7077 507.56 29.4152 523.364C29.2577 531.251 28.6277 539.206 27.0977 547.063C26.3177 550.983 25.3127 554.874 24.0527 558.681C22.7777 562.488 21.2327 566.205 19.4252 569.792L14.7227 567.794C16.9202 561.845 19.1702 555.85 21.8252 549.977C24.4577 544.103 27.6377 538.411 31.5077 533.211C35.3852 527.996 40.1477 523.455 45.5402 519.943C48.2552 518.217 51.1427 516.772 54.1577 515.704C57.1727 514.652 60.3077 513.979 63.4577 513.805C57.2402 514.925 51.5102 517.733 46.6277 521.517C41.6927 525.256 37.5752 529.987 34.1777 535.111C30.7652 540.273 28.1402 545.92 25.7927 551.695C23.4602 557.485 21.5252 563.472 19.5527 569.497L14.8502 567.499C18.0227 560.694 20.1752 553.428 21.4952 545.988C22.8302 538.54 23.3177 530.91 23.4602 523.251C23.6852 507.908 22.3352 492.399 22.2452 476.694C22.2227 472.766 22.2752 468.83 22.4402 464.894C22.5977 460.95 22.8977 456.992 23.4377 453.056C23.9702 449.12 24.6902 445.192 25.6877 441.332C26.1827 439.401 26.7452 437.479 27.3902 435.587C28.0427 433.694 28.7777 431.833 29.6027 430.008C31.2377 426.353 33.2177 422.848 35.5727 419.616C37.9127 416.369 40.6727 413.485 43.5977 410.859C49.4777 405.606 56.0702 401.473 62.6777 397.454Z" fill="#B1BF91"/>
<path d="M69.405 448.312C62.73 455.102 56.46 462.194 50.7375 469.695C45.0225 477.196 39.795 485.03 35.1975 493.212C30.525 501.348 26.5275 509.856 23.085 518.568C19.6425 527.28 16.8525 536.241 14.7075 545.369L9.0525 543.863C11.1225 537.127 14.01 530.663 17.565 524.63C21.0975 518.583 25.3725 513.02 30.09 507.926C31.2975 506.677 32.52 505.45 33.75 504.232L37.5975 500.75L41.6025 497.473L45.7875 494.453L50.115 491.66C51.6 490.797 53.1 489.972 54.585 489.132C56.1225 488.375 57.6375 487.603 59.175 486.869L63.885 484.901L59.535 487.542C58.1325 488.496 56.715 489.42 55.3125 490.351C53.9475 491.35 52.605 492.364 51.24 493.34L47.31 496.496L43.545 499.834L39.93 503.308L36.495 506.957C35.4075 508.228 34.335 509.5 33.24 510.749C28.98 515.873 25.3125 521.451 22.1625 527.272C19.035 533.108 16.5 539.246 14.655 545.581L9 544.075C11.0475 534.599 13.9575 525.311 17.6025 516.342C21.255 507.373 25.7475 498.767 30.825 490.57C35.985 482.418 41.775 474.683 48.2325 467.591C54.69 460.468 61.74 453.944 69.405 448.312Z" fill="#B1BF91"/>
<path d="M1415.52 71.3417L1375.82 86.2202L1392.31 130.24L1432.02 115.362L1415.52 71.3417Z" fill="#BFBFBF"/>
<path d="M1413.49 69.98C1411.48 70.8166 1409.22 70.8679 1407.17 70.4439C1405.12 70.0198 1403.25 69.1516 1401.48 68.206C1398.78 66.7808 1396.23 65.1635 1393.84 63.3716C1391.9 61.9248 1390.07 60.3608 1388.08 58.9874C1386.77 58.0893 1385.22 57.2333 1383.51 57.4623C1382.16 57.6429 1380.97 58.4643 1379.91 59.3011C1378.91 60.0892 1377.94 60.9443 1377.34 61.9922C1376.77 62.9762 1376.56 64.0786 1376.57 65.1485C1376.58 69.4969 1380.08 73.1393 1384.44 74.6474C1388.8 76.1556 1393.86 75.8278 1398.61 74.7776C1403.37 73.7274 1407.97 71.9901 1412.68 70.6854C1413.1 70.5796 1413.64 70.2866 1413.49 69.98Z" fill="#BFBFBF"/>
<path d="M1420.81 85.4656L1381.13 100.4L1420.81 85.4656ZM1420.39 84.3482L1380.71 99.2825C1380.01 99.5452 1379.63 100.263 1379.86 100.877C1380.09 101.492 1380.85 101.78 1381.55 101.517L1421.23 86.583C1421.93 86.3204 1422.32 85.6027 1422.09 84.9881C1421.86 84.3735 1421.09 84.0855 1420.39 84.3482Z" fill="#6B6B6B"/>
<path d="M1425.73 98.5949L1386.05 113.529L1425.73 98.5949ZM1425.31 97.4775L1385.63 112.412C1384.93 112.675 1384.55 113.392 1384.78 114.007C1385.01 114.621 1385.77 114.909 1386.47 114.647L1426.15 99.7123C1426.85 99.4497 1427.24 98.732 1427.01 98.1174C1426.78 97.5028 1426.01 97.2149 1425.31 97.4775Z" fill="#6B6B6B"/>
<path d="M1415.16 70.3805L1375.48 85.3149L1415.16 70.3805ZM1414.74 69.2631L1375.06 84.1975C1374.36 84.4601 1373.97 85.1778 1374.2 85.7924C1374.44 86.407 1375.2 86.6949 1375.9 86.4323L1415.58 71.4979C1416.28 71.2353 1416.66 70.5176 1416.43 69.903C1416.2 69.2885 1415.44 69.0005 1414.74 69.2631Z" fill="#6B6B6B"/>
<path d="M1432.01 115.356L1392.33 130.29L1432.01 115.356ZM1431.6 114.239L1391.92 129.173C1391.21 129.436 1390.83 130.153 1391.06 130.768C1391.29 131.382 1392.05 131.67 1392.75 131.408L1432.43 116.473C1433.13 116.211 1433.52 115.493 1433.29 114.879C1433.06 114.264 1432.3 113.976 1431.6 114.239Z" fill="#6B6B6B"/>
<path d="M1424.42 95.1031L1384.74 110.037L1424.42 95.1031ZM1424 93.9856L1384.32 108.92C1383.62 109.183 1383.24 109.9 1383.47 110.515C1383.7 111.129 1384.46 111.417 1385.16 111.155L1424.84 96.2205C1425.54 95.9578 1425.93 95.2401 1425.7 94.6256C1425.47 94.011 1424.71 93.723 1424 93.9856Z" fill="#6B6B6B"/>
<path d="M1423.22 91.8905L1383.54 106.825L1423.22 91.8905ZM1422.8 90.7731L1383.12 105.707C1382.42 105.97 1382.04 106.688 1382.27 107.302C1382.5 107.917 1383.26 108.205 1383.96 107.942L1423.64 93.0079C1424.34 92.7453 1424.72 92.0276 1424.49 91.413C1424.26 90.7984 1423.5 90.5104 1422.8 90.7731Z" fill="#6B6B6B"/>
<path d="M1422.02 88.678L1382.34 103.612L1422.02 88.678ZM1421.6 87.5606L1381.92 102.495C1381.22 102.758 1380.83 103.475 1381.06 104.09C1381.29 104.704 1382.05 104.992 1382.76 104.73L1422.44 89.7954C1423.14 89.5328 1423.52 88.8151 1423.29 88.2005C1423.06 87.5859 1422.3 87.298 1421.6 87.5606Z" fill="#6B6B6B"/>
</g>
<defs>
<clipPath id="clip0_0_1">
<rect width="1440" height="4420.59" fill="white" transform="translate(0 -1111)"/>
</clipPath>
</defs>
</svg>
