<svg width="1440" height="727" viewBox="0 0 1440 727" fill="none" xmlns="http://www.w3.org/2000/svg">
<g clip-path="url(#clip0_334_282)">
<rect width="1440" height="5493" transform="translate(0 -4448)" fill="white"/>
<rect y="726" width="1440" height="449" fill="#B59D92"/>
<g clip-path="url(#clip1_334_282)">
<rect width="1440" height="4420.59" transform="translate(0 -3694)" fill="#693A3A"/>
<path d="M1440 -3694H0V726.595H1440V-3694Z" fill="url(#paint0_linear_334_282)"/>
<path d="M1440.5 -3694C1460.5 -3185 1272 -3060.5 1272 -3060.5C1272 -3060.5 1199.21 -2971.5 1050.5 -2971.5C242.5 -2971.5 158 -2912.5 158 -2746C158 -2570.67 418 -2574 503.5 -2574C589 -2574 1219.94 -2581.39 1258 -2456C1303.5 -2306.1 1004 -2243.6 644.5 -2270.1C261.142 -2298.36 201.5 -2201.6 206.5 -2150.1C211.5 -2098.6 322 -2010.1 738.5 -2113.6C1155 -2217.1 1251 -2103.6 1253.5 -2044.1C1256 -1984.6 1146.5 -1830 738.5 -1954C330.5 -2078 186 -1952 206.5 -1884.5C227 -1817 348 -1774 606.5 -1846.5C865 -1919 1175.28 -1914.1 1239.78 -1818.6C1304.28 -1723.1 1143.5 -1633.1 860.5 -1715.1C853 -1717.27 808.053 -1722.43 773.5 -1726.6C768.981 -1727.14 765.253 -1731.32 761.563 -1735.62L748.5 -1745.48V-1759.57C757.979 -1759.4 761.438 -1750.66 765.213 -1743.88L773.5 -1736.1C890.5 -1726.6 1092.42 -1649.27 1207.5 -1730.1C1291.5 -1789.1 1203 -1834.1 1182.5 -1846.5C1143.17 -1866.33 943.4 -1910.1 673 -1846.5C335 -1767 299 -1762 206.5 -1858C114 -1954 343.5 -2034 487.5 -2014L495.537 -2012.88C632.706 -1993.84 619.456 -2001.83 851 -1938.1C1087 -1873.14 1261.24 -1980.08 1234 -2054.1C1228.5 -2117.6 1057 -2184.1 718.5 -2095.6C561.167 -2062.1 241.4 -2009.4 203 -2118.6C155 -2255.1 332 -2304.1 503.5 -2295.6C675 -2287.1 984.202 -2261.58 1143.5 -2335.1C1299.5 -2407.1 1268.19 -2484.05 1090 -2521.5C864.5 -2568.9 876.5 -2530.76 550 -2544.5C421.5 -2549.91 179.881 -2553 142.281 -2671C95.2809 -2818.5 133 -2941 452 -2971.5C771 -3002 1061 -2949 1195 -3049C1372.88 -3181.75 1406.11 -3431.5 1206 -3567C974.623 -3723.67 69 -3488.1 -12 -3688.1L1440.5 -3694Z" fill="#48A4BD"/>
<path d="M584 66.4014C1170.89 83.4224 1317.5 -29.0986 1344 -332.099C1370.66 -636.935 1351.92 -667.451 1296.5 -807.099C1284 -838.599 1272 -855.099 1266.5 -861.599H958.5C959.522 -835.099 1075.5 -807.099 1189 -698.099C1268 -579.599 1311.5 -513.532 1311.5 -345.099C1311.5 -24.0986 1108.51 -6.1438 997.5 24.4014C886.494 54.9465 648.967 53.9014 471.5 53.9014C333.5 53.9014 244.483 111.401 215.5 166.901C178.945 236.901 229.572 292.081 298.5 317.401C347.5 335.401 421.667 346.235 451.5 341.901V333.401H431C130.5 317.401 153 53.9014 584 66.4014Z" fill="#48A4BD"/>
<path d="M773.5 -1736.1C890.5 -1726.6 1092.42 -1649.27 1207.5 -1730.1C1291.5 -1789.1 1203 -1834.1 1182.5 -1846.5C1143.17 -1866.33 943.4 -1910.1 673 -1846.5C335 -1767 299 -1762 206.5 -1858C114 -1954 343.5 -2034 487.5 -2014M773.5 -1736.1C763.423 -1737.41 763.558 -1759.29 748.5 -1759.57M773.5 -1736.1L748.5 -1759.57M487.5 -2014L495.537 -2012.88M487.5 -2014C490.219 -2013.62 492.897 -2013.25 495.537 -2012.88M1234 -2054.1C1261.24 -1980.08 1087 -1873.14 851 -1938.1C619.456 -2001.83 632.706 -1993.84 495.537 -2012.88M1234 -2054.1C1228.5 -2117.6 1057 -2184.1 718.5 -2095.6C561.167 -2062.1 241.4 -2009.4 203 -2118.6C155 -2255.1 332 -2304.1 503.5 -2295.6C675 -2287.1 984.202 -2261.58 1143.5 -2335.1C1299.5 -2407.1 1268.19 -2484.05 1090 -2521.5C864.5 -2568.9 876.5 -2530.76 550 -2544.5C421.5 -2549.91 179.881 -2553 142.281 -2671C95.2809 -2818.5 133 -2941 452 -2971.5C771 -3002 1061 -2949 1195 -3049C1372.88 -3181.75 1406.11 -3431.5 1206 -3567C974.623 -3723.67 69 -3488.1 -12 -3688.1L1440.5 -3694C1460.5 -3185 1272 -3060.5 1272 -3060.5C1272 -3060.5 1199.21 -2971.5 1050.5 -2971.5C242.5 -2971.5 158 -2912.5 158 -2746C158 -2570.67 418 -2574 503.5 -2574C589 -2574 1219.94 -2581.39 1258 -2456C1303.5 -2306.1 1004 -2243.6 644.5 -2270.1C261.142 -2298.36 201.5 -2201.6 206.5 -2150.1C211.5 -2098.6 322 -2010.1 738.5 -2113.6C1155 -2217.1 1251 -2103.6 1253.5 -2044.1C1256 -1984.6 1146.5 -1830 738.5 -1954C330.5 -2078 186 -1952 206.5 -1884.5C227 -1817 348 -1774 606.5 -1846.5C865 -1919 1175.28 -1914.1 1239.78 -1818.6C1304.28 -1723.1 1143.5 -1633.1 860.5 -1715.1C853 -1717.27 808.053 -1722.43 773.5 -1726.6M1234 -2054.1C1226.08 -2091.6 1234.05 -2054.05 1234 -2054.1ZM748.5 -1759.57V-1745.48M748.5 -1745.48C757.996 -1744.95 764.002 -1727.74 773.5 -1726.6M748.5 -1745.48L773.5 -1726.6M1344 -332.099C1317.5 -29.0988 1170.89 83.4224 584 66.4014C153 53.9014 130.5 317.401 431 333.401H451.5V341.901C421.667 346.235 347.5 335.401 298.5 317.401C229.572 292.081 178.945 236.901 215.5 166.901C244.483 111.401 333.5 53.9014 471.5 53.9014C648.967 53.9014 886.494 54.9465 997.5 24.4014C1108.51 -6.1438 1311.5 -24.0988 1311.5 -345.099C1311.5 -513.532 1268 -579.599 1189 -698.099C1075.5 -807.099 959.522 -835.099 958.5 -861.599H1266.5C1272 -855.099 1284 -838.599 1296.5 -807.099C1351.92 -667.451 1370.66 -636.935 1344 -332.099Z" stroke="#48A4BD" stroke-width="3"/>
<path d="M1444.5 -3695.6C1433.3 -3614.62 1415.05 -3485.97 1420.78 -3397.26C1422.94 -3363.83 1423.65 -3314.06 1414.59 -3309.75C1432.72 -3212.06 1432.59 -3071.43 1414.29 -2974.2C1421.75 -2929.32 1420.22 -2865.99 1410.74 -2826.91C1422.05 -2806.69 1427.32 -2755.5 1427.29 -2708.36C1427.26 -2661.22 1423.07 -2615.75 1420.47 -2569.64C1415.97 -2489.99 1416.18 -2407.35 1418.96 -2326.6C1420.43 -2284.01 1420.98 -2229.1 1410.64 -2210.89C1413.5 -2199.8 1416.35 -2188.71 1419.2 -2177.61C1419.43 -2104.22 1413.88 -2030.72 1403.43 -1968.78C1412.93 -1934.78 1414.04 -1880.16 1414.55 -1830.85C1415.06 -1780.93 1415.57 -1730.99 1416.09 -1681.07C1414.25 -1686.79 1418.92 -1683.38 1418.76 -1674.43C1418 -1630.23 1417.24 -1586.03 1416.47 -1541.83C1413.04 -1523.59 1409.61 -1505.34 1406.18 -1487.1C1410.72 -1485.64 1415 -1475.31 1417.24 -1460.38C1411.83 -1445.92 1406.41 -1431.47 1401 -1417.01C1404.57 -1401.94 1408.14 -1386.87 1411.7 -1371.81C1413.69 -1281.73 1415.69 -1191.65 1417.68 -1101.57C1418.61 -1059.44 1418.36 -1008.09 1408.71 -986.508C1412.9 -997.379 1418.65 -975.895 1417.8 -956.985C1416.94 -938.082 1412.47 -924.978 1408.34 -913.797C1409.39 -897.725 1410.44 -881.662 1411.42 -865.522C1423.1 -672.257 1423.43 -469.384 1412.38 -275.596C1410.94 -250.252 1416.22 -209.403 1420.75 -228.889C1417.74 -218.487 1414.48 -205.815 1414.78 -190.47C1415.09 -175.125 1421.75 -165.799 1423.18 -180.22C1417.18 -165.61 1413.01 -140.779 1412.08 -114.095C1417.82 -110.809 1419.14 -74.5335 1413.84 -65.5629C1417.02 -11.7317 1418.29 43.6819 1417.63 98.7698C1418.25 124.41 1418.88 150.05 1419.5 175.69C1420.15 198.226 1425.63 223.79 1426.28 246.327C1422.47 402.022 1416.53 555.627 1418.13 711.867C1422.92 755.471 1428.48 771.884 1441 770.218" fill="#B59D92"/>
<path d="M-12.0458 716.423C5.95915 634.943 16.1236 519.664 6.90784 430.402C4.11951 403.401 7.68837 346.295 16.7435 322.579C20.0514 313.919 20.6688 299.196 18.1339 288.424C-4.48892 192.282 -2.27281 65.2777 24.6869 -24.9152C24.7948 -25.2785 24.7998 -25.8235 24.6994 -26.2096C13.014 -70.9011 15.3632 -133.434 30.1631 -172.638C30.3539 -173.137 30.2987 -174.061 30.0628 -174.333C12.2436 -195.059 3.93128 -246.041 3.97896 -293.011C4.02916 -340.435 10.7528 -386.194 14.939 -432.589C22.1696 -512.721 21.8358 -595.875 17.3659 -677.12C15.0344 -719.511 14.1459 -774.005 30.1933 -792.922C30.4342 -793.202 30.4844 -794.155 30.2861 -794.64L17.1074 -826.727C17.0296 -826.916 16.9845 -827.197 16.982 -827.5C16.6457 -900.858 25.49 -974.321 42.1221 -1036.33C42.24 -1036.77 42.2124 -1037.42 42.0618 -1037.76C27.0485 -1072.01 25.2742 -1126.61 24.4635 -1175.92C23.6504 -1225.36 22.8397 -1274.82 22.0265 -1324.26C22.009 -1325.38 22.5536 -1325.77 22.6665 -1324.71C22.9552 -1321.96 17.4688 -1325.58 17.6822 -1333.31C18.9094 -1377.66 20.1342 -1422.02 21.3615 -1466.38C21.3665 -1466.6 21.3966 -1466.81 21.4468 -1466.97L37.459 -1520.27C37.6447 -1520.89 37.5142 -1521.88 37.2381 -1521.95C30.3438 -1523.87 23.9114 -1533.68 20.3601 -1547.75C20.2371 -1548.23 20.2898 -1548.94 20.4655 -1549.23L45.829 -1591.61C46.0298 -1591.96 46.0599 -1592.8 45.8867 -1593.25L29.1341 -1637.53C29.0714 -1637.7 29.0312 -1637.93 29.0212 -1638.18L19.429 -1909.69C17.9306 -1952.08 18.3297 -2003.75 33.8475 -2025.46C27.1038 -2014.53 17.8679 -2036.14 19.2382 -2055.17C20.591 -2073.96 27.6258 -2087.07 34.2114 -2098.22C34.3494 -2098.46 34.4121 -2098.95 34.3645 -2099.4C32.698 -2115.32 31.034 -2131.22 29.4905 -2147.2C10.7076 -2341.65 10.173 -2545.77 27.937 -2740.76C30.261 -2766.26 21.7781 -2807.36 14.4823 -2787.75C19.3235 -2798.22 24.5714 -2810.97 24.0795 -2826.41C23.6403 -2840.21 15.0469 -2849.17 11.5835 -2840.58C11.2748 -2839.81 11.6111 -2838.34 11.96 -2838.93C20.7441 -2853.64 26.8352 -2877.06 28.3662 -2902.22C28.4013 -2902.78 28.2683 -2903.31 28.08 -2903.4C19.2533 -2907.43 17.2354 -2942.35 25.3018 -2951.77C25.4649 -2951.96 25.5552 -2952.48 25.5076 -2952.98C20.468 -3006.83 18.4451 -3062.25 19.5068 -3117.34C19.5068 -3117.4 19.5068 -3117.45 19.5042 -3117.51L16.5076 -3194.81L13.3629 -3262.71C13.3579 -3262.79 13.3579 -3262.87 13.3629 -3262.96C19.4792 -3419.47 2.08002 -3533.56 -0.5 -3690.6L-13.5 -3690.15C-21.1547 -3733.84 -12.0347 -3735.92 -25 -3762.6" fill="#B59D92"/>
<path d="M2.75 373.831C-0.5875 410.502 37.66 446.504 66.835 468.621C96.01 490.737 129.955 507.412 153.513 535.538C167.208 551.887 176.8 571.49 191.147 587.264C215.852 614.437 252.573 627.75 288.88 631.898C325.188 636.046 361.848 632.019 398.32 629.794C485.943 624.45 574.195 629.597 660.625 645.076C682.96 649.08 706.375 653.704 727.93 646.567C746.02 640.572 760.84 626.834 778.96 620.931C826.06 605.604 875.702 647.195 924.37 638.15C933.572 636.44 942.378 632.942 951.565 631.171C965.47 628.492 979.788 629.839 993.91 630.816C1087.31 637.295 1181.8 627.273 1271.82 601.335C1290.47 595.961 1309.41 589.648 1324.39 577.235C1353.39 553.211 1361.21 512.589 1370.39 475.879C1388.71 402.581 1420.25 376.374 1430.25 318.904C1452.95 387.569 1474.97 412.966 1476.35 485.34C1477.55 548.102 1486.45 613.475 1463.16 671.68C1434.18 744.078 1360.49 789.363 1285.62 809.042C1210.75 828.721 1132.29 827.768 1055.41 836.517C1005.63 842.187 956.088 851.973 906.003 851.496C850.098 850.967 795.138 837.668 739.51 831.991C680.815 826.004 621.64 828.524 562.645 828.328C463.165 828.002 363.7 819.911 265.487 803.918C169.742 788.326 75.205 765.225 -17 734.889" fill="#B59D92"/>
<path d="M30.2765 152.914C34.799 157.349 38.0015 163.246 39.5765 169.543C40.379 172.692 40.859 175.924 41.0765 179.171C41.264 182.425 41.129 185.688 40.814 188.935C40.499 192.174 39.899 195.406 39.1115 198.563C38.309 201.704 37.364 204.807 36.2915 207.85C35.219 210.893 34.064 213.882 32.8565 216.849C31.634 219.801 30.359 222.707 29.1065 225.614C26.579 231.419 24.194 237.195 22.199 243.053C21.6965 244.521 21.239 246.005 20.774 247.481C20.354 248.972 19.889 250.456 19.514 251.954L18.9215 254.202L18.389 256.465C18.014 257.972 17.7365 259.493 17.414 261.014C16.229 267.1 15.4415 273.268 15.0515 279.46C14.669 285.651 14.729 291.873 15.1415 298.072L9.65896 297.678C10.4765 294.287 11.3915 290.904 12.4265 287.544C13.454 284.183 14.6015 280.852 15.944 277.59C17.2715 274.32 18.764 271.111 20.444 268L21.7415 265.684L23.1215 263.413L24.599 261.203L26.1515 259.054C28.289 256.215 30.6515 253.566 33.2315 251.152C35.819 248.745 38.6315 246.603 41.6165 244.756C47.5715 241.07 54.374 238.693 61.244 238.39C54.479 239.609 48.239 242.606 42.854 246.61C40.154 248.609 37.6715 250.894 35.399 253.354C33.1115 255.799 31.049 258.448 29.2265 261.249L27.8915 263.376L26.639 265.555L25.439 267.766L24.314 270.014C22.859 273.041 21.5915 276.16 20.474 279.339C19.364 282.525 18.374 285.757 17.4815 289.034C16.5965 292.312 15.8165 295.619 15.0815 298.957L11.294 316.207L9.60646 298.556C8.99146 292.108 8.84896 285.606 9.15646 279.134C9.51646 272.663 10.274 266.206 11.549 259.848C12.8315 253.49 14.519 247.216 16.7165 241.123C18.8765 235 21.5915 229.164 24.2615 223.411L28.244 214.821C29.564 211.967 30.8315 209.113 32.0015 206.222C33.179 203.338 34.2215 200.409 35.129 197.45C36.0515 194.498 36.8315 191.523 37.3265 188.465C37.844 185.423 38.129 182.342 38.219 179.247C38.2715 176.158 38.069 173.055 37.559 169.997C36.6065 163.851 34.169 157.932 30.2765 152.914Z" fill="#B1BF91"/>
<path d="M1297.79 300.193C1303.47 303.894 1308.29 308.995 1311.87 314.877C1315.48 320.758 1317.86 327.35 1319.42 334.072C1320.98 340.808 1321.76 347.734 1321.78 354.652C1321.78 356.385 1321.79 358.111 1321.7 359.844L1321.58 362.44L1321.37 365.014L1320.92 370.168C1320.74 371.879 1320.48 373.582 1320.26 375.292C1319.41 382.135 1317.98 388.871 1316.5 395.577C1314.91 402.253 1313.2 408.898 1311.34 415.476C1307.64 428.638 1303.53 441.627 1300.22 454.751L1298.99 459.671L1297.86 464.606C1297.05 467.883 1296.49 471.198 1295.82 474.498C1295.48 476.149 1295.28 477.814 1295 479.471C1294.76 481.129 1294.45 482.786 1294.27 484.452L1293.73 489.447C1293.65 490.28 1293.53 491.112 1293.47 491.945L1293.32 494.45L1293.02 499.461L1292.96 504.487L1292.93 507L1293.01 509.512L1293.16 514.538C1293.57 521.237 1294.1 527.943 1295.15 534.596C1297.02 547.94 1300.22 561.095 1303.78 574.159C1307.37 587.223 1311.67 600.121 1315.9 613.056L1311.24 614.274C1309.67 604.503 1309.16 594.58 1309.67 584.725C1310.22 574.878 1311.77 565.107 1314.27 555.608C1316.81 546.116 1320.29 536.904 1324.67 528.177L1328.15 521.736L1331.94 515.492L1336.08 509.49L1340.53 503.737L1336.47 509.77L1332.74 515.999L1329.32 522.387L1326.24 528.942C1322.34 537.768 1319.32 546.964 1317.23 556.349C1315.12 565.727 1313.94 575.309 1313.75 584.884C1313.51 594.459 1314.24 604.049 1315.99 613.434L1311.33 614.653C1309.03 608.227 1306.76 601.793 1304.61 595.299C1303.51 592.067 1302.49 588.797 1301.43 585.543C1300.42 582.273 1299.4 579.003 1298.43 575.711C1294.57 562.548 1291.32 549.144 1289.31 535.474C1288.21 528.654 1287.62 521.751 1287.16 514.841L1287.01 509.641L1286.94 507.045L1286.99 504.441L1287.08 499.234L1287.41 494.034C1288.34 480.145 1291.19 466.544 1294.77 453.298C1298.36 440.03 1302.62 427.056 1306.57 414.06C1308.59 407.566 1310.43 401.049 1312.17 394.51C1313.8 387.947 1315.34 381.355 1316.43 374.702C1316.7 373.036 1317.02 371.379 1317.26 369.706L1317.86 364.688L1318.17 362.175L1318.37 359.662C1318.52 357.989 1318.56 356.309 1318.62 354.629C1318.71 352.948 1318.63 351.268 1318.65 349.588C1318.61 347.908 1318.52 346.227 1318.45 344.547C1318.18 341.202 1317.83 337.849 1317.19 334.548L1316.72 332.073C1316.54 331.256 1316.31 330.446 1316.11 329.629C1315.89 328.819 1315.73 327.986 1315.46 327.191L1314.71 324.785C1314.58 324.383 1314.46 323.982 1314.32 323.581L1313.87 322.408L1312.95 320.054C1312.64 319.274 1312.25 318.533 1311.89 317.768C1311.52 317.019 1311.21 316.224 1310.78 315.505C1307.57 309.616 1303.25 304.257 1297.79 300.193Z" fill="#B1BF91"/>
<path d="M1208.9 553.874C1215.31 557.386 1220.99 562.276 1225.93 567.794C1230.84 573.357 1235.03 579.571 1238.55 586.126C1242.05 592.688 1244.96 599.553 1247.46 606.502C1248.73 609.976 1249.9 613.473 1251.01 616.977C1252.13 620.474 1253.19 623.986 1254.24 627.49L1248.41 628.618C1247.67 620.504 1247.47 612.345 1247.75 604.216C1248.05 596.079 1248.84 587.973 1250.16 579.957L1251.24 573.963L1252.51 568.013L1253.99 562.117L1255.62 556.274C1257.99 548.538 1260.77 540.939 1264.22 533.665C1262.07 541.431 1260.1 549.189 1258.58 557.023L1257.46 562.897L1256.51 568.793L1255.67 574.697L1254.96 580.616C1254.12 588.518 1253.63 596.435 1253.53 604.36C1253.42 612.284 1253.7 620.202 1254.36 628.096L1256.78 657.161L1248.53 629.224L1245.43 618.741C1244.38 615.259 1243.31 611.8 1242.2 608.356C1239.94 601.491 1237.46 594.724 1234.46 588.207C1231.47 581.698 1227.98 575.401 1223.75 569.595C1219.55 563.752 1214.6 558.439 1208.9 553.874Z" fill="#B1BF91"/>
<path d="M1227.05 519.034C1229.66 523.568 1231.1 528.813 1231.6 534.119C1231.85 536.776 1231.89 539.447 1231.77 542.119C1231.62 544.783 1231.3 547.44 1230.86 550.074C1229.03 560.618 1225.16 570.488 1222.21 580.282C1219.22 590.038 1217.34 600.075 1216.64 610.225C1215.94 620.367 1216.34 630.601 1217.94 640.668L1212.74 641.538C1212.17 637.065 1211.16 632.637 1209.71 628.338C1208.25 624.039 1206.38 619.853 1204.13 615.871C1201.84 611.913 1199.21 608.106 1196.19 604.609C1193.19 601.089 1189.82 597.857 1186.16 594.928C1190.28 597.168 1194.12 599.984 1197.63 603.193C1201.11 606.425 1204.31 610.036 1207.02 614.009C1209.77 617.96 1212.11 622.222 1213.95 626.718C1215.79 631.214 1217.16 635.922 1217.96 640.759L1212.76 641.629C1210.66 631.191 1209.95 620.451 1210.67 609.809C1211.39 599.174 1213.49 588.593 1216.98 578.564C1220.42 568.566 1224.67 559.15 1227.27 549.287C1227.91 546.827 1228.43 544.329 1228.79 541.816C1229.18 539.304 1229.42 536.761 1229.45 534.21C1229.52 529.108 1228.85 523.946 1227.05 519.034Z" fill="#B1BF91"/>
<path d="M1279.44 581.122C1281.38 583.771 1282.78 586.874 1283.66 590.121C1283.84 590.939 1284.06 591.756 1284.23 592.589C1284.36 593.414 1284.53 594.254 1284.64 595.087C1284.71 595.927 1284.82 596.767 1284.87 597.607C1284.91 598.447 1284.96 599.295 1284.98 600.135C1285.11 606.894 1283.94 613.54 1282.55 619.951C1281.17 626.316 1279.67 632.538 1279.02 638.729C1278.36 644.898 1278.55 651.036 1280.57 656.645L1275.56 658.461C1274.76 655.623 1273.86 652.815 1272.83 650.037L1272.05 647.956L1271.21 645.897L1270.35 643.838L1269.44 641.802C1268.18 639.108 1266.85 636.421 1265.38 633.802C1263.92 631.168 1262.36 628.579 1260.73 625.998C1262.99 628.042 1265.09 630.275 1267.06 632.636C1269.01 635.005 1270.85 637.488 1272.5 640.099L1273.73 642.067L1274.9 644.073L1276.01 646.124L1277.06 648.205C1278.41 651.006 1279.62 653.882 1280.65 656.834L1275.63 658.65C1274.22 655.403 1273.37 651.914 1273.01 648.44C1272.64 644.958 1272.73 641.484 1273.07 638.101C1273.79 631.319 1275.49 624.87 1277.24 618.611C1278.98 612.404 1280.57 606.243 1281.33 599.969C1281.43 599.181 1281.47 598.402 1281.55 597.615C1281.61 596.828 1281.62 596.04 1281.65 595.253C1281.68 594.466 1281.66 593.679 1281.67 592.884C1281.65 592.097 1281.58 591.31 1281.54 590.515C1281.27 587.351 1280.61 584.195 1279.44 581.122Z" fill="#B1BF91"/>
<path d="M1230.47 401.526C1213.15 414.961 1200.01 433.309 1192.55 453.639L1191.21 457.476C1190.78 458.755 1190.44 460.072 1190.05 461.367L1189.49 463.312C1189.3 463.963 1189.17 464.629 1189.01 465.28L1188.08 469.223L1187.35 473.205C1187.23 473.871 1187.09 474.529 1187 475.195L1186.74 477.201C1186.58 478.541 1186.37 479.873 1186.25 481.213L1185.93 485.247C1185.62 490.644 1185.64 496.055 1185.92 501.467C1186.24 506.879 1186.75 512.291 1187.44 517.703C1190.24 539.32 1195.64 560.808 1197.05 583.204C1197.26 585.99 1197.31 588.798 1197.41 591.591C1197.41 594.399 1197.41 597.199 1197.26 600.015C1197 605.631 1196.48 611.263 1195.42 616.826C1195.2 618.226 1194.88 619.604 1194.56 620.989C1194.23 622.366 1193.96 623.759 1193.53 625.121C1193.13 626.484 1192.76 627.854 1192.33 629.209L1190.9 633.235C1188.85 638.556 1186.24 643.665 1183.1 648.434L1175.69 659.712L1178.02 646.405C1180.13 634.31 1181.02 621.995 1180.46 609.741C1179.92 597.495 1177.75 585.316 1173.77 573.728C1171.78 567.945 1169.28 562.322 1166.3 556.963C1163.33 551.604 1159.92 546.472 1156.03 541.719C1148.26 532.22 1138.67 524.098 1127.58 518.52C1139.04 523.258 1149.34 530.888 1157.74 540.228C1166.18 549.56 1172.79 560.566 1177.36 572.396C1181.95 584.219 1184.44 596.813 1185.37 609.453C1186.28 622.116 1185.49 634.84 1183.54 647.344L1178.45 645.315C1181.27 640.85 1183.61 636.104 1185.5 631.161L1186.82 627.407C1187.21 626.143 1187.54 624.849 1187.92 623.577C1188.32 622.306 1188.56 620.996 1188.86 619.694C1189.16 618.393 1189.46 617.098 1189.65 615.774C1190.63 610.521 1191.1 605.154 1191.32 599.78C1191.54 594.399 1191.44 588.995 1191.12 583.583C1190.54 572.759 1188.88 561.981 1187.09 551.142C1185.31 540.311 1183.47 529.404 1182.2 518.361C1181.6 512.836 1181.12 507.28 1180.94 501.694C1180.81 496.108 1180.94 490.5 1181.42 484.914L1181.86 480.728C1182.02 479.335 1182.28 477.95 1182.48 476.565L1182.81 474.484C1182.93 473.795 1183.1 473.114 1183.23 472.425L1184.11 468.315L1185.22 464.266C1185.41 463.592 1185.57 462.911 1185.79 462.245L1186.45 460.254C1186.9 458.93 1187.3 457.59 1187.8 456.288L1189.32 452.382C1197.74 431.704 1212.2 413.629 1230.47 401.526Z" fill="#B1BF91"/>
<path d="M188.161 330.771C185.146 337.553 182.176 344.365 179.769 351.351C178.569 354.848 177.504 358.383 176.694 361.971C175.899 365.559 175.329 369.192 175.081 372.825C175.044 373.733 174.954 374.641 174.954 375.557L174.961 378.282L175.134 380.999C175.179 381.908 175.329 382.801 175.419 383.701C175.914 387.297 176.784 390.831 177.886 394.305C180.069 401.261 183.219 407.922 186.421 414.59C192.909 427.942 199.179 441.415 205.179 455.024C211.179 468.633 216.819 482.424 221.919 496.441C232.231 524.409 240.211 553.405 244.494 583.083C248.686 612.731 249.024 643.15 243.751 672.76L238.471 672.034C239.214 664.957 239.956 657.857 240.819 650.765C241.704 643.673 242.701 636.588 243.909 629.526C245.116 622.464 246.549 615.426 248.296 608.462C250.059 601.499 252.174 594.618 254.686 587.889C259.711 574.417 266.604 561.618 275.484 550.378C279.916 544.754 284.896 539.584 290.349 534.99C295.794 530.396 301.779 526.475 308.116 523.341C295.771 530.312 285.391 540.288 277.126 551.649C272.979 557.334 269.334 563.381 266.176 569.663C263.011 575.946 260.274 582.447 258.016 589.101C255.744 595.761 253.891 602.573 252.331 609.446C250.756 616.319 249.504 623.274 248.454 630.268C247.411 637.262 246.571 644.293 245.844 651.348C245.086 658.402 244.434 665.479 243.781 672.564L238.501 671.837C240.819 657.327 241.951 642.636 241.876 627.929C241.921 620.572 241.516 613.223 241.014 605.881C240.676 602.218 240.421 598.547 239.964 594.891C239.746 593.059 239.566 591.235 239.326 589.403L238.569 583.931C238.336 582.107 238.021 580.29 237.744 578.474C237.451 576.657 237.189 574.833 236.866 573.017C236.199 569.391 235.591 565.758 234.819 562.155C233.394 554.927 231.661 547.751 229.839 540.614C226.074 526.354 221.739 512.23 216.826 498.288C211.951 484.339 206.499 470.586 200.866 456.893C195.189 443.216 189.189 429.675 183.144 416.127C180.129 409.337 177.099 402.45 175.051 395.153C174.046 391.505 173.266 387.781 172.899 383.989C172.839 383.043 172.711 382.097 172.704 381.143L172.636 378.297L172.734 375.451C172.771 374.505 172.891 373.566 172.966 372.62C173.364 368.859 174.091 365.15 175.074 361.532C176.064 357.914 177.309 354.379 178.674 350.913C180.039 347.439 181.569 344.048 183.181 340.702C184.794 337.379 186.474 334.072 188.161 330.771Z" fill="#B1BF91"/>
<path d="M250.996 497.81C257.071 502.245 262.711 507.325 267.916 512.842L271.734 517.066L275.394 521.425L278.874 525.944L282.196 530.584C286.554 536.828 290.424 543.413 293.941 550.172C297.489 556.924 300.586 563.91 303.361 571.01C308.979 585.194 313.089 599.901 316.651 614.66C320.056 629.457 322.906 644.338 325.494 659.218L320.199 660.127L319.606 654.45L319.336 648.758L319.419 643.066L319.816 637.397C320.544 629.859 322.096 622.418 324.466 615.273L326.371 609.967L328.554 604.782L331.036 599.742L333.781 594.852C337.629 588.448 342.189 582.514 347.401 577.284C342.826 583.09 338.881 589.327 335.619 595.881L333.294 600.847L331.239 605.925L329.431 611.087L327.886 616.325C326.041 623.364 324.856 630.555 324.444 637.776L324.286 643.195L324.421 648.607L324.819 653.996L325.516 659.347L320.221 660.255C317.154 645.473 314.341 630.668 310.824 616.075C307.456 601.444 303.369 587.026 298.321 572.97C295.771 565.954 292.899 559.066 289.756 552.307C286.591 545.555 283.044 538.985 279.181 532.605L276.189 527.874L273.046 523.242L269.769 518.7L266.326 514.28C261.631 508.422 256.524 502.919 250.996 497.81Z" fill="#B1BF91"/>
<path d="M359.806 488.274C362.769 490.507 365.566 493.02 368.071 495.82C370.524 498.659 372.796 501.702 374.709 504.979C376.576 508.271 378.249 511.708 379.539 515.31C380.761 518.928 381.774 522.645 382.344 526.452C382.891 530.259 383.206 534.127 382.981 538.002C382.989 538.971 382.831 539.932 382.764 540.901C382.674 541.87 382.591 542.839 382.426 543.785C382.156 545.7 381.781 547.592 381.361 549.469C380.514 553.223 379.389 556.872 378.136 560.437C376.899 564.002 375.571 567.506 374.304 570.988C373.029 574.462 371.829 577.936 370.771 581.403C369.729 584.877 368.836 588.343 368.341 591.885C367.141 598.932 367.254 606.191 367.921 613.396C369.414 627.845 373.681 642.053 377.956 656.29L372.909 657.213C372.684 650.62 373.561 644.043 375.264 637.753C376.959 631.448 379.614 625.454 382.959 619.929C386.289 614.396 390.444 609.407 395.131 605.07C399.856 600.771 405.166 597.169 410.904 594.588C405.541 597.88 400.689 601.884 396.496 606.471C392.266 611.02 388.741 616.167 385.854 621.601C382.981 627.051 380.881 632.879 379.516 638.836C378.159 644.8 377.694 650.931 378.076 656.971L379.329 676.537L373.036 657.894C370.651 650.825 368.326 643.687 366.339 636.406C364.411 629.102 362.769 621.654 361.989 614.025C361.824 612.11 361.606 610.21 361.554 608.28C361.516 607.319 361.449 606.357 361.449 605.396L361.464 602.497C361.449 601.536 361.509 600.567 361.569 599.598L361.749 596.699L362.079 593.808L362.244 592.362L362.499 590.924C363.736 583.204 366.414 575.953 369.166 569.012C371.941 562.056 374.754 555.259 376.696 548.296C377.169 546.555 377.604 544.807 377.926 543.043C378.121 542.165 378.234 541.28 378.354 540.394C378.459 539.508 378.646 538.623 378.676 537.73L378.864 535.043C378.901 534.15 378.871 533.249 378.894 532.348C378.894 531.902 378.916 531.447 378.901 531.001L378.826 529.654C378.766 528.753 378.766 527.845 378.646 526.951C378.324 523.349 377.589 519.791 376.636 516.279C375.661 512.775 374.334 509.369 372.781 506.054C371.161 502.776 369.279 499.62 367.134 496.615C364.936 493.641 362.491 490.863 359.806 488.274Z" fill="#B1BF91"/>
<path d="M321.054 556.379C313.861 563.577 307.194 571.214 301.659 579.555C296.139 587.896 291.984 596.986 288.909 606.463C287.319 611.186 286.141 616.053 285.001 620.92L284.214 624.598L283.516 628.299C283.269 629.526 283.059 630.767 282.856 632.008C282.654 633.249 282.429 634.483 282.249 635.732C280.704 645.693 279.654 655.775 278.521 665.894L275.724 690.864L273.009 665.978C272.424 660.596 271.681 655.222 270.819 649.871C270.369 647.199 269.904 644.527 269.409 641.855C268.891 639.191 268.359 636.527 267.804 633.862L266.919 629.881L265.974 625.907L264.999 621.941L263.971 617.983C262.561 612.715 261.039 607.462 259.434 602.209C261.871 607.121 264.076 612.162 266.056 617.286L267.511 621.147L268.899 625.037L270.189 628.965L271.411 632.916L272.574 636.89L273.646 640.886L274.651 644.906L275.566 648.947C276.751 654.344 277.726 659.794 278.499 665.274L272.986 665.357C273.376 660.271 273.826 655.177 274.351 650.075C274.906 644.974 275.514 639.872 276.324 634.778C277.936 624.598 280.239 614.441 283.816 604.661C285.654 599.795 287.679 594.98 290.221 590.432C290.799 589.266 291.504 588.169 292.171 587.048C292.854 585.936 293.491 584.808 294.226 583.733C295.659 581.561 297.189 579.472 298.794 577.443C305.199 569.314 312.811 562.321 321.054 556.379Z" fill="#B1BF91"/>
<path d="M238.914 469.026C238.554 472.659 237.699 476.269 236.454 479.736C235.224 483.21 233.641 486.578 231.796 489.765C228.181 496.198 223.756 502.08 219.519 507.953C217.419 510.905 215.221 513.758 213.316 516.794C212.341 518.292 211.344 519.776 210.399 521.289L207.699 525.922C204.174 532.128 200.941 538.524 198.354 545.185L197.334 547.66C197.004 548.493 196.726 549.34 196.419 550.173C195.819 551.853 195.204 553.526 194.619 555.214C193.614 558.643 192.429 562.011 191.619 565.493L190.951 568.089L190.614 569.383L190.336 570.692L189.226 575.93C188.851 577.678 188.634 579.45 188.326 581.213L187.899 583.855C187.756 584.74 187.681 585.626 187.569 586.512L186.946 591.84L186.579 597.191C186.414 598.97 186.391 600.764 186.354 602.55L186.294 605.23C186.264 606.123 186.249 607.016 186.286 607.909L186.399 613.275C186.399 614.169 186.474 615.062 186.541 615.955L186.736 618.634L186.909 621.314C186.961 622.207 187.104 623.092 187.194 623.985L187.816 629.329L183.384 629.269C184.389 624.689 186.076 620.284 188.356 616.258C190.629 612.231 193.404 608.507 196.644 605.283C199.884 602.066 203.499 599.25 207.451 597.07C211.389 594.868 215.619 593.248 219.969 592.362C215.791 593.854 211.854 595.905 208.284 598.41C204.721 600.938 201.466 603.867 198.691 607.19C195.909 610.505 193.516 614.123 191.686 618.006C189.864 621.881 188.521 625.969 187.816 630.147L185.679 642.741L183.384 630.093C182.064 622.82 181.111 615.448 180.864 608.03C180.796 607.107 180.796 606.176 180.796 605.252L180.789 602.467C180.781 600.612 180.759 598.758 180.886 596.904L181.171 591.341L181.734 585.8C182.596 578.428 183.879 571.093 185.859 563.941C186.729 560.33 187.936 556.818 189.061 553.284C189.691 551.543 190.359 549.809 191.004 548.076C191.334 547.213 191.641 546.335 191.994 545.48L193.104 542.929C195.991 536.102 199.531 529.578 203.371 523.265L206.386 518.618C207.444 517.104 208.546 515.62 209.626 514.129L211.254 511.897L212.949 509.724C214.089 508.294 215.229 506.863 216.399 505.47C221.064 499.877 225.721 494.389 229.816 488.486L231.309 486.245L232.711 483.952C233.611 482.4 234.504 480.841 235.261 479.206C236.791 475.982 238.059 472.576 238.914 469.026Z" fill="#B1BF91"/>
<path d="M566.354 563.69C570.082 566.249 573.749 568.921 577.086 572.115C580.371 575.317 583.371 579.109 585.104 583.65C586.859 588.161 587.422 592.937 587.849 597.456C588.074 599.727 588.254 601.959 588.554 604.124C588.682 605.214 588.921 606.274 589.101 607.341C589.266 608.416 589.536 609.468 589.784 610.528C591.854 618.975 595.596 626.983 600.164 634.552C604.709 642.143 609.989 649.379 615.299 656.684L610.094 658.553C609.914 652.256 610.829 645.966 612.674 640.017C614.504 634.06 617.271 628.444 620.751 623.365C624.284 618.331 628.461 613.767 633.284 610.081L636.981 607.44L640.874 605.146C642.231 604.495 643.574 603.829 644.931 603.201C646.334 602.679 647.729 602.149 649.124 601.657L645.261 603.859C644.039 604.7 642.809 605.502 641.586 606.312L638.129 609.021L634.874 611.943C630.711 616.023 627.074 620.594 624.209 625.597C618.404 635.536 615.306 647.025 615.884 658.318L616.364 667.636L610.686 660.188C605.197 652.99 599.767 645.61 595.072 637.625C590.407 629.662 586.536 620.95 584.729 611.655C584.504 610.497 584.264 609.339 584.144 608.158C584.009 606.985 583.821 605.812 583.754 604.639C583.566 602.292 583.507 599.999 583.447 597.736C583.304 593.232 583.169 588.842 581.961 584.748C580.754 580.683 578.511 576.861 575.676 573.447C572.864 569.996 569.579 566.869 566.354 563.69Z" fill="#B1BF91"/>
<path d="M594.022 546.994C595.807 551.694 597.464 556.463 598.612 561.435C599.714 566.401 600.307 571.638 599.564 576.899C599.212 579.518 598.514 582.129 597.539 584.597C596.572 587.064 595.319 589.373 594.014 591.598C591.359 596.041 588.427 600.09 585.847 604.238C583.237 608.401 580.867 612.708 578.714 617.121C576.532 621.518 574.604 626.037 572.864 630.631C569.429 639.827 566.864 649.357 565.312 659.06L564.067 666.833L560.084 660.18C558.337 657.266 557.129 654.072 556.409 650.848C556.259 650.038 556.049 649.236 555.952 648.426L555.644 646.011C555.532 644.407 555.412 642.81 555.412 641.235C555.397 638.079 555.562 634.968 555.764 631.918C555.967 628.868 556.147 625.847 556.267 622.858C556.364 619.875 556.312 616.909 555.997 613.987C555.629 611.08 555.037 608.174 554.077 605.366C553.132 602.55 551.894 599.825 550.394 597.222C548.894 594.618 547.102 592.173 545.092 589.88C547.439 591.81 549.614 594.012 551.474 596.487C552.419 597.714 553.274 599.008 554.092 600.332C554.872 601.68 555.614 603.057 556.252 604.488C557.557 607.342 558.562 610.354 559.177 613.465C559.769 616.576 560.077 619.717 560.219 622.835C560.459 629.057 560.077 635.18 560.467 641.053C560.729 646.935 561.989 652.536 564.892 657.085L559.664 658.205C561.067 648.047 563.617 638.041 567.292 628.474C569.107 623.683 571.237 619.013 573.584 614.471C575.969 609.945 578.602 605.555 581.459 601.324C584.287 597.04 587.519 593.18 590.227 589.153C592.919 585.119 595.207 580.933 596.182 576.271C597.187 571.623 597.217 566.673 596.632 561.761C596.092 556.849 595.034 551.929 594.022 546.994Z" fill="#B1BF91"/>
<path d="M883.739 614.372C881.242 616.937 879.149 619.784 877.477 622.811C877.072 623.576 876.689 624.355 876.299 625.12C875.947 625.907 875.624 626.709 875.294 627.496C874.979 628.291 874.709 629.108 874.417 629.903C874.154 630.713 873.952 631.546 873.712 632.356C872.077 638.948 872.099 645.866 874.034 652.118C875.969 658.423 879.704 664.236 883.417 670.329C885.262 673.387 887.122 676.544 888.689 679.942C890.264 683.326 891.539 686.981 892.132 690.811L887.797 689.26C890.189 687.33 892.402 685.142 894.367 682.72L895.807 680.873L897.149 678.943L898.424 676.952L899.594 674.886C901.057 672.078 902.324 669.126 903.262 666.03C904.222 662.942 904.867 659.733 905.242 656.433C905.699 659.725 905.669 663.109 905.249 666.462C904.799 669.815 903.997 673.145 902.759 676.339L901.784 678.716L900.682 681.047L899.422 683.303L898.042 685.49C896.099 688.351 893.834 691.008 891.247 693.354L887.902 696.39L886.912 691.803C885.524 685.399 881.999 679.518 878.324 673.501C876.487 670.481 874.582 667.408 872.887 664.123C871.192 660.845 869.692 657.348 868.754 653.617C866.872 646.116 867.532 638.184 870.239 631.228C870.607 630.365 870.944 629.502 871.334 628.654C871.762 627.822 872.159 626.989 872.602 626.179C873.097 625.392 873.569 624.597 874.072 623.825C874.619 623.076 875.144 622.327 875.699 621.6C877.972 618.724 880.694 616.241 883.739 614.372Z" fill="#B1BF91"/>
<path d="M873.802 580.487C877.567 585.642 880.304 591.591 882.284 597.729C882.742 599.273 883.244 600.817 883.664 602.377C884.039 603.943 884.444 605.51 884.797 607.084L885.772 611.815C886.064 613.397 886.357 614.979 886.612 616.561C887.662 622.888 888.449 629.208 889.424 635.437C890.399 641.659 891.539 647.805 893.264 653.716L888.494 652.301C891.097 649.917 892.904 646.465 894.359 642.62C895.109 640.706 895.814 638.7 896.579 636.641L897.817 633.568C898.244 632.546 898.619 631.509 899.122 630.525C902.819 622.51 907.544 614.994 913.207 608.303C918.892 601.635 925.409 595.724 932.579 590.834C939.779 585.998 947.579 582.122 955.747 579.625C948.142 583.53 941.009 588.132 934.514 593.46C933.704 594.126 932.924 594.838 932.129 595.519C931.349 596.216 930.524 596.866 929.789 597.616C928.289 599.084 926.737 600.492 925.327 602.036L923.167 604.307L921.112 606.676C919.702 608.212 918.479 609.915 917.167 611.535C912.097 618.158 907.874 625.386 904.507 632.978C904.057 633.909 903.712 634.893 903.314 635.854L902.167 638.753C901.447 640.72 900.757 642.764 899.939 644.838C899.129 646.912 898.199 649.016 896.984 651.067C895.799 653.118 894.254 655.094 892.379 656.752L888.854 659.877L887.609 655.344C885.869 648.994 884.864 642.552 884.137 636.164C883.409 629.768 882.952 623.418 882.374 617.113L881.909 612.398L881.354 607.705C881.137 606.146 880.882 604.602 880.649 603.043L879.794 598.41C879.457 596.881 879.067 595.36 878.707 593.824L877.372 589.29L875.737 584.839L873.802 580.487Z" fill="#B1BF91"/>
<path d="M906.974 543.717C911.819 545.533 916.199 548.682 919.859 552.489C923.519 556.319 926.512 560.777 928.942 565.493C930.172 567.854 931.244 570.284 932.227 572.736C933.187 575.196 934.064 577.686 934.882 580.176C935.707 582.667 936.472 585.164 937.237 587.647L939.464 595.065C940.964 599.984 942.667 604.73 944.662 609.37C946.664 614.01 948.944 618.521 951.479 622.88C956.557 631.6 962.752 639.646 969.779 646.866L965.084 648.433L965.932 644.119L967.004 639.865L968.272 635.672L969.757 631.554L971.437 627.52L973.289 623.577L975.322 619.724L977.557 616L979.957 612.39L982.514 608.9C983.414 607.773 984.337 606.668 985.252 605.555L988.139 602.353C992.077 598.183 996.434 594.444 1001.13 591.265C997.004 595.163 993.232 599.364 989.827 603.814L987.352 607.205C986.579 608.371 985.814 609.544 985.034 610.694L982.844 614.259L980.827 617.915L978.974 621.647L977.257 625.431L975.712 629.291L974.347 633.212L973.154 637.186L972.119 641.19L971.272 645.239L970.597 649.311L969.727 654.557L965.902 650.878C958.274 643.544 951.659 635.119 946.342 625.931C943.679 621.336 941.332 616.56 939.329 611.633C937.289 606.728 935.744 601.604 934.379 596.563C933.697 594.035 933.044 591.514 932.407 589.002C931.792 586.481 931.177 583.983 930.509 581.508C929.849 579.033 929.144 576.573 928.357 574.159C927.584 571.729 926.759 569.338 925.777 567.014C924.802 564.683 923.677 562.412 922.462 560.202C921.232 557.992 919.874 555.85 918.322 553.859C915.232 549.84 911.459 546.313 906.974 543.717Z" fill="#B1BF91"/>
<path d="M1147.56 608.037C1149.46 613.229 1154.69 616.408 1159.88 618.194C1165.07 619.981 1170.62 620.828 1175.47 623.394C1181.38 626.528 1185.74 631.925 1189.91 637.177C1193.2 641.303 1196.48 645.427 1199.77 649.552C1200.92 651.006 1202.12 652.512 1202.62 654.313C1203.49 657.409 1202.15 660.709 1200.37 663.366C1193.14 674.137 1179.41 678.08 1166.67 680.094C1157.99 681.464 1149.21 682.304 1140.43 682.599C1135.99 682.75 1131.45 682.743 1127.24 681.32C1119.21 678.603 1099.7 684.62 1111.24 662.73C1115.21 655.192 1109.55 645.753 1110.84 637.313C1112.04 629.442 1113.87 621.525 1117.81 614.629C1121.75 607.726 1128.06 601.898 1135.74 600.066C1138.03 599.521 1140.5 599.347 1142.69 600.203C1147.63 602.133 1149.32 608.203 1150.34 613.449C1151.46 614.031 1152.93 613.766 1147.56 608.037Z" fill="#D9D9D9"/>
<path d="M1223.3 697.949C1229.85 691.508 1240.34 692.522 1249.42 693.68C1250.81 693.854 1252.4 693.968 1253.42 693.014C1254.86 691.675 1254.24 689.275 1253.42 687.481C1250.23 680.533 1245.65 674.236 1240.05 669.074C1239.23 668.31 1238.33 667.545 1237.23 667.311C1235.93 667.023 1234.59 667.538 1233.41 668.173C1224.53 672.964 1221.4 684.03 1219.1 693.93C1218.82 695.179 1218.59 696.677 1219.5 697.578C1220.67 698.736 1222.69 697.888 1223.84 696.708C1224.98 695.519 1225.98 693.968 1223.3 697.949Z" fill="#D9D9D9"/>
<path d="M656.904 666.152C660.939 648.72 673.141 633.401 689.146 625.68C690.631 624.969 692.251 624.295 693.871 624.575C695.394 624.832 696.646 625.869 697.884 626.8C708.024 634.422 721.171 636.413 732.639 641.787C744.841 647.502 755.161 657.228 761.656 669.119C761.994 669.74 762.331 670.391 762.376 671.102C762.466 672.578 761.289 673.82 760.059 674.614C753.151 679.095 744.196 675.53 736.141 673.91C716.341 669.921 696.331 678.732 676.164 679.686C671.769 679.897 667.119 679.655 663.399 677.286C659.679 674.917 656.079 669.725 656.904 666.152Z" fill="#D9D9D9"/>
<path d="M260.746 687.05C249.234 678.088 238.531 668.059 228.834 657.13C225.871 653.799 222.939 650.317 219.129 648.024C213.106 644.398 205.734 644.186 198.729 644.073C192.144 643.967 185.424 643.876 179.131 645.837C172.839 647.805 166.929 652.202 164.844 658.507C163.591 662.284 163.764 666.515 161.971 670.065C160.539 672.888 158.019 674.955 155.724 677.119C149.859 682.652 145.066 689.343 141.706 696.708C149.146 693.983 156.781 691.22 164.694 691.289C169.741 691.334 174.699 692.53 179.611 693.718C186.834 695.467 194.056 697.215 201.271 698.971C203.791 699.584 206.356 700.197 208.951 700.122C212.206 700.023 215.326 698.85 218.394 697.76C231.571 693.075 245.221 689.775 260.746 687.05Z" fill="#D9D9D9"/>
<path d="M316.254 675.34C318.594 671.299 319.764 666.697 321.286 662.269C322.809 657.849 324.811 653.391 328.351 650.363C331.891 647.335 337.306 646.109 341.244 648.584C342.684 649.492 343.824 650.802 344.934 652.088C348.249 655.926 351.564 659.764 354.879 663.609C358.134 667.37 361.614 672.093 360.204 676.884C359.581 679.011 358.036 680.76 356.296 682.114C349.929 687.049 341.191 687.216 333.181 686.603C325.171 685.99 316.824 684.847 309.346 687.814C312.459 681.146 316.081 674.72 316.254 675.34Z" fill="#D9D9D9"/>
<path d="M1292.43 670.724C1281.93 652.006 1288.25 628.027 1307.26 614.403C1311.98 611.019 1317.4 608.212 1321.33 604.223C1331.35 594.058 1329.71 578.45 1340.43 568.762C1341.51 567.786 1342.86 566.839 1344.47 566.824C1346 566.817 1347.32 567.649 1348.47 568.459C1360.32 576.815 1369.6 587.541 1375.25 599.416C1379.57 608.492 1382.18 618.71 1391 625.31C1394.56 627.974 1398.98 629.904 1401.96 633C1404.23 635.362 1405.49 638.238 1406.72 641.061C1414.55 659.105 1418.64 666.545 1426.47 684.59C1406.53 683.788 1386.66 694.278 1366.69 687.693C1359.68 685.385 1353.5 681.517 1346.27 679.715C1339.88 678.126 1333.05 678.232 1326.37 678.361C1311.98 678.633 1297.6 678.906 1283.21 679.178C1288.85 676.264 1292.77 671.337 1292.43 670.724Z" fill="#D9D9D9"/>
<path d="M27.4662 603.663C29.3937 597.138 29.6712 590.16 31.9737 583.764C34.2837 577.361 39.5262 571.245 46.2687 571.056C51.7962 570.897 56.5812 574.651 60.8337 578.216C65.1762 581.849 69.6012 585.581 72.5562 590.425C75.9687 596.026 77.4612 603.118 82.6437 607.107C86.4162 610.013 91.4037 610.633 95.7912 612.45C100.186 614.266 104.484 618.437 103.531 623.13C79.5387 618.884 54.8937 622.116 30.5937 620.39C28.3062 620.231 25.6662 619.8 24.5412 617.786C23.8137 616.492 23.9487 614.887 24.2037 613.419C25.1862 607.818 27.5562 602.467 27.4662 603.663Z" fill="#D9D9D9"/>
<path d="M1371.34 374.299C1373.57 373.828 1375.82 374.481 1377.52 375.653C1379.21 376.827 1380.42 378.47 1381.5 380.151C1384.76 385.225 1387.03 390.831 1389.21 396.444C1389.76 397.849 1390.3 399.288 1390.31 400.824C1390.31 403.479 1388.54 406.24 1385.92 407.677C1391.13 409.273 1396.71 410.883 1402.35 409.518C1404.85 408.914 1407.2 407.756 1409.5 406.578C1414.06 404.248 1418.55 401.796 1422.97 399.229C1424.81 398.158 1426.67 397.044 1428.11 395.53C1429.55 394.017 1430.53 392.022 1430.21 390.184C1427.34 392.535 1422.92 392.325 1420.07 390.53C1417.22 388.738 1415.62 385.741 1414.34 382.751C1412.79 379.12 1411.6 375.341 1410.41 371.572C1409.83 369.743 1409.25 367.899 1409.11 365.955C1408.94 363.553 1409.47 361.047 1410.65 358.745C1410.81 358.421 1410.99 358.057 1410.86 357.748C1410.75 357.478 1410.43 357.347 1410.14 357.248C1404.94 355.471 1398.4 356.568 1393.63 360.016C1392.07 361.146 1390.7 362.501 1389.09 363.567C1386.08 365.567 1382.46 366.434 1379.11 367.814C1375.76 369.193 1372.33 371.447 1371.34 374.299Z" fill="#FFE0AD"/>
<path d="M1428.83 332.088C1427.98 332.404 1427.18 332.925 1426.58 333.585Z" fill="#FFE0AD"/>
<path d="M1390.2 360.705C1389.33 358.41 1388.32 356.134 1386.66 354.29C1385.01 352.451 1382.61 351.076 1379.87 351.011C1379.59 350.488 1379.92 349.817 1380.28 349.263C1380.59 348.783 1380.94 348.302 1381.44 347.987C1382.22 347.49 1383.25 347.506 1384.04 347.841C1384.84 348.169 1385.44 348.762 1385.99 349.371C1388.77 352.439 1390.73 356.194 1391.38 360.286C1391.46 360.846 1391.34 361.653 1390.7 361.748C1390.2 361.818 1389.9 361.329 1389.87 360.885C1389.84 360.437 1389.96 359.955 1390.2 360.705Z" fill="#70634D"/>
<path d="M1370.71 375.28C1370.87 370.995 1372.66 366.476 1376.2 363.312C1379.74 360.147 1385.17 358.628 1389.33 360.214C1390.06 360.491 1390.86 360.862 1391.65 360.567C1392.24 360.35 1392.63 359.831 1393 359.357C1394.78 357.083 1397.09 355.001 1399.91 354.038C1404.83 352.363 1410.12 354.664 1412.7 358.385C1411.3 358.265 1409.98 357.775 1408.55 357.864C1407.12 357.954 1405.47 358.959 1405.5 360.254C1403.89 359.294 1401.91 358.306 1400 359.088C1398.8 359.575 1397.95 360.679 1397.55 361.809C1397.14 362.941 1397.12 364.115 1397.1 365.262C1395.55 364.711 1393.55 365.457 1392.37 366.737C1391.2 368.017 1390.76 369.706 1390.76 371.278C1388.89 369.993 1386.47 369.244 1384 369.653C1381.54 370.061 1379.13 371.798 1378.48 374.026C1377.76 372.78 1376.09 372.103 1374.47 372.405C1372.85 372.714 1371.38 373.974 1370.71 375.28Z" fill="#FF4A4A"/>
<path d="M1383.98 406.585C1386.65 409.15 1389.4 411.762 1392.95 413.299C1396.49 414.83 1401.06 415.108 1404.74 413.058C1407.44 411.546 1409.45 408.924 1412.36 407.87C1413.81 407.347 1415.35 407.269 1416.86 406.97C1419.36 406.466 1421.73 405.344 1424.06 404.23C1426.14 403.239 1428.32 402.173 1429.71 400.428C1431.33 398.389 1431.58 395.826 1431.72 393.427C1431.81 392.081 1431.84 390.625 1430.98 389.624C1429.86 391.234 1428.57 392.839 1426.79 393.819C1425 394.799 1422.61 394.972 1421.25 393.786C1420.84 395.57 1420.33 397.513 1418.79 398.765C1416.71 400.441 1413.45 400.094 1411.71 398.474C1411.38 400.361 1409.83 402.15 1407.86 402.924C1405.88 403.698 1403.57 403.426 1402.11 402.25C1402.97 404.083 1401.4 406.712 1399.14 407.22C1397.7 407.548 1396.25 407.09 1395.19 406.297C1394.12 405.505 1393.39 404.406 1392.73 403.3C1393.01 405.006 1391.36 406.834 1389.46 407.353C1387.56 407.873 1385.59 407.327 1383.98 406.585Z" fill="#FF4A4A"/>
</g>
<path d="M151.658 621.48C153.598 631.284 149.931 641.242 146.212 650.52C145.923 651.25 145.611 652.006 145.06 652.562C144.521 653.111 143.805 653.433 143.104 653.741C141.757 654.332 140.42 654.92 139.073 655.511C138.235 655.881 137.375 656.263 136.704 656.893C135.958 657.598 135.51 658.551 135.079 659.49C131.078 668.2 127.328 677.022 123.826 685.945C123.678 686.331 123.522 686.728 123.546 687.142C123.569 687.515 123.734 687.86 123.918 688.184C125.568 691.199 128.385 693.403 131.365 695.112C134.345 696.821 137.549 698.109 140.523 699.814C144.624 702.16 148.626 705.382 153.346 705.367C153.761 705.368 154.196 705.333 154.558 705.123C154.873 704.941 155.097 704.645 155.316 704.355C157.4 701.571 159.483 698.788 161.569 696.014C162.534 694.728 163.514 693.404 164.008 691.873C164.821 689.324 164.197 686.462 165.181 683.971C166.353 680.999 169.447 679.347 172.128 677.609C174.256 676.223 176.252 674.629 178.033 672.818C180.227 670.584 182.072 668.042 183.907 665.502C187.952 659.914 192.004 654.329 196.052 648.735C196.421 648.223 196.808 647.667 196.814 647.035C196.816 646.08 195.975 645.366 195.195 644.821C184.011 636.923 170.727 632.432 159.397 624.748C156.975 623.105 154.394 621.247 151.658 621.48Z" fill="#FFEEA3"/>
<path d="M152.016 622.217C151.98 626.461 151.935 630.708 151.899 634.952C151.894 635.278 151.891 635.614 152 635.919C152.138 636.311 150.637 636.469 150.92 636.771C154.068 640.034 159.009 643.453 162.157 646.715C162.282 644.576 161.282 642.557 160.337 640.632C157.351 634.545 154.653 628.324 152.016 622.217Z" fill="#EDDA82"/>
<path d="M179.68 671.3C176.743 673.998 173.76 676.655 170.743 679.26C169.39 680.428 167.978 681.616 166.269 682.127C164.699 682.599 163.021 682.461 161.382 682.393C157.222 682.208 153.038 682.481 148.933 683.206C151.038 681.062 153.243 679.015 155.536 677.064C157.246 675.613 159.042 674.203 161.113 673.333C162.749 672.648 164.518 672.321 166.275 672.057C170.861 671.354 175.513 671.003 179.68 671.3Z" fill="#EDDA82"/>
<path d="M145.159 652.885C147.346 654.113 149.528 655.336 151.712 656.57C146.968 657.151 142.154 657.097 137.425 656.409C139.625 654.029 143.188 651.773 145.159 652.885Z" fill="#FFFAD1"/>
<path d="M167.653 653.24C171.031 658.484 174.985 663.364 179.413 667.754C180.266 668.599 181.186 669.891 180.467 670.854C179.947 671.546 178.912 671.507 178.046 671.43C173.419 671.004 168.716 671.39 164.224 672.577C164.717 665.927 165.533 659.303 167.653 653.24Z" fill="#FFFAD1"/>
<path d="M165.942 682.757C164.518 686.064 163.899 689.718 164.154 693.313C163.077 693.139 162.116 692.554 161.185 691.97C156.712 689.163 152.348 686.165 148.12 682.995C153.93 681.945 159.901 681.826 165.942 682.757Z" fill="#FFFAD1"/>
<path d="M164.022 616.926C164.298 615.695 164.727 614.457 165.56 613.503C166.386 612.545 167.677 611.915 168.916 612.149C169.802 612.315 170.571 612.893 171.138 613.592C171.705 614.29 172.098 615.117 172.491 615.928C173.063 617.131 173.643 618.331 174.214 619.533C174.285 619.684 174.359 619.843 174.341 620.013C174.323 620.183 174.208 620.33 174.08 620.445C173.367 621.106 172.271 621.118 171.313 620.927C169.764 620.619 168.328 619.889 166.925 619.171C166.343 618.871 165.737 618.558 165.356 618.028C164.994 617.533 164.716 616.795 164.022 616.926Z" fill="#516D85"/>
<path d="M161.269 611.7C159.432 613.856 157.489 615.911 155.435 617.856C168.983 627.953 184.154 635.624 199.244 643.242C199.897 640.602 200.556 637.966 201.213 635.321C201.285 635.041 201.351 634.733 201.233 634.47C201.121 634.226 200.875 634.079 200.644 633.948C187.568 626.455 174.409 619.135 161.269 611.7Z" fill="#5E88AB"/>
<path d="M152.721 616.243L201.456 644.247L200.796 649.548L148.385 620.012L152.721 616.243Z" fill="#516D85"/>
<path d="M1185.73 655.082L1144.01 639.907L1124.82 692.654L1166.54 707.829L1185.73 655.082Z" fill="#BFBFBF"/>
<path d="M1185.14 652.344C1182.96 651.652 1181.17 650.05 1179.88 648.165C1178.6 646.28 1177.78 644.117 1177.08 641.946C1176.02 638.666 1175.21 635.309 1174.65 631.906C1174.2 629.156 1173.91 626.376 1173.36 623.65C1172.99 621.865 1172.41 619.949 1170.91 618.91C1169.73 618.094 1168.21 617.988 1166.78 617.989C1165.43 617.991 1164.05 618.073 1162.81 618.603C1161.66 619.099 1160.7 619.97 1159.92 620.961C1156.76 624.99 1156.84 630.917 1159.14 635.488C1161.43 640.06 1165.61 643.443 1170.07 645.939C1174.54 648.435 1179.38 650.182 1183.99 652.405C1184.4 652.612 1185.03 652.738 1185.14 652.344Z" fill="#BFBFBF"/>
<path d="M1179.57 672.006L1137.83 656.898L1179.57 672.006ZM1180.06 670.667L1138.31 655.559C1137.58 655.291 1136.76 655.675 1136.49 656.411C1136.22 657.148 1136.6 657.969 1137.34 658.237L1179.08 673.345C1179.82 673.613 1180.64 673.229 1180.91 672.493C1181.18 671.757 1180.79 670.935 1180.06 670.667Z" fill="#6B6B6B"/>
<path d="M1173.85 687.738L1132.1 672.63L1173.85 687.738ZM1174.34 686.399L1132.59 671.291C1131.86 671.024 1131.03 671.407 1130.77 672.143C1130.5 672.88 1130.88 673.701 1131.62 673.969L1173.36 689.077C1174.1 689.345 1174.92 688.962 1175.19 688.225C1175.46 687.489 1175.07 686.667 1174.34 686.399Z" fill="#6B6B6B"/>
<path d="M1186.15 653.93L1144.4 638.823L1186.15 653.93ZM1186.63 652.591L1144.89 637.484C1144.15 637.216 1143.33 637.599 1143.06 638.336C1142.79 639.072 1143.18 639.894 1143.91 640.161L1185.66 655.269C1186.4 655.537 1187.22 655.154 1187.49 654.417C1187.75 653.681 1187.37 652.859 1186.63 652.591Z" fill="#6B6B6B"/>
<path d="M1166.54 707.822L1124.8 692.714L1166.54 707.822ZM1167.03 706.483L1125.29 691.375C1124.55 691.107 1123.73 691.491 1123.46 692.227C1123.19 692.964 1123.58 693.785 1124.31 694.053L1166.06 709.161C1166.79 709.429 1167.62 709.045 1167.88 708.309C1168.15 707.573 1167.77 706.751 1167.03 706.483Z" fill="#6B6B6B"/>
<path d="M1175.37 683.554L1133.63 668.447L1175.37 683.554ZM1175.86 682.216L1134.11 667.108C1133.38 666.84 1132.56 667.223 1132.29 667.96C1132.02 668.696 1132.4 669.518 1133.14 669.785L1174.88 684.893C1175.62 685.161 1176.44 684.778 1176.71 684.041C1176.98 683.305 1176.59 682.483 1175.86 682.216Z" fill="#6B6B6B"/>
<path d="M1176.77 679.705L1135.03 664.597L1176.77 679.705ZM1177.26 678.366L1135.51 663.258C1134.78 662.99 1133.96 663.374 1133.69 664.11C1133.42 664.846 1133.8 665.668 1134.54 665.936L1176.28 681.044C1177.02 681.312 1177.84 680.928 1178.11 680.192C1178.38 679.455 1178 678.634 1177.26 678.366Z" fill="#6B6B6B"/>
<path d="M1178.17 675.855L1136.43 660.748L1178.17 675.855ZM1178.66 674.517L1136.91 659.409C1136.18 659.141 1135.36 659.524 1135.09 660.261C1134.82 660.997 1135.2 661.819 1135.94 662.087L1177.68 677.194C1178.42 677.462 1179.24 677.079 1179.51 676.342C1179.78 675.606 1179.4 674.784 1178.66 674.517Z" fill="#6B6B6B"/>
<path d="M438.374 698.243C435.356 698.639 432.402 696.78 430.635 694.311C428.865 691.834 428.058 688.825 427.309 685.88C424.614 675.26 422.262 664.554 420.254 653.776C419.371 649.018 418.551 644.203 418.786 639.367C419.215 630.559 423.105 622.261 424.182 613.502C424.981 606.968 424.292 599.917 428.155 594.416C428.431 592.776 428.715 591.134 428.991 589.494C429.617 590.641 430.244 591.789 430.871 592.936C431.138 590.773 431.407 588.617 431.674 586.454C432.736 591.351 434.34 596.132 436.449 600.675C436.492 599.072 436.537 597.476 436.58 595.873C437.462 597.53 438.343 599.178 439.225 600.835C439.028 598.787 438.831 596.74 438.631 594.684C440.018 597.628 441.811 600.393 443.931 602.858C443.672 600.135 443.412 597.404 443.153 594.682C444.739 597.072 446.335 599.468 447.921 601.859C447.744 598.445 447.577 595.038 447.4 591.625C449.419 596.111 451.447 600.605 453.466 605.091C454.169 606.643 454.876 608.211 455.902 609.559C456.891 610.856 458.142 611.91 459.323 613.033C470.291 623.481 474.42 639.006 478.075 653.711C479.683 660.188 481.298 666.654 482.685 673.182C483.393 676.507 484.039 679.976 483.253 683.285C482.467 686.593 479.855 689.72 476.464 689.995" fill="#4E8F3C"/>
<path d="M517.9 651.178C525.518 652.347 531.743 657.706 538.816 660.767C543.277 662.7 548.086 663.716 552.939 664.551C550.206 669.015 549.09 674.442 549.822 679.622C532.572 671.771 512.91 670.748 494.081 672.841C498.119 672.089 502.041 670.718 505.669 668.786C504.018 667.307 502.016 666.21 499.879 665.61C501.915 665.475 503.949 665.332 505.986 665.198C501.124 663.952 496.575 661.488 492.892 658.075C496.07 658.556 499.305 658.687 502.507 658.455C500.741 656.365 498.528 654.654 496.059 653.476C498.183 653.235 500.336 653.306 502.443 653.664C499.09 652.241 496.004 650.215 493.365 647.706C500.668 651.016 508.337 653.525 516.185 655.167C515.43 654.324 514.676 653.482 513.921 652.64C515.657 653.066 517.4 653.49 519.135 653.917C518.658 653.269 518.177 652.605 517.9 651.178Z" fill="#4E8F3C"/>
<path d="M418.376 650.084C428.249 649.862 438.182 649.643 447.852 647.65C457.524 645.666 467.018 641.793 474.274 635.095C476.384 643.781 478.488 652.478 480.6 661.173C481.178 663.564 481.749 666.111 480.922 668.421C479.833 671.463 476.663 673.178 473.692 674.45C460.042 680.282 444.875 682.494 430.128 680.818C428.827 680.67 427.443 680.456 426.457 679.581C425.527 678.762 425.126 677.511 424.783 676.324C422.265 667.775 420.239 659.077 418.376 650.084Z" fill="#F0D586"/>
<path d="M553.458 664.19C552.6 664.724 552.094 665.668 551.695 666.587C550.463 669.421 549.881 672.493 549.591 675.567C549.447 677.03 549.383 678.578 550.057 679.895C550.722 681.206 552.367 682.136 553.699 681.526C554.448 681.19 554.935 680.465 555.339 679.752C557.148 676.508 557.813 672.634 557.182 668.972C556.996 667.904 556.697 666.836 556.072 665.955C555.446 665.074 554.438 664.403 553.458 664.19Z" fill="#9CC295"/>
<path d="M943.046 639.35C943.315 640.349 944.512 640.656 945.462 640.329C946.412 640.002 947.201 639.232 948.037 638.603C951.258 636.193 955.365 635.84 958.964 636.717C962.561 637.599 965.762 639.579 968.914 641.541C973.403 644.337 977.894 647.128 982.378 649.922C984.096 650.993 985.858 652.1 987.056 653.813C988.254 655.526 988.774 658.006 987.805 660.064C987.452 660.818 986.921 661.473 986.604 662.241C986.287 663.009 986.232 663.991 986.771 664.512C986.992 664.727 987.285 664.837 987.575 664.927C992.116 666.39 997.503 665.11 1001.42 661.632C1002.41 660.755 1003.34 659.726 1004.52 659.218C1005.47 658.801 1006.5 658.774 1007.5 658.808C1010.87 658.924 1014.3 659.777 1016.73 662.138C1019.16 664.499 1020.32 668.625 1018.8 672.065C1017.74 674.461 1015.55 676.296 1014.96 678.841C1014.4 681.261 1015.42 683.794 1014.62 686.158C1014.04 687.878 1012.56 689.16 1010.99 689.806C1009.42 690.45 1007.74 690.551 1006.11 690.58C1001.33 690.676 996.583 690.269 991.955 689.367C991.34 689.248 990.72 689.116 990.189 688.796C987.662 687.284 988.342 682.697 986.183 680.641C985.261 679.766 983.964 679.501 982.712 679.36C980.635 679.121 978.52 679.137 976.41 679.405C974.954 679.585 973.47 679.89 972.063 679.617C968.061 678.844 966.18 673.922 962.625 671.948C962.197 671.71 961.721 671.512 961.227 671.574C959.747 671.763 959.187 673.819 958.292 675.176C957.271 676.724 955.494 677.537 953.81 677.64C952.126 677.743 950.511 677.237 948.967 676.642C945.236 675.206 941.629 673.141 939.187 669.819C936.745 666.497 935.647 661.725 937.172 657.475C937.792 655.753 938.819 654.137 939.048 652.331C939.275 650.53 938.199 648.439 936.54 648.295C939.523 646.187 941.882 642.931 943.046 639.35Z" fill="#9DD1F3"/>
<path d="M934.076 648.937C934.607 649.268 935.31 649.217 935.919 648.955C936.529 648.693 937.059 648.236 937.561 647.762C940.111 645.362 942.16 642.316 943.481 638.979C943.66 638.524 943.829 638.041 943.799 637.563C943.757 636.922 943.358 636.41 942.961 635.962C941.867 634.733 940.624 633.661 939.276 632.764C938.768 632.425 938.211 632.107 937.596 632.133C936.954 632.162 936.349 632.56 935.81 632.984C932.932 635.244 930.871 638.559 929.181 641.938C928.946 642.406 928.716 642.887 928.649 643.398C928.483 644.663 929.346 645.702 930.228 646.445C931.507 647.531 933.007 648.278 934.076 648.937Z" fill="#707070"/>
<path d="M101.457 550.354C101.996 552.239 100.795 554.246 100.272 556.101C98.6266 561.944 94.8763 567.191 89.7585 570.81C92.073 571.556 94.4253 572.19 96.8081 572.694C98.0562 574.272 99.3285 575.893 99.9177 577.759C100.687 580.208 100.198 582.814 99.4216 585.215C97.7811 590.291 94.8918 594.973 91.0251 598.808C90.6767 599.152 90.3176 599.494 89.8749 599.731C89.008 600.2 87.9378 600.206 86.9171 600.171C79.4646 599.924 72.0206 598.073 65.3249 594.81C64.6054 594.462 63.8726 594.073 63.3907 593.465C63.0175 592.998 62.8269 592.432 62.6435 591.883C61.8762 589.592 61.1014 587.236 61.2832 584.873C61.3617 583.866 61.6149 582.888 61.8734 581.913C62.6479 578.99 63.4816 576.082 64.3626 573.19C64.735 571.972 64.6892 570.382 65.7774 569.65C68.0939 568.096 67.587 567.377 68.6417 566.352C69.9454 565.091 71.2503 563.825 72.554 562.564C72.8703 562.26 73.1978 561.932 73.2696 561.506C73.3654 560.955 72.9914 560.42 72.6367 559.947C70.7734 557.481 68.9423 555.023 66.9998 552.507C76.0264 550.636 85.2167 549.035 94.5379 549.507C96.5646 549.617 99.5237 549.799 101.457 550.354Z" fill="#C9C9C9"/>
<path d="M68.9246 555.002C71.2102 555.726 73.1051 557.262 74.9347 558.762C77.1159 560.555 79.2982 562.343 81.412 564.205C82.6319 565.277 84.8432 566.556 85.3716 568.028C81.7274 566.653 77.2081 564.913 73.7969 563.056C73.5344 562.916 73.2678 562.768 73.0476 562.569C72.7901 562.335 72.6095 562.04 72.4344 561.746C71.0559 559.442 69.7169 557.116 68.9246 555.002Z" fill="#9E9E9E"/>
<path d="M91.9171 571.472C94.4512 572.275 93.9543 571.826 96.4896 572.624C96.8069 572.725 96.71 572.581 96.9185 572.83C97.1101 573.054 98.3331 574.764 98.5247 574.988C100.558 577.409 100.712 580.156 100.128 582.223C100.028 582.574 100.155 583.024 99.838 583.234C99.5553 583.42 99.1609 583.332 98.8275 583.227C94.1023 581.734 90.5714 577.612 85.7431 576.484C86.8277 575.887 87.751 575.058 88.4382 574.072C89.0054 573.259 90.1262 571.713 91.0553 571.269C91.2212 571.192 92.1628 571.467 91.9171 571.472Z" fill="#EBEBEB"/>
<path d="M85.3677 568.022C79.2809 569.145 71.6215 570.065 65.3746 570.033C67.8832 567.762 69.4463 564.847 72.8308 562.429C72.9339 562.353 73.031 562.255 73.1643 562.245C73.2737 562.239 73.3755 562.289 73.4785 562.334C76.2948 563.725 79.1111 565.115 81.9274 566.506C82.6445 566.864 84.8598 567.645 85.3677 568.022Z" fill="#EBEBEB"/>
<path d="M99.6952 557.896C98.9047 559.657 98.8956 561.697 97.9506 563.39C97.4769 564.241 96.7892 564.963 96.1051 565.67C92.5976 569.332 89.8858 573.84 85.5894 576.653C86.136 574.913 87.4403 573.505 88.6759 572.123C92.6959 567.614 96.3087 562.782 99.6952 557.896Z" fill="#B0B0B0"/>
<path d="M61.2957 586.365C68.2999 590.659 77.1087 593.063 85.2561 594.558C87.251 594.923 89.2714 595.252 91.294 595.234C92.5818 595.222 93.9268 595.039 94.9422 594.326C93.8489 596.021 92.7545 597.721 91.6612 599.415C91.4561 599.73 91.2422 600.059 90.919 600.272C90.461 600.574 89.8579 600.6 89.2929 600.609C87.9639 600.628 86.6339 600.577 85.304 600.527C82.4582 600.419 79.5844 600.309 76.8228 599.579C75.014 599.1 73.288 598.367 71.5727 597.636C68.9686 596.527 66.3645 595.418 63.7604 594.309C63.4663 594.182 63.1615 594.052 62.9692 593.807C62.7811 593.568 62.7285 593.261 62.6884 592.972C62.3464 590.734 61.4054 588.238 61.2957 586.365Z" fill="#A3A3A3"/>
<path d="M70.1174 545.869C69.1037 547.877 68.0602 550.373 67.0519 552.382C66.944 552.599 67.3466 552.82 67.4342 553.051C67.5104 553.259 67.8447 553.432 68.0503 553.549C69.9182 554.621 71.0118 555.385 73.1566 555.717C82.6594 557.179 92.5426 555.725 100.909 551.641C101.236 551.481 101.592 551.275 101.654 550.938C101.704 550.655 101.536 550.378 101.373 550.129C100.327 548.535 99.6514 546.629 98.6058 545.035C97.208 547.273 94.3742 549.115 91.6993 549.874C89.0244 550.633 86.156 550.693 83.3391 550.487C78.5905 550.13 74.3374 548.274 70.1174 545.869Z" fill="#D6D6D6"/>
<path d="M93.3406 542.12C87.2436 540.682 80.7945 540.761 74.8452 542.337C73.8437 542.606 72.8435 542.917 71.9618 543.425C71.0802 543.933 70.3178 544.658 69.9501 545.566C69.8412 545.835 69.7683 546.144 69.8854 546.419C70.0037 546.689 70.2795 546.87 70.5438 547.027C73.4235 548.727 76.7153 549.74 80.0451 550.231C83.3749 550.722 86.7553 550.708 90.0936 550.464C91.0828 550.392 92.0767 550.3 93.0324 550.057C94.9914 549.561 96.7297 548.434 97.8978 546.905C98.4414 546.191 98.8675 545.228 98.4075 544.43C98.1058 543.901 97.4959 543.594 96.912 543.346C95.8333 542.881 94.7042 542.51 93.3406 542.12Z" fill="#A8A8A8"/>
<path d="M90.406 545.69C87.4378 545.185 84.3843 545.186 81.4532 545.705C80.5217 545.87 79.5815 546.095 78.8273 546.618C78.5686 546.799 78.3137 547.06 78.3675 547.362C78.4281 547.708 78.8391 547.894 79.2018 547.995C80.6031 548.394 82.0765 548.463 83.5296 548.521C85.6962 548.616 87.9159 548.703 89.9666 548.108C90.3453 547.997 90.7475 547.834 90.9064 547.498C91.0202 547.256 90.9833 546.979 90.9147 546.716C90.7828 546.19 90.4044 545.601 90.406 545.69Z" fill="#545454"/>
<path d="M86.0175 538.65C85.0437 538.536 84.0459 538.427 83.1009 538.626C82.1546 538.829 81.2553 539.411 80.9934 540.281C80.7798 540.994 81.0089 541.758 81.0328 542.501C81.06 543.47 80.7237 544.438 80.9308 545.392C80.9747 545.592 81.0412 545.792 81.1776 545.961C81.3362 546.156 81.5783 546.287 81.8179 546.38C82.6215 546.686 83.5158 546.655 84.3626 546.56C85.4372 546.439 86.652 546.11 87.0428 545.176C87.4111 544.289 86.8522 543.284 86.8465 542.319C86.8433 541.803 86.9967 541.297 87.0992 540.789C87.1965 540.281 87.2392 539.738 87.0124 539.253C86.7856 538.768 86.2161 538.387 86.0175 538.65Z" stroke="#D6D6D6" stroke-width="3" stroke-miterlimit="10"/>
<path d="M81.1073 542.598C82.8947 543.577 85.2778 543.428 86.8342 542.253" stroke="#D6D6D6" stroke-width="3" stroke-miterlimit="10"/>
<path d="M822.534 674.355C822.534 674.355 823.397 671.831 826.844 673.956C830.095 675.96 828.462 677.587 828.462 677.587" fill="#5E5E5E"/>
<path d="M815.782 699.633C815.782 699.633 814.898 702.352 811.369 700.061C808.04 697.9 809.712 696.15 809.712 696.15" fill="#5E5E5E"/>
<path d="M822.619 673.307L809.296 696.044C809.296 696.044 811.535 699.862 816.072 700.191L829.229 677.309C829.226 677.309 827.246 673.98 822.619 673.307Z" fill="#7A7A7A"/>
<path d="M822.649 673.307L819.042 679.344C819.042 679.344 822.857 679.467 825.697 683.268L829.229 677.246C829.226 677.246 827.388 674.273 822.649 673.307Z" fill="#F7E468"/>
<path d="M824.055 675.987C824.94 676.277 825.872 676.597 826.467 677.315C826.497 677.352 826.527 677.388 826.572 677.4C826.618 677.412 826.672 677.376 826.666 677.333" fill="#F7E468"/>
<path d="M825.963 675.357C825.57 676.187 825.181 677.02 824.789 677.85Z" fill="#F7E468"/>
<path d="M826.023 675.568C825.601 676.226 825.202 676.902 824.834 677.59Z" fill="white"/>
<path d="M826.023 675.568C825.601 676.226 825.202 676.902 824.834 677.59" stroke="black" stroke-width="2" stroke-miterlimit="10"/>
<path d="M824.342 676.009C825.212 676.048 826.054 676.504 826.555 677.213" stroke="black" stroke-width="2" stroke-miterlimit="10"/>
<path d="M812.541 695.775C813.232 696.554 814.195 697.088 815.221 697.26" stroke="#F7E468" stroke-width="2" stroke-miterlimit="10"/>
<path d="M822.266 695.036C822.266 695.036 819.646 695.465 821.234 699.069C822.731 702.467 824.578 701.166 824.578 701.166" fill="#5E5E5E"/>
<path d="M848.244 692.534C848.244 692.534 851.061 692.114 849.325 688.408C847.686 684.913 845.706 686.229 845.706 686.229" fill="#5E5E5E"/>
<path d="M821.219 694.955L845.664 685.815C845.664 685.815 849.105 688.535 848.755 692.893L824.192 701.851C824.192 701.851 821.198 699.458 821.219 694.955Z" fill="#7A7A7A"/>
<path d="M821.216 694.985L827.714 692.492C827.714 692.492 827.271 696.135 830.603 699.422L824.128 701.845C824.125 701.842 821.463 699.636 821.216 694.985Z" fill="#F7E468"/>
<path d="M823.655 696.738C823.809 697.623 823.987 698.558 824.609 699.234C824.639 699.268 824.672 699.304 824.675 699.346C824.678 699.388 824.639 699.44 824.593 699.425" fill="#F7E468"/>
<path d="M822.746 698.45C823.624 698.208 824.506 697.964 825.384 697.722Z" fill="#F7E468"/>
<path d="M822.945 698.54C823.658 698.238 824.385 697.967 825.121 697.725Z" fill="white"/>
<path d="M822.945 698.54C823.658 698.238 824.385 697.967 825.121 697.725" stroke="black" stroke-width="2" stroke-miterlimit="10"/>
<path d="M823.631 697.01C823.54 697.84 823.866 698.712 824.491 699.298" stroke="black" stroke-width="2" stroke-miterlimit="10"/>
<path d="M844.916 688.858C845.583 689.633 845.966 690.632 845.984 691.635" stroke="#F7E468" stroke-width="2" stroke-miterlimit="10"/>
<path d="M1421.09 606.878C1421.09 606.878 1423.1 608.627 1419.83 611.021C1416.75 613.279 1415.86 611.154 1415.86 611.154" fill="#5E5E5E"/>
<path d="M1400.21 591.111C1400.21 591.111 1398.02 589.268 1401.47 586.861C1404.73 584.59 1405.72 586.798 1405.72 586.798" fill="#5E5E5E"/>
<path d="M1422.03 607.35L1405.97 586.451C1405.97 586.451 1401.59 587.09 1399.58 591.169L1415.83 611.969C1415.83 611.966 1419.66 611.384 1422.03 607.35Z" fill="#7A7A7A"/>
<path d="M1422.01 607.378L1417.78 601.765C1417.78 601.765 1416.23 605.253 1411.64 606.455L1415.89 611.992C1415.89 611.99 1419.34 611.405 1422.01 607.378Z" fill="#F7E468"/>
<path d="M1419 607.673C1418.4 608.383 1417.75 609.127 1416.86 609.407C1416.82 609.422 1416.77 609.436 1416.75 609.473C1416.72 609.511 1416.73 609.575 1416.77 609.585" fill="#F7E468"/>
<path d="M1418.87 609.677C1418.25 609.002 1417.62 608.327 1417 607.652Z" fill="#F7E468"/>
<path d="M1418.65 609.654C1418.2 609.015 1417.72 608.391 1417.22 607.791Z" fill="white"/>
<path d="M1418.65 609.654C1418.2 609.015 1417.72 608.391 1417.22 607.791" stroke="black" stroke-width="2" stroke-miterlimit="10"/>
<path d="M1418.87 607.931C1418.51 608.721 1417.77 609.33 1416.93 609.527" stroke="black" stroke-width="2" stroke-miterlimit="10"/>
<path d="M1405 589.559C1404.02 589.906 1403.16 590.597 1402.62 591.483" stroke="#F7E468" stroke-width="2" stroke-miterlimit="10"/>
<path d="M1402.03 598.847C1402.03 598.847 1402.62 596.259 1398.68 596.374C1394.97 596.482 1395.48 598.683 1395.48 598.683" fill="#5E5E5E"/>
<path d="M1394.57 623.858C1394.57 623.858 1393.9 626.625 1397.99 626.412C1401.84 626.208 1401.37 623.879 1401.37 623.879" fill="#5E5E5E"/>
<path d="M1402.5 597.908L1401.77 623.995C1401.77 623.995 1397.95 626.16 1394.05 624.196L1394.99 598.067C1394.99 598.067 1398.33 596.194 1402.5 597.908Z" fill="#7A7A7A"/>
<path d="M1402.47 597.894L1402.33 604.853C1402.33 604.853 1399.13 603.071 1394.83 604.921L1395.02 598.011C1395.02 598.009 1398.07 596.373 1402.47 597.894Z" fill="#F7E468"/>
<path d="M1399.93 599.493C1399.05 599.303 1398.12 599.116 1397.26 599.438C1397.21 599.453 1397.17 599.47 1397.13 599.457C1397.09 599.444 1397.05 599.389 1397.08 599.352" fill="#F7E468"/>
<path d="M1398.68 598.008C1398.58 598.912 1398.47 599.821 1398.36 600.726Z" fill="#F7E468"/>
<path d="M1398.52 598.158C1398.54 598.932 1398.51 599.708 1398.46 600.481Z" fill="white"/>
<path d="M1398.52 598.158C1398.54 598.932 1398.51 599.708 1398.46 600.481" stroke="black" stroke-width="2" stroke-miterlimit="10"/>
<path d="M1399.68 599.369C1398.95 598.973 1398.02 598.947 1397.24 599.305" stroke="black" stroke-width="2" stroke-miterlimit="10"/>
<path d="M1399.23 622.157C1398.26 622.483 1397.19 622.463 1396.25 622.102" stroke="#F7E468" stroke-width="2" stroke-miterlimit="10"/>
<path d="M675.478 672.097C677.834 670.079 680.333 668.23 682.952 666.559C683.682 666.092 684.461 665.595 684.775 664.773C684.962 664.273 684.958 663.71 684.927 663.161C684.798 660.622 684.323 658.082 683.523 655.638C683.319 655.02 683.073 654.369 682.576 653.945C682.297 653.709 681.966 653.558 681.637 653.418C679.917 652.665 678.181 651.949 676.432 651.271C675.939 651.083 675.42 650.891 674.916 650.974C674.532 651.037 674.202 651.248 673.878 651.459C671.072 653.304 668.349 655.285 665.892 657.576C665.799 657.663 665.461 657.453 665.433 657.579C665.396 657.758 665.831 658.344 665.943 658.495C669.147 663.014 672.474 667.453 675.478 672.097Z" fill="#C9C9C9"/>
<path d="M674.053 670.554C674.725 671.647 674.527 673.124 673.883 674.279C673.235 675.436 672.202 676.338 671.169 677.181C669.225 678.77 667.164 680.277 665.653 682.269C663.233 685.453 662.377 689.669 659.506 692.466C658.23 693.711 656.629 694.585 654.956 695.18C651.97 696.243 648.704 696.429 645.691 695.711C644.123 695.335 642.632 694.728 641.149 694.121C640.45 693.835 639.717 693.528 639.267 692.93C638.816 692.331 638.771 691.362 639.381 690.874C640.919 691.422 642.464 691.972 644.003 692.521C642.955 690.791 641.147 689.691 639.401 688.649C640.424 688.7 641.449 688.755 642.472 688.806C642.044 688.418 641.616 688.03 641.188 687.642C642.808 687.909 644.413 688.245 645.999 688.653C646.631 688.341 647.357 688.222 648.042 688.326C647.371 687.774 646.62 687.311 645.816 686.958C646.366 686.83 646.911 686.705 647.46 686.577C645.088 685.265 642.412 684.477 639.666 684.283C639.477 684.085 639.287 683.888 639.098 683.69C639.843 683.662 640.588 683.633 641.333 683.605C640.881 683.398 640.509 683.027 640.299 682.582C642.164 682.702 643.833 680.792 645.675 681.062C645.145 680.733 644.608 680.403 644.078 680.073C644.364 679.837 644.705 679.666 645.059 679.578C643.081 678.878 640.944 678.587 638.812 678.73C638.882 678.561 638.956 678.39 639.025 678.222C638.714 678.074 638.34 678.06 638.007 678.185C638.973 677.497 639.939 676.808 640.905 676.12C640.714 676.052 640.525 675.977 640.334 675.908C641.184 675.056 642.034 674.203 642.88 673.353C641.838 673.194 640.717 673.461 639.837 674.085C638.732 674.865 637.87 676.216 636.535 676.293C636.634 675.525 636.901 674.773 637.319 674.107C636.695 674.208 636.078 674.311 635.454 674.412C637.419 670.084 641.688 666.786 646.376 665.97C647.958 665.693 649.577 665.68 651.124 665.225C653.407 664.55 655.31 662.98 657.269 661.606C659.228 660.233 661.474 658.985 663.821 659.125C664.581 659.174 665.338 659.375 665.952 659.8C666.476 660.163 666.87 660.669 667.259 661.168C669.635 664.237 672.049 667.29 674.053 670.554Z" fill="#F2FCFF"/>
<path d="M675.913 671.839L665.423 657.557" stroke="#A3A3A3" stroke-width="4" stroke-miterlimit="10" stroke-linecap="round" stroke-linejoin="round"/>
<path d="M679.733 669.002L669.243 654.72" stroke="#A3A3A3" stroke-width="4" stroke-miterlimit="10" stroke-linecap="round" stroke-linejoin="round"/>
<path d="M683.553 666.165L673.063 651.883" stroke="#A3A3A3" stroke-width="4" stroke-miterlimit="10" stroke-linecap="round" stroke-linejoin="round"/>
</g>
<defs>
<linearGradient id="paint0_linear_334_282" x1="720" y1="-3639.31" x2="720" y2="695.754" gradientUnits="userSpaceOnUse">
<stop stop-color="#E3FAFF"/>
<stop offset="1" stop-color="#86D0EB"/>
</linearGradient>
<clipPath id="clip0_334_282">
<rect width="1440" height="5493" fill="white" transform="translate(0 -4448)"/>
</clipPath>
<clipPath id="clip1_334_282">
<rect width="1440" height="4420.59" fill="white" transform="translate(0 -3694)"/>
</clipPath>
</defs>
</svg>
