<svg width="1440" height="727" viewBox="0 0 1440 727" fill="none" xmlns="http://www.w3.org/2000/svg">
<rect width="1440" height="727" fill="#E5E5E5"/>
<g clip-path="url(#clip0_0_1)">
<path d="M1440.5 -3694C1460.5 -3185 1272 -3060.5 1272 -3060.5C1272 -3060.5 1199.21 -2971.5 1050.5 -2971.5C242.5 -2971.5 158 -2912.5 158 -2746C158 -2570.67 418 -2574 503.5 -2574C589 -2574 1219.94 -2581.39 1258 -2456C1303.5 -2306.1 1004 -2243.6 644.5 -2270.1C261.142 -2298.36 201.5 -2201.6 206.5 -2150.1C211.5 -2098.6 322 -2010.1 738.5 -2113.6C1155 -2217.1 1251 -2103.6 1253.5 -2044.1C1256 -1984.6 1146.5 -1830 738.5 -1954C330.5 -2078 186 -1952 206.5 -1884.5C227 -1817 348 -1774 606.5 -1846.5C865 -1919 1175.28 -1914.1 1239.78 -1818.6C1304.28 -1723.1 1143.5 -1633.1 860.5 -1715.1C853 -1717.27 808.053 -1722.43 773.5 -1726.6C768.981 -1727.14 765.253 -1731.32 761.563 -1735.62L748.5 -1745.48V-1759.57C757.979 -1759.4 761.438 -1750.66 765.213 -1743.88L773.5 -1736.1C890.5 -1726.6 1092.42 -1649.27 1207.5 -1730.1C1291.5 -1789.1 1203 -1834.1 1182.5 -1846.5C1143.17 -1866.33 943.4 -1910.1 673 -1846.5C335 -1767 299 -1762 206.5 -1858C114 -1954 343.5 -2034 487.5 -2014L495.537 -2012.88C632.706 -1993.84 619.456 -2001.83 851 -1938.1C1087 -1873.14 1261.24 -1980.08 1234 -2054.1C1228.5 -2117.6 1057 -2184.1 718.5 -2095.6C561.167 -2062.1 241.4 -2009.4 203 -2118.6C155 -2255.1 332 -2304.1 503.5 -2295.6C675 -2287.1 984.202 -2261.58 1143.5 -2335.1C1299.5 -2407.1 1268.19 -2484.05 1090 -2521.5C864.5 -2568.9 876.5 -2530.76 550 -2544.5C421.5 -2549.91 179.881 -2553 142.281 -2671C95.2809 -2818.5 133 -2941 452 -2971.5C771 -3002 1061 -2949 1195 -3049C1372.88 -3181.75 1406.11 -3431.5 1206 -3567C974.623 -3723.67 69 -3488.1 -12 -3688.1L1440.5 -3694Z" fill="#48A4BD"/>
<path d="M584 66.4014C1170.89 83.4224 1317.5 -29.0986 1344 -332.099C1370.66 -636.935 1351.92 -667.451 1296.5 -807.099C1284 -838.599 1272 -855.099 1266.5 -861.599H958.5C959.522 -835.099 1075.5 -807.099 1189 -698.099C1268 -579.599 1311.5 -513.532 1311.5 -345.099C1311.5 -24.0986 1108.51 -6.1438 997.5 24.4014C886.494 54.9465 648.967 53.9014 471.5 53.9014C333.5 53.9014 244.483 111.401 215.5 166.901C178.945 236.901 229.572 292.081 298.5 317.401C347.5 335.401 421.667 346.235 451.5 341.901V333.401H431C130.5 317.401 153 53.9014 584 66.4014Z" fill="#48A4BD"/>
<path d="M773.5 -1736.1C890.5 -1726.6 1092.42 -1649.27 1207.5 -1730.1C1291.5 -1789.1 1203 -1834.1 1182.5 -1846.5C1143.17 -1866.33 943.4 -1910.1 673 -1846.5C335 -1767 299 -1762 206.5 -1858C114 -1954 343.5 -2034 487.5 -2014M773.5 -1736.1C763.423 -1737.41 763.558 -1759.29 748.5 -1759.57M773.5 -1736.1L748.5 -1759.57M487.5 -2014L495.537 -2012.88M487.5 -2014C490.219 -2013.62 492.897 -2013.25 495.537 -2012.88M1234 -2054.1C1261.24 -1980.08 1087 -1873.14 851 -1938.1C619.456 -2001.83 632.706 -1993.84 495.537 -2012.88M1234 -2054.1C1228.5 -2117.6 1057 -2184.1 718.5 -2095.6C561.167 -2062.1 241.4 -2009.4 203 -2118.6C155 -2255.1 332 -2304.1 503.5 -2295.6C675 -2287.1 984.202 -2261.58 1143.5 -2335.1C1299.5 -2407.1 1268.19 -2484.05 1090 -2521.5C864.5 -2568.9 876.5 -2530.76 550 -2544.5C421.5 -2549.91 179.881 -2553 142.281 -2671C95.2809 -2818.5 133 -2941 452 -2971.5C771 -3002 1061 -2949 1195 -3049C1372.88 -3181.75 1406.11 -3431.5 1206 -3567C974.623 -3723.67 69 -3488.1 -12 -3688.1L1440.5 -3694C1460.5 -3185 1272 -3060.5 1272 -3060.5C1272 -3060.5 1199.21 -2971.5 1050.5 -2971.5C242.5 -2971.5 158 -2912.5 158 -2746C158 -2570.67 418 -2574 503.5 -2574C589 -2574 1219.94 -2581.39 1258 -2456C1303.5 -2306.1 1004 -2243.6 644.5 -2270.1C261.142 -2298.36 201.5 -2201.6 206.5 -2150.1C211.5 -2098.6 322 -2010.1 738.5 -2113.6C1155 -2217.1 1251 -2103.6 1253.5 -2044.1C1256 -1984.6 1146.5 -1830 738.5 -1954C330.5 -2078 186 -1952 206.5 -1884.5C227 -1817 348 -1774 606.5 -1846.5C865 -1919 1175.28 -1914.1 1239.78 -1818.6C1304.28 -1723.1 1143.5 -1633.1 860.5 -1715.1C853 -1717.27 808.053 -1722.43 773.5 -1726.6M1234 -2054.1C1226.08 -2091.6 1234.05 -2054.05 1234 -2054.1ZM748.5 -1759.57V-1745.48M748.5 -1745.48C757.996 -1744.95 764.002 -1727.74 773.5 -1726.6M748.5 -1745.48L773.5 -1726.6M1344 -332.099C1317.5 -29.0988 1170.89 83.4224 584 66.4014C153 53.9014 130.5 317.401 431 333.401H451.5V341.901C421.667 346.235 347.5 335.401 298.5 317.401C229.572 292.081 178.945 236.901 215.5 166.901C244.483 111.401 333.5 53.9014 471.5 53.9014C648.967 53.9014 886.494 54.9465 997.5 24.4014C1108.51 -6.1438 1311.5 -24.0988 1311.5 -345.099C1311.5 -513.532 1268 -579.599 1189 -698.099C1075.5 -807.099 959.522 -835.099 958.5 -861.599H1266.5C1272 -855.099 1284 -838.599 1296.5 -807.099C1351.92 -667.451 1370.66 -636.935 1344 -332.099Z" stroke="#48A4BD" stroke-width="3"/>
<path d="M1444.5 -3695.6C1433.3 -3614.62 1415.05 -3485.97 1420.78 -3397.26C1422.94 -3363.83 1423.65 -3314.06 1414.59 -3309.75C1432.72 -3212.06 1432.59 -3071.43 1414.29 -2974.2C1421.75 -2929.32 1420.22 -2865.99 1410.74 -2826.91C1422.05 -2806.69 1427.32 -2755.5 1427.29 -2708.36C1427.26 -2661.22 1423.07 -2615.75 1420.47 -2569.64C1415.97 -2489.99 1416.18 -2407.35 1418.96 -2326.6C1420.43 -2284.01 1420.98 -2229.1 1410.64 -2210.89C1413.5 -2199.8 1416.35 -2188.71 1419.2 -2177.61C1419.43 -2104.22 1413.88 -2030.72 1403.43 -1968.78C1412.93 -1934.78 1414.04 -1880.16 1414.55 -1830.85C1415.06 -1780.93 1415.57 -1730.99 1416.09 -1681.07C1414.25 -1686.79 1418.92 -1683.38 1418.76 -1674.43C1418 -1630.23 1417.24 -1586.03 1416.47 -1541.83C1413.04 -1523.59 1409.61 -1505.34 1406.18 -1487.1C1410.72 -1485.64 1415 -1475.31 1417.24 -1460.38C1411.83 -1445.92 1406.41 -1431.47 1401 -1417.01C1404.57 -1401.94 1408.14 -1386.87 1411.7 -1371.81C1413.69 -1281.73 1415.69 -1191.65 1417.68 -1101.57C1418.61 -1059.44 1418.36 -1008.09 1408.71 -986.508C1412.9 -997.379 1418.65 -975.895 1417.8 -956.985C1416.94 -938.082 1412.47 -924.978 1408.34 -913.797C1409.39 -897.725 1410.44 -881.662 1411.42 -865.522C1423.1 -672.257 1423.43 -469.384 1412.38 -275.596C1410.94 -250.252 1416.22 -209.403 1420.75 -228.889C1417.74 -218.487 1414.48 -205.815 1414.78 -190.47C1415.09 -175.125 1421.75 -165.799 1423.18 -180.22C1417.18 -165.61 1413.01 -140.779 1412.08 -114.095C1417.82 -110.809 1419.14 -74.5335 1413.84 -65.5629C1417.02 -11.7317 1418.29 43.6819 1417.63 98.7698C1418.25 124.41 1418.88 150.05 1419.5 175.69C1420.15 198.226 1425.63 223.79 1426.28 246.327C1422.47 402.022 1416.53 555.627 1418.13 711.867C1422.92 755.471 1428.48 771.884 1441 770.218" fill="#B59D92"/>
<path d="M-12.0458 716.423C5.95915 634.943 16.1236 519.664 6.90784 430.402C4.11951 403.401 7.68837 346.295 16.7435 322.579C20.0514 313.919 20.6688 299.196 18.1339 288.424C-4.48892 192.282 -2.27281 65.2777 24.6869 -24.9152C24.7948 -25.2785 24.7998 -25.8235 24.6994 -26.2096C13.014 -70.9011 15.3632 -133.434 30.1631 -172.638C30.3539 -173.137 30.2987 -174.061 30.0628 -174.333C12.2436 -195.059 3.93128 -246.041 3.97896 -293.011C4.02916 -340.435 10.7528 -386.194 14.939 -432.589C22.1696 -512.721 21.8358 -595.875 17.3659 -677.12C15.0344 -719.511 14.1459 -774.005 30.1933 -792.922C30.4342 -793.202 30.4844 -794.155 30.2861 -794.64L17.1074 -826.727C17.0296 -826.916 16.9845 -827.197 16.982 -827.5C16.6457 -900.858 25.49 -974.321 42.1221 -1036.33C42.24 -1036.77 42.2124 -1037.42 42.0618 -1037.76C27.0485 -1072.01 25.2742 -1126.61 24.4635 -1175.92C23.6504 -1225.36 22.8397 -1274.82 22.0265 -1324.26C22.009 -1325.38 22.5536 -1325.77 22.6665 -1324.71C22.9552 -1321.96 17.4688 -1325.58 17.6822 -1333.31C18.9094 -1377.66 20.1342 -1422.02 21.3615 -1466.38C21.3665 -1466.6 21.3966 -1466.81 21.4468 -1466.97L37.459 -1520.27C37.6447 -1520.89 37.5142 -1521.88 37.2381 -1521.95C30.3438 -1523.87 23.9114 -1533.68 20.3601 -1547.75C20.2371 -1548.23 20.2898 -1548.94 20.4655 -1549.23L45.829 -1591.61C46.0298 -1591.96 46.0599 -1592.8 45.8867 -1593.25L29.1341 -1637.53C29.0714 -1637.7 29.0312 -1637.93 29.0212 -1638.18L19.429 -1909.69C17.9306 -1952.08 18.3297 -2003.75 33.8475 -2025.46C27.1038 -2014.53 17.8679 -2036.14 19.2382 -2055.17C20.591 -2073.96 27.6258 -2087.07 34.2114 -2098.22C34.3494 -2098.46 34.4121 -2098.95 34.3645 -2099.4C32.698 -2115.32 31.034 -2131.22 29.4905 -2147.2C10.7076 -2341.65 10.173 -2545.77 27.937 -2740.76C30.261 -2766.26 21.7781 -2807.36 14.4823 -2787.75C19.3235 -2798.22 24.5714 -2810.97 24.0795 -2826.41C23.6403 -2840.21 15.0469 -2849.17 11.5835 -2840.58C11.2748 -2839.81 11.6111 -2838.34 11.96 -2838.93C20.7441 -2853.64 26.8352 -2877.06 28.3662 -2902.22C28.4013 -2902.78 28.2683 -2903.31 28.08 -2903.4C19.2533 -2907.43 17.2354 -2942.35 25.3018 -2951.77C25.4649 -2951.96 25.5552 -2952.48 25.5076 -2952.98C20.468 -3006.83 18.4451 -3062.25 19.5068 -3117.34C19.5068 -3117.4 19.5068 -3117.45 19.5042 -3117.51L16.5076 -3194.81L13.3629 -3262.71C13.3579 -3262.79 13.3579 -3262.87 13.3629 -3262.96C19.4792 -3419.47 2.08002 -3533.56 -0.5 -3690.6L-13.5 -3690.15C-21.1547 -3733.84 -12.0347 -3735.92 -25 -3762.6" fill="#B59D92"/>
<path d="M2.75 373.831C-0.5875 410.502 37.66 446.504 66.835 468.621C96.01 490.737 129.955 507.412 153.513 535.538C167.208 551.887 176.8 571.49 191.147 587.264C215.852 614.437 252.573 627.75 288.88 631.898C325.188 636.046 361.848 632.019 398.32 629.794C485.943 624.45 574.195 629.597 660.625 645.076C682.96 649.08 706.375 653.704 727.93 646.567C746.02 640.572 760.84 626.834 778.96 620.931C826.06 605.604 875.702 647.195 924.37 638.15C933.572 636.44 942.378 632.942 951.565 631.171C965.47 628.492 979.788 629.839 993.91 630.816C1087.31 637.295 1181.8 627.273 1271.82 601.335C1290.47 595.961 1309.41 589.648 1324.39 577.235C1353.39 553.211 1361.21 512.589 1370.39 475.879C1388.71 402.581 1420.25 376.374 1430.25 318.904C1452.95 387.569 1474.97 412.966 1476.35 485.34C1477.55 548.102 1486.45 613.475 1463.16 671.68C1434.18 744.078 1360.49 789.363 1285.62 809.042C1210.75 828.721 1132.29 827.768 1055.41 836.517C1005.63 842.187 956.088 851.973 906.003 851.496C850.098 850.967 795.138 837.668 739.51 831.991C680.815 826.004 621.64 828.524 562.645 828.328C463.165 828.002 363.7 819.911 265.487 803.918C169.742 788.326 75.205 765.225 -17 734.889" fill="#B59D92"/>
<path d="M30.2767 152.914C34.7992 157.349 38.0017 163.246 39.5767 169.543C40.3792 172.692 40.8592 175.924 41.0767 179.171C41.2642 182.425 41.1292 185.688 40.8142 188.935C40.4992 192.174 39.8992 195.406 39.1117 198.563C38.3092 201.704 37.3642 204.807 36.2917 207.85C35.2192 210.893 34.0642 213.882 32.8567 216.849C31.6342 219.801 30.3592 222.707 29.1067 225.614C26.5792 231.419 24.1942 237.195 22.1992 243.053C21.6967 244.521 21.2392 246.005 20.7742 247.481C20.3542 248.972 19.8892 250.456 19.5142 251.954L18.9217 254.202L18.3892 256.465C18.0142 257.972 17.7367 259.493 17.4142 261.014C16.2292 267.1 15.4417 273.268 15.0517 279.46C14.6692 285.651 14.7292 291.873 15.1417 298.072L9.65921 297.678C10.4767 294.287 11.3917 290.904 12.4267 287.544C13.4542 284.183 14.6017 280.852 15.9442 277.59C17.2717 274.32 18.7642 271.111 20.4442 268L21.7417 265.684L23.1217 263.413L24.5992 261.203L26.1517 259.054C28.2892 256.215 30.6517 253.566 33.2317 251.152C35.8192 248.745 38.6317 246.603 41.6167 244.756C47.5717 241.07 54.3742 238.693 61.2442 238.39C54.4792 239.609 48.2392 242.606 42.8542 246.61C40.1542 248.609 37.6717 250.894 35.3992 253.354C33.1117 255.799 31.0492 258.448 29.2267 261.249L27.8917 263.376L26.6392 265.555L25.4392 267.766L24.3142 270.014C22.8592 273.041 21.5917 276.16 20.4742 279.339C19.3642 282.525 18.3742 285.757 17.4817 289.034C16.5967 292.312 15.8167 295.619 15.0817 298.957L11.2942 316.207L9.60671 298.556C8.99171 292.108 8.84921 285.606 9.15671 279.134C9.51671 272.663 10.2742 266.206 11.5492 259.848C12.8317 253.49 14.5192 247.216 16.7167 241.123C18.8767 235 21.5917 229.164 24.2617 223.411L28.2442 214.821C29.5642 211.967 30.8317 209.113 32.0017 206.222C33.1792 203.338 34.2217 200.409 35.1292 197.45C36.0517 194.498 36.8317 191.523 37.3267 188.465C37.8442 185.423 38.1292 182.342 38.2192 179.247C38.2717 176.158 38.0692 173.055 37.5592 169.997C36.6067 163.851 34.1692 157.932 30.2767 152.914Z" fill="#B1BF91"/>
<path d="M1297.79 300.193C1303.47 303.894 1308.29 308.995 1311.87 314.877C1315.48 320.758 1317.86 327.35 1319.42 334.072C1320.98 340.808 1321.76 347.734 1321.78 354.652C1321.78 356.385 1321.79 358.111 1321.7 359.844L1321.58 362.44L1321.37 365.014L1320.92 370.168C1320.74 371.879 1320.48 373.582 1320.26 375.292C1319.41 382.135 1317.98 388.871 1316.5 395.577C1314.91 402.253 1313.2 408.898 1311.34 415.476C1307.64 428.638 1303.53 441.627 1300.22 454.751L1298.99 459.671L1297.86 464.606C1297.05 467.883 1296.49 471.198 1295.82 474.498C1295.48 476.149 1295.28 477.814 1295 479.471C1294.76 481.129 1294.45 482.786 1294.27 484.452L1293.73 489.447C1293.65 490.28 1293.53 491.112 1293.47 491.945L1293.32 494.45L1293.02 499.461L1292.96 504.487L1292.93 507L1293.01 509.512L1293.16 514.538C1293.57 521.237 1294.1 527.943 1295.15 534.596C1297.02 547.94 1300.22 561.095 1303.78 574.159C1307.37 587.223 1311.67 600.121 1315.9 613.056L1311.24 614.274C1309.67 604.503 1309.16 594.58 1309.67 584.725C1310.22 574.878 1311.77 565.107 1314.27 555.608C1316.81 546.116 1320.29 536.904 1324.67 528.177L1328.15 521.736L1331.94 515.492L1336.08 509.49L1340.53 503.737L1336.47 509.77L1332.74 515.999L1329.32 522.387L1326.24 528.942C1322.34 537.768 1319.32 546.964 1317.23 556.349C1315.12 565.727 1313.94 575.309 1313.75 584.884C1313.51 594.459 1314.24 604.049 1315.99 613.434L1311.33 614.653C1309.03 608.227 1306.76 601.793 1304.61 595.299C1303.51 592.067 1302.49 588.797 1301.43 585.543C1300.42 582.273 1299.4 579.003 1298.43 575.711C1294.57 562.548 1291.32 549.144 1289.31 535.474C1288.21 528.654 1287.62 521.751 1287.16 514.841L1287.01 509.641L1286.94 507.045L1286.99 504.441L1287.08 499.234L1287.41 494.034C1288.34 480.145 1291.19 466.544 1294.77 453.298C1298.36 440.03 1302.62 427.056 1306.57 414.06C1308.59 407.566 1310.43 401.049 1312.17 394.51C1313.8 387.947 1315.34 381.355 1316.43 374.702C1316.7 373.036 1317.02 371.379 1317.26 369.706L1317.86 364.688L1318.17 362.175L1318.37 359.662C1318.52 357.989 1318.56 356.309 1318.62 354.629C1318.71 352.948 1318.63 351.268 1318.65 349.588C1318.61 347.908 1318.52 346.227 1318.45 344.547C1318.18 341.202 1317.83 337.849 1317.19 334.548L1316.72 332.073C1316.54 331.256 1316.31 330.446 1316.11 329.629C1315.89 328.819 1315.73 327.986 1315.46 327.191L1314.71 324.785C1314.58 324.383 1314.46 323.982 1314.32 323.581L1313.87 322.408L1312.95 320.054C1312.64 319.274 1312.25 318.533 1311.89 317.768C1311.52 317.019 1311.21 316.224 1310.78 315.505C1307.57 309.616 1303.25 304.257 1297.79 300.193Z" fill="#B1BF91"/>
<path d="M1208.9 553.874C1215.31 557.386 1220.99 562.276 1225.93 567.794C1230.84 573.357 1235.03 579.571 1238.55 586.126C1242.05 592.688 1244.96 599.553 1247.46 606.502C1248.73 609.976 1249.9 613.473 1251.01 616.977C1252.13 620.474 1253.19 623.986 1254.24 627.49L1248.41 628.618C1247.67 620.504 1247.47 612.345 1247.75 604.216C1248.05 596.079 1248.84 587.973 1250.16 579.957L1251.24 573.963L1252.51 568.013L1253.99 562.117L1255.62 556.274C1257.99 548.538 1260.77 540.939 1264.22 533.665C1262.07 541.431 1260.1 549.189 1258.58 557.023L1257.46 562.897L1256.51 568.793L1255.67 574.697L1254.96 580.616C1254.12 588.518 1253.63 596.435 1253.53 604.36C1253.42 612.284 1253.7 620.202 1254.36 628.096L1256.78 657.161L1248.53 629.224L1245.43 618.741C1244.38 615.259 1243.31 611.8 1242.2 608.356C1239.94 601.491 1237.46 594.724 1234.46 588.207C1231.47 581.698 1227.98 575.401 1223.75 569.595C1219.55 563.752 1214.6 558.439 1208.9 553.874Z" fill="#B1BF91"/>
<path d="M1227.05 519.034C1229.66 523.568 1231.1 528.813 1231.6 534.119C1231.85 536.776 1231.89 539.447 1231.77 542.119C1231.62 544.783 1231.3 547.44 1230.86 550.074C1229.03 560.618 1225.16 570.488 1222.21 580.282C1219.22 590.038 1217.34 600.075 1216.64 610.225C1215.94 620.367 1216.34 630.601 1217.94 640.668L1212.74 641.538C1212.17 637.065 1211.16 632.637 1209.71 628.338C1208.25 624.039 1206.38 619.853 1204.13 615.871C1201.84 611.913 1199.21 608.106 1196.19 604.609C1193.19 601.089 1189.82 597.857 1186.16 594.928C1190.28 597.168 1194.12 599.984 1197.63 603.193C1201.11 606.425 1204.31 610.036 1207.02 614.009C1209.77 617.96 1212.11 622.222 1213.95 626.718C1215.79 631.214 1217.16 635.922 1217.96 640.759L1212.76 641.629C1210.66 631.191 1209.95 620.451 1210.67 609.809C1211.39 599.174 1213.49 588.593 1216.98 578.564C1220.42 568.566 1224.67 559.15 1227.27 549.287C1227.91 546.827 1228.43 544.329 1228.79 541.816C1229.18 539.304 1229.42 536.761 1229.45 534.21C1229.52 529.108 1228.85 523.946 1227.05 519.034Z" fill="#B1BF91"/>
<path d="M1279.44 581.122C1281.38 583.771 1282.78 586.874 1283.66 590.121C1283.84 590.939 1284.06 591.756 1284.23 592.589C1284.36 593.414 1284.53 594.254 1284.64 595.087C1284.71 595.927 1284.82 596.767 1284.87 597.607C1284.91 598.447 1284.96 599.295 1284.98 600.135C1285.11 606.894 1283.94 613.54 1282.55 619.951C1281.17 626.316 1279.67 632.538 1279.02 638.729C1278.36 644.898 1278.55 651.036 1280.57 656.645L1275.56 658.461C1274.76 655.623 1273.86 652.815 1272.83 650.037L1272.05 647.956L1271.21 645.897L1270.35 643.838L1269.44 641.802C1268.18 639.108 1266.85 636.421 1265.38 633.802C1263.92 631.168 1262.36 628.579 1260.73 625.998C1262.99 628.042 1265.09 630.275 1267.06 632.636C1269.01 635.005 1270.85 637.488 1272.5 640.099L1273.73 642.067L1274.9 644.073L1276.01 646.124L1277.06 648.205C1278.41 651.006 1279.62 653.882 1280.65 656.834L1275.63 658.65C1274.22 655.403 1273.37 651.914 1273.01 648.44C1272.64 644.958 1272.73 641.484 1273.07 638.101C1273.79 631.319 1275.49 624.87 1277.24 618.611C1278.98 612.404 1280.57 606.243 1281.33 599.969C1281.43 599.181 1281.47 598.402 1281.55 597.615C1281.61 596.828 1281.62 596.04 1281.65 595.253C1281.68 594.466 1281.66 593.679 1281.67 592.884C1281.65 592.097 1281.58 591.31 1281.54 590.515C1281.27 587.351 1280.61 584.195 1279.44 581.122Z" fill="#B1BF91"/>
<path d="M1230.47 401.526C1213.15 414.961 1200.01 433.309 1192.55 453.639L1191.21 457.476C1190.78 458.755 1190.44 460.072 1190.05 461.367L1189.49 463.312C1189.3 463.963 1189.17 464.629 1189.01 465.28L1188.08 469.223L1187.35 473.205C1187.23 473.871 1187.09 474.529 1187 475.195L1186.74 477.201C1186.58 478.541 1186.37 479.873 1186.25 481.213L1185.93 485.247C1185.62 490.644 1185.64 496.055 1185.92 501.467C1186.24 506.879 1186.75 512.291 1187.44 517.703C1190.24 539.32 1195.64 560.808 1197.05 583.204C1197.26 585.99 1197.31 588.798 1197.41 591.591C1197.41 594.399 1197.41 597.199 1197.26 600.015C1197 605.631 1196.48 611.263 1195.42 616.826C1195.2 618.226 1194.88 619.604 1194.56 620.989C1194.23 622.366 1193.96 623.759 1193.53 625.121C1193.13 626.484 1192.76 627.854 1192.33 629.209L1190.9 633.235C1188.85 638.556 1186.24 643.665 1183.1 648.434L1175.69 659.712L1178.02 646.405C1180.13 634.31 1181.02 621.995 1180.46 609.741C1179.92 597.495 1177.75 585.316 1173.77 573.728C1171.78 567.945 1169.28 562.322 1166.3 556.963C1163.33 551.604 1159.92 546.472 1156.03 541.719C1148.26 532.22 1138.67 524.098 1127.58 518.52C1139.04 523.258 1149.34 530.888 1157.74 540.228C1166.18 549.56 1172.79 560.566 1177.36 572.396C1181.95 584.219 1184.44 596.813 1185.37 609.453C1186.28 622.116 1185.49 634.84 1183.54 647.344L1178.45 645.315C1181.27 640.85 1183.61 636.104 1185.5 631.161L1186.82 627.407C1187.21 626.143 1187.54 624.849 1187.92 623.577C1188.32 622.306 1188.56 620.996 1188.86 619.694C1189.16 618.393 1189.46 617.098 1189.65 615.774C1190.63 610.521 1191.1 605.154 1191.32 599.78C1191.54 594.399 1191.44 588.995 1191.12 583.583C1190.54 572.759 1188.88 561.981 1187.09 551.142C1185.31 540.311 1183.47 529.404 1182.2 518.361C1181.6 512.836 1181.12 507.28 1180.94 501.694C1180.81 496.108 1180.94 490.5 1181.42 484.914L1181.86 480.728C1182.02 479.335 1182.28 477.95 1182.48 476.565L1182.81 474.484C1182.93 473.795 1183.1 473.114 1183.23 472.425L1184.11 468.315L1185.22 464.266C1185.41 463.592 1185.57 462.911 1185.79 462.245L1186.45 460.254C1186.9 458.93 1187.3 457.59 1187.8 456.288L1189.32 452.382C1197.74 431.704 1212.2 413.629 1230.47 401.526Z" fill="#B1BF91"/>
<path d="M188.161 330.771C185.146 337.553 182.176 344.365 179.769 351.351C178.569 354.848 177.504 358.383 176.694 361.971C175.899 365.559 175.329 369.192 175.081 372.825C175.044 373.733 174.954 374.641 174.954 375.557L174.961 378.282L175.134 380.999C175.179 381.908 175.329 382.801 175.419 383.701C175.914 387.297 176.784 390.831 177.886 394.305C180.069 401.261 183.219 407.922 186.421 414.59C192.909 427.942 199.179 441.415 205.179 455.024C211.179 468.633 216.819 482.424 221.919 496.441C232.231 524.409 240.211 553.405 244.494 583.083C248.686 612.731 249.024 643.15 243.751 672.76L238.471 672.034C239.214 664.957 239.956 657.857 240.819 650.765C241.704 643.673 242.701 636.588 243.909 629.526C245.116 622.464 246.549 615.426 248.296 608.462C250.059 601.499 252.174 594.618 254.686 587.889C259.711 574.417 266.604 561.618 275.484 550.378C279.916 544.754 284.896 539.584 290.349 534.99C295.794 530.396 301.779 526.475 308.116 523.341C295.771 530.312 285.391 540.288 277.126 551.649C272.979 557.334 269.334 563.381 266.176 569.663C263.011 575.946 260.274 582.447 258.016 589.101C255.744 595.761 253.891 602.573 252.331 609.446C250.756 616.319 249.504 623.274 248.454 630.268C247.411 637.262 246.571 644.293 245.844 651.348C245.086 658.402 244.434 665.479 243.781 672.564L238.501 671.837C240.819 657.327 241.951 642.636 241.876 627.929C241.921 620.572 241.516 613.223 241.014 605.881C240.676 602.218 240.421 598.547 239.964 594.891C239.746 593.059 239.566 591.235 239.326 589.403L238.569 583.931C238.336 582.107 238.021 580.29 237.744 578.474C237.451 576.657 237.189 574.833 236.866 573.017C236.199 569.391 235.591 565.758 234.819 562.155C233.394 554.927 231.661 547.751 229.839 540.614C226.074 526.354 221.739 512.23 216.826 498.288C211.951 484.339 206.499 470.586 200.866 456.893C195.189 443.216 189.189 429.675 183.144 416.127C180.129 409.337 177.099 402.45 175.051 395.153C174.046 391.505 173.266 387.781 172.899 383.989C172.839 383.043 172.711 382.097 172.704 381.143L172.636 378.297L172.734 375.451C172.771 374.505 172.891 373.566 172.966 372.62C173.364 368.859 174.091 365.15 175.074 361.532C176.064 357.914 177.309 354.379 178.674 350.913C180.039 347.439 181.569 344.048 183.181 340.702C184.794 337.379 186.474 334.072 188.161 330.771Z" fill="#B1BF91"/>
<path d="M250.996 497.81C257.071 502.245 262.711 507.325 267.916 512.842L271.734 517.066L275.394 521.425L278.874 525.944L282.196 530.584C286.554 536.828 290.424 543.413 293.941 550.172C297.489 556.924 300.586 563.91 303.361 571.01C308.979 585.194 313.089 599.901 316.651 614.66C320.056 629.457 322.906 644.338 325.494 659.218L320.199 660.127L319.606 654.45L319.336 648.758L319.419 643.066L319.816 637.397C320.544 629.859 322.096 622.418 324.466 615.273L326.371 609.967L328.554 604.782L331.036 599.742L333.781 594.852C337.629 588.448 342.189 582.514 347.401 577.284C342.826 583.09 338.881 589.327 335.619 595.881L333.294 600.847L331.239 605.925L329.431 611.087L327.886 616.325C326.041 623.364 324.856 630.555 324.444 637.776L324.286 643.195L324.421 648.607L324.819 653.996L325.516 659.347L320.221 660.255C317.154 645.473 314.341 630.668 310.824 616.075C307.456 601.444 303.369 587.026 298.321 572.97C295.771 565.954 292.899 559.066 289.756 552.307C286.591 545.555 283.044 538.985 279.181 532.605L276.189 527.874L273.046 523.242L269.769 518.7L266.326 514.28C261.631 508.422 256.524 502.919 250.996 497.81Z" fill="#B1BF91"/>
<path d="M359.806 488.274C362.769 490.507 365.566 493.02 368.071 495.82C370.524 498.659 372.796 501.702 374.709 504.979C376.576 508.271 378.249 511.708 379.539 515.31C380.761 518.928 381.774 522.645 382.344 526.452C382.891 530.259 383.206 534.127 382.981 538.002C382.989 538.971 382.831 539.932 382.764 540.901C382.674 541.87 382.591 542.839 382.426 543.785C382.156 545.7 381.781 547.592 381.361 549.469C380.514 553.223 379.389 556.872 378.136 560.437C376.899 564.002 375.571 567.506 374.304 570.988C373.029 574.462 371.829 577.936 370.771 581.403C369.729 584.877 368.836 588.343 368.341 591.885C367.141 598.932 367.254 606.191 367.921 613.396C369.414 627.845 373.681 642.053 377.956 656.29L372.909 657.213C372.684 650.62 373.561 644.043 375.264 637.753C376.959 631.448 379.614 625.454 382.959 619.929C386.289 614.396 390.444 609.407 395.131 605.07C399.856 600.771 405.166 597.169 410.904 594.588C405.541 597.88 400.689 601.884 396.496 606.471C392.266 611.02 388.741 616.167 385.854 621.601C382.981 627.051 380.881 632.879 379.516 638.836C378.159 644.8 377.694 650.931 378.076 656.971L379.329 676.537L373.036 657.894C370.651 650.825 368.326 643.687 366.339 636.406C364.411 629.102 362.769 621.654 361.989 614.025C361.824 612.11 361.606 610.21 361.554 608.28C361.516 607.319 361.449 606.357 361.449 605.396L361.464 602.497C361.449 601.536 361.509 600.567 361.569 599.598L361.749 596.699L362.079 593.808L362.244 592.362L362.499 590.924C363.736 583.204 366.414 575.953 369.166 569.012C371.941 562.056 374.754 555.259 376.696 548.296C377.169 546.555 377.604 544.807 377.926 543.043C378.121 542.165 378.234 541.28 378.354 540.394C378.459 539.508 378.646 538.623 378.676 537.73L378.864 535.043C378.901 534.15 378.871 533.249 378.894 532.348C378.894 531.902 378.916 531.447 378.901 531.001L378.826 529.654C378.766 528.753 378.766 527.845 378.646 526.951C378.324 523.349 377.589 519.791 376.636 516.279C375.661 512.775 374.334 509.369 372.781 506.054C371.161 502.776 369.279 499.62 367.134 496.615C364.936 493.641 362.491 490.863 359.806 488.274Z" fill="#B1BF91"/>
<path d="M321.054 556.379C313.861 563.577 307.194 571.214 301.659 579.555C296.139 587.896 291.984 596.986 288.909 606.463C287.319 611.186 286.141 616.053 285.001 620.92L284.214 624.598L283.516 628.299C283.269 629.526 283.059 630.767 282.856 632.008C282.654 633.249 282.429 634.483 282.249 635.732C280.704 645.693 279.654 655.775 278.521 665.894L275.724 690.864L273.009 665.978C272.424 660.596 271.681 655.222 270.819 649.871C270.369 647.199 269.904 644.527 269.409 641.855C268.891 639.191 268.359 636.527 267.804 633.862L266.919 629.881L265.974 625.907L264.999 621.941L263.971 617.983C262.561 612.715 261.039 607.462 259.434 602.209C261.871 607.121 264.076 612.162 266.056 617.286L267.511 621.147L268.899 625.037L270.189 628.965L271.411 632.916L272.574 636.89L273.646 640.886L274.651 644.906L275.566 648.947C276.751 654.344 277.726 659.794 278.499 665.274L272.986 665.357C273.376 660.271 273.826 655.177 274.351 650.075C274.906 644.974 275.514 639.872 276.324 634.778C277.936 624.598 280.239 614.441 283.816 604.661C285.654 599.795 287.679 594.98 290.221 590.432C290.799 589.266 291.504 588.169 292.171 587.048C292.854 585.936 293.491 584.808 294.226 583.733C295.659 581.561 297.189 579.472 298.794 577.443C305.199 569.314 312.811 562.321 321.054 556.379Z" fill="#B1BF91"/>
<path d="M238.914 469.026C238.554 472.659 237.699 476.269 236.454 479.736C235.224 483.21 233.641 486.578 231.796 489.765C228.181 496.198 223.756 502.08 219.519 507.953C217.419 510.905 215.221 513.758 213.316 516.794C212.341 518.292 211.344 519.776 210.399 521.289L207.699 525.922C204.174 532.128 200.941 538.524 198.354 545.185L197.334 547.66C197.004 548.493 196.726 549.34 196.419 550.173C195.819 551.853 195.204 553.526 194.619 555.214C193.614 558.643 192.429 562.011 191.619 565.493L190.951 568.089L190.614 569.383L190.336 570.692L189.226 575.93C188.851 577.678 188.634 579.45 188.326 581.213L187.899 583.855C187.756 584.74 187.681 585.626 187.569 586.512L186.946 591.84L186.579 597.191C186.414 598.97 186.391 600.764 186.354 602.55L186.294 605.23C186.264 606.123 186.249 607.016 186.286 607.909L186.399 613.275C186.399 614.169 186.474 615.062 186.541 615.955L186.736 618.634L186.909 621.314C186.961 622.207 187.104 623.092 187.194 623.985L187.816 629.329L183.384 629.269C184.389 624.689 186.076 620.284 188.356 616.258C190.629 612.231 193.404 608.507 196.644 605.283C199.884 602.066 203.499 599.25 207.451 597.07C211.389 594.868 215.619 593.248 219.969 592.362C215.791 593.854 211.854 595.905 208.284 598.41C204.721 600.938 201.466 603.867 198.691 607.19C195.909 610.505 193.516 614.123 191.686 618.006C189.864 621.881 188.521 625.969 187.816 630.147L185.679 642.741L183.384 630.093C182.064 622.82 181.111 615.448 180.864 608.03C180.796 607.107 180.796 606.176 180.796 605.252L180.789 602.467C180.781 600.612 180.759 598.758 180.886 596.904L181.171 591.341L181.734 585.8C182.596 578.428 183.879 571.093 185.859 563.941C186.729 560.33 187.936 556.818 189.061 553.284C189.691 551.543 190.359 549.809 191.004 548.076C191.334 547.213 191.641 546.335 191.994 545.48L193.104 542.929C195.991 536.102 199.531 529.578 203.371 523.265L206.386 518.618C207.444 517.104 208.546 515.62 209.626 514.129L211.254 511.897L212.949 509.724C214.089 508.294 215.229 506.863 216.399 505.47C221.064 499.877 225.721 494.389 229.816 488.486L231.309 486.245L232.711 483.952C233.611 482.4 234.504 480.841 235.261 479.206C236.791 475.982 238.059 472.576 238.914 469.026Z" fill="#B1BF91"/>
<path d="M566.354 563.69C570.082 566.249 573.749 568.921 577.086 572.115C580.371 575.317 583.371 579.109 585.104 583.65C586.859 588.161 587.422 592.937 587.849 597.456C588.074 599.727 588.254 601.959 588.554 604.124C588.682 605.214 588.921 606.274 589.101 607.341C589.266 608.416 589.536 609.468 589.784 610.528C591.854 618.975 595.596 626.983 600.164 634.552C604.709 642.143 609.989 649.379 615.299 656.684L610.094 658.553C609.914 652.256 610.829 645.966 612.674 640.017C614.504 634.06 617.271 628.444 620.751 623.365C624.284 618.331 628.461 613.767 633.284 610.081L636.981 607.44L640.874 605.146C642.231 604.495 643.574 603.829 644.931 603.201C646.334 602.679 647.729 602.149 649.124 601.657L645.261 603.859C644.039 604.7 642.809 605.502 641.586 606.312L638.129 609.021L634.874 611.943C630.711 616.023 627.074 620.594 624.209 625.597C618.404 635.536 615.306 647.025 615.884 658.318L616.364 667.636L610.686 660.188C605.197 652.99 599.767 645.61 595.072 637.625C590.407 629.662 586.536 620.95 584.729 611.655C584.504 610.497 584.264 609.339 584.144 608.158C584.009 606.985 583.821 605.812 583.754 604.639C583.566 602.292 583.507 599.999 583.447 597.736C583.304 593.232 583.169 588.842 581.961 584.748C580.754 580.683 578.511 576.861 575.676 573.447C572.864 569.996 569.579 566.869 566.354 563.69Z" fill="#B1BF91"/>
<path d="M594.022 546.994C595.807 551.694 597.464 556.463 598.612 561.435C599.714 566.401 600.307 571.638 599.564 576.899C599.212 579.518 598.514 582.129 597.539 584.597C596.572 587.064 595.319 589.373 594.014 591.598C591.359 596.041 588.427 600.09 585.847 604.238C583.237 608.401 580.867 612.708 578.714 617.121C576.532 621.518 574.604 626.037 572.864 630.631C569.429 639.827 566.864 649.357 565.312 659.06L564.067 666.833L560.084 660.18C558.337 657.266 557.129 654.072 556.409 650.848C556.259 650.038 556.049 649.236 555.952 648.426L555.644 646.011C555.532 644.407 555.412 642.81 555.412 641.235C555.397 638.079 555.562 634.968 555.764 631.918C555.967 628.868 556.147 625.847 556.267 622.858C556.364 619.875 556.312 616.909 555.997 613.987C555.629 611.08 555.037 608.174 554.077 605.366C553.132 602.55 551.894 599.825 550.394 597.222C548.894 594.618 547.102 592.173 545.092 589.88C547.439 591.81 549.614 594.012 551.474 596.487C552.419 597.714 553.274 599.008 554.092 600.332C554.872 601.68 555.614 603.057 556.252 604.488C557.557 607.342 558.562 610.354 559.177 613.465C559.769 616.576 560.077 619.717 560.219 622.835C560.459 629.057 560.077 635.18 560.467 641.053C560.729 646.935 561.989 652.536 564.892 657.085L559.664 658.205C561.067 648.047 563.617 638.041 567.292 628.474C569.107 623.683 571.237 619.013 573.584 614.471C575.969 609.945 578.602 605.555 581.459 601.324C584.287 597.04 587.519 593.18 590.227 589.153C592.919 585.119 595.207 580.933 596.182 576.271C597.187 571.623 597.217 566.673 596.632 561.761C596.092 556.849 595.034 551.929 594.022 546.994Z" fill="#B1BF91"/>
<path d="M883.739 614.372C881.242 616.937 879.149 619.784 877.477 622.811C877.072 623.576 876.689 624.355 876.299 625.12C875.947 625.907 875.624 626.709 875.294 627.496C874.979 628.291 874.709 629.108 874.417 629.903C874.154 630.713 873.952 631.546 873.712 632.356C872.077 638.948 872.099 645.866 874.034 652.118C875.969 658.423 879.704 664.236 883.417 670.329C885.262 673.387 887.122 676.544 888.689 679.942C890.264 683.326 891.539 686.981 892.132 690.811L887.797 689.26C890.189 687.33 892.402 685.142 894.367 682.72L895.807 680.873L897.149 678.943L898.424 676.952L899.594 674.886C901.057 672.078 902.324 669.126 903.262 666.03C904.222 662.942 904.867 659.733 905.242 656.433C905.699 659.725 905.669 663.109 905.249 666.462C904.799 669.815 903.997 673.145 902.759 676.339L901.784 678.716L900.682 681.047L899.422 683.303L898.042 685.49C896.099 688.351 893.834 691.008 891.247 693.354L887.902 696.39L886.912 691.803C885.524 685.399 881.999 679.518 878.324 673.501C876.487 670.481 874.582 667.408 872.887 664.123C871.192 660.845 869.692 657.348 868.754 653.617C866.872 646.116 867.532 638.184 870.239 631.228C870.607 630.365 870.944 629.502 871.334 628.654C871.762 627.822 872.159 626.989 872.602 626.179C873.097 625.392 873.569 624.597 874.072 623.825C874.619 623.076 875.144 622.327 875.699 621.6C877.972 618.724 880.694 616.241 883.739 614.372Z" fill="#B1BF91"/>
<path d="M873.802 580.487C877.567 585.642 880.304 591.591 882.284 597.729C882.742 599.273 883.244 600.817 883.664 602.377C884.039 603.943 884.444 605.51 884.797 607.084L885.772 611.815C886.064 613.397 886.357 614.979 886.612 616.561C887.662 622.888 888.449 629.208 889.424 635.437C890.399 641.659 891.539 647.805 893.264 653.716L888.494 652.301C891.097 649.917 892.904 646.465 894.359 642.62C895.109 640.706 895.814 638.7 896.579 636.641L897.817 633.568C898.244 632.546 898.619 631.509 899.122 630.525C902.819 622.51 907.544 614.994 913.207 608.303C918.892 601.635 925.409 595.724 932.579 590.834C939.779 585.998 947.579 582.122 955.747 579.625C948.142 583.53 941.009 588.132 934.514 593.46C933.704 594.126 932.924 594.838 932.129 595.519C931.349 596.216 930.524 596.866 929.789 597.616C928.289 599.084 926.737 600.492 925.327 602.036L923.167 604.307L921.112 606.676C919.702 608.212 918.479 609.915 917.167 611.535C912.097 618.158 907.874 625.386 904.507 632.978C904.057 633.909 903.712 634.893 903.314 635.854L902.167 638.753C901.447 640.72 900.757 642.764 899.939 644.838C899.129 646.912 898.199 649.016 896.984 651.067C895.799 653.118 894.254 655.094 892.379 656.752L888.854 659.877L887.609 655.344C885.869 648.994 884.864 642.552 884.137 636.164C883.409 629.768 882.952 623.418 882.374 617.113L881.909 612.398L881.354 607.705C881.137 606.146 880.882 604.602 880.649 603.043L879.794 598.41C879.457 596.881 879.067 595.36 878.707 593.824L877.372 589.29L875.737 584.839L873.802 580.487Z" fill="#B1BF91"/>
<path d="M906.974 543.717C911.819 545.533 916.199 548.682 919.859 552.489C923.519 556.319 926.512 560.777 928.942 565.493C930.172 567.854 931.244 570.284 932.227 572.736C933.187 575.196 934.064 577.686 934.882 580.176C935.707 582.667 936.472 585.164 937.237 587.647L939.464 595.065C940.964 599.984 942.667 604.73 944.662 609.37C946.664 614.01 948.944 618.521 951.479 622.88C956.557 631.6 962.752 639.646 969.779 646.866L965.084 648.433L965.932 644.119L967.004 639.865L968.272 635.672L969.757 631.554L971.437 627.52L973.289 623.577L975.322 619.724L977.557 616L979.957 612.39L982.514 608.9C983.414 607.773 984.337 606.668 985.252 605.555L988.139 602.353C992.077 598.183 996.434 594.444 1001.13 591.265C997.004 595.163 993.232 599.364 989.827 603.814L987.352 607.205C986.579 608.371 985.814 609.544 985.034 610.694L982.844 614.259L980.827 617.915L978.974 621.647L977.257 625.431L975.712 629.291L974.347 633.212L973.154 637.186L972.119 641.19L971.272 645.239L970.597 649.311L969.727 654.557L965.902 650.878C958.274 643.544 951.659 635.119 946.342 625.931C943.679 621.336 941.332 616.56 939.329 611.633C937.289 606.728 935.744 601.604 934.379 596.563C933.697 594.035 933.044 591.514 932.407 589.002C931.792 586.481 931.177 583.983 930.509 581.508C929.849 579.033 929.144 576.573 928.357 574.159C927.584 571.729 926.759 569.338 925.777 567.014C924.802 564.683 923.677 562.412 922.462 560.202C921.232 557.992 919.874 555.85 918.322 553.859C915.232 549.84 911.459 546.313 906.974 543.717Z" fill="#B1BF91"/>
<path d="M1147.56 608.037C1149.46 613.229 1154.69 616.408 1159.88 618.194C1165.07 619.981 1170.62 620.828 1175.47 623.394C1181.38 626.528 1185.74 631.925 1189.91 637.177C1193.2 641.303 1196.48 645.427 1199.77 649.552C1200.92 651.006 1202.12 652.512 1202.62 654.313C1203.49 657.409 1202.15 660.709 1200.37 663.366C1193.14 674.137 1179.41 678.08 1166.67 680.094C1157.99 681.464 1149.21 682.304 1140.43 682.599C1135.99 682.75 1131.45 682.743 1127.24 681.32C1119.21 678.603 1099.7 684.62 1111.24 662.73C1115.21 655.192 1109.55 645.753 1110.84 637.313C1112.04 629.442 1113.87 621.525 1117.81 614.629C1121.75 607.726 1128.06 601.898 1135.74 600.066C1138.03 599.521 1140.5 599.347 1142.69 600.203C1147.63 602.133 1149.32 608.203 1150.34 613.449C1151.46 614.031 1152.93 613.766 1147.56 608.037Z" fill="#D9D9D9"/>
<path d="M1223.3 697.949C1229.85 691.508 1240.34 692.522 1249.42 693.68C1250.81 693.854 1252.4 693.968 1253.42 693.014C1254.86 691.675 1254.24 689.275 1253.42 687.481C1250.23 680.533 1245.65 674.236 1240.05 669.074C1239.23 668.31 1238.33 667.545 1237.23 667.311C1235.93 667.023 1234.59 667.538 1233.41 668.173C1224.53 672.964 1221.4 684.03 1219.1 693.93C1218.82 695.179 1218.59 696.677 1219.5 697.578C1220.67 698.736 1222.69 697.888 1223.84 696.708C1224.98 695.519 1225.98 693.968 1223.3 697.949Z" fill="#D9D9D9"/>
<path d="M656.904 666.152C660.939 648.72 673.141 633.401 689.146 625.68C690.631 624.969 692.251 624.295 693.871 624.575C695.394 624.832 696.646 625.869 697.884 626.8C708.024 634.422 721.171 636.413 732.639 641.787C744.841 647.502 755.161 657.228 761.656 669.119C761.994 669.74 762.331 670.391 762.376 671.102C762.466 672.578 761.289 673.82 760.059 674.614C753.151 679.095 744.196 675.53 736.141 673.91C716.341 669.921 696.331 678.732 676.164 679.686C671.769 679.897 667.119 679.655 663.399 677.286C659.679 674.917 656.079 669.725 656.904 666.152Z" fill="#D9D9D9"/>
<path d="M260.746 687.05C249.234 678.088 238.531 668.059 228.834 657.13C225.871 653.799 222.939 650.317 219.129 648.024C213.106 644.398 205.734 644.186 198.729 644.073C192.144 643.967 185.424 643.876 179.131 645.837C172.839 647.805 166.929 652.202 164.844 658.507C163.591 662.284 163.764 666.515 161.971 670.065C160.539 672.888 158.019 674.955 155.724 677.119C149.859 682.652 145.066 689.343 141.706 696.708C149.146 693.983 156.781 691.22 164.694 691.289C169.741 691.334 174.699 692.53 179.611 693.718C186.834 695.467 194.056 697.215 201.271 698.971C203.791 699.584 206.356 700.197 208.951 700.122C212.206 700.023 215.326 698.85 218.394 697.76C231.571 693.075 245.221 689.775 260.746 687.05Z" fill="#D9D9D9"/>
<path d="M316.254 675.34C318.594 671.299 319.764 666.697 321.286 662.269C322.809 657.849 324.811 653.391 328.351 650.363C331.891 647.335 337.306 646.109 341.244 648.584C342.684 649.492 343.824 650.802 344.934 652.088C348.249 655.926 351.564 659.764 354.879 663.609C358.134 667.37 361.614 672.093 360.204 676.884C359.581 679.011 358.036 680.76 356.296 682.114C349.929 687.049 341.191 687.216 333.181 686.603C325.171 685.99 316.824 684.847 309.346 687.814C312.459 681.146 316.081 674.72 316.254 675.34Z" fill="#D9D9D9"/>
<path d="M1292.43 670.724C1281.93 652.006 1288.25 628.027 1307.26 614.403C1311.98 611.019 1317.4 608.212 1321.33 604.223C1331.35 594.058 1329.71 578.45 1340.43 568.762C1341.51 567.786 1342.86 566.839 1344.47 566.824C1346 566.817 1347.32 567.649 1348.47 568.459C1360.32 576.815 1369.6 587.541 1375.25 599.416C1379.57 608.492 1382.18 618.71 1391 625.31C1394.56 627.974 1398.98 629.904 1401.96 633C1404.23 635.362 1405.49 638.238 1406.72 641.061C1414.55 659.105 1418.64 666.545 1426.47 684.59C1406.53 683.788 1386.66 694.278 1366.69 687.693C1359.68 685.385 1353.5 681.517 1346.27 679.715C1339.88 678.126 1333.05 678.232 1326.37 678.361C1311.98 678.633 1297.6 678.906 1283.21 679.178C1288.85 676.264 1292.77 671.337 1292.43 670.724Z" fill="#D9D9D9"/>
<path d="M27.4662 603.663C29.3937 597.138 29.6712 590.16 31.9737 583.764C34.2837 577.361 39.5262 571.245 46.2687 571.056C51.7962 570.897 56.5812 574.651 60.8337 578.216C65.1762 581.849 69.6012 585.581 72.5562 590.425C75.9687 596.026 77.4612 603.118 82.6437 607.107C86.4162 610.013 91.4037 610.633 95.7912 612.45C100.186 614.266 104.484 618.437 103.531 623.13C79.5387 618.884 54.8937 622.116 30.5937 620.39C28.3062 620.231 25.6662 619.8 24.5412 617.786C23.8137 616.492 23.9487 614.887 24.2037 613.419C25.1862 607.818 27.5562 602.467 27.4662 603.663Z" fill="#D9D9D9"/>
<path d="M1371.34 374.299C1373.57 373.828 1375.82 374.481 1377.52 375.653C1379.21 376.827 1380.42 378.47 1381.5 380.151C1384.76 385.225 1387.03 390.831 1389.21 396.444C1389.76 397.849 1390.3 399.288 1390.31 400.824C1390.31 403.479 1388.54 406.24 1385.92 407.677C1391.13 409.273 1396.71 410.883 1402.35 409.518C1404.85 408.914 1407.2 407.756 1409.5 406.578C1414.06 404.248 1418.55 401.796 1422.97 399.229C1424.81 398.158 1426.67 397.044 1428.11 395.53C1429.55 394.017 1430.53 392.022 1430.21 390.184C1427.34 392.535 1422.92 392.325 1420.07 390.53C1417.22 388.738 1415.62 385.741 1414.34 382.751C1412.79 379.12 1411.6 375.341 1410.41 371.572C1409.83 369.743 1409.25 367.899 1409.11 365.955C1408.94 363.553 1409.47 361.047 1410.65 358.745C1410.81 358.421 1410.99 358.057 1410.86 357.748C1410.75 357.478 1410.43 357.347 1410.14 357.248C1404.94 355.471 1398.4 356.568 1393.63 360.016C1392.07 361.146 1390.7 362.501 1389.09 363.567C1386.08 365.567 1382.46 366.434 1379.11 367.814C1375.76 369.193 1372.33 371.447 1371.34 374.299Z" fill="#FFE0AD"/>
<path d="M1428.83 332.088C1427.98 332.404 1427.18 332.925 1426.58 333.585Z" fill="#FFE0AD"/>
<path d="M1390.2 360.705C1389.33 358.41 1388.32 356.134 1386.66 354.29C1385.01 352.451 1382.61 351.076 1379.87 351.011C1379.59 350.488 1379.92 349.817 1380.28 349.263C1380.59 348.783 1380.94 348.302 1381.44 347.987C1382.22 347.49 1383.25 347.506 1384.04 347.841C1384.84 348.169 1385.44 348.762 1385.99 349.371C1388.77 352.439 1390.73 356.194 1391.38 360.286C1391.46 360.846 1391.34 361.653 1390.7 361.748C1390.2 361.818 1389.9 361.329 1389.87 360.885C1389.84 360.437 1389.96 359.955 1390.2 360.705Z" fill="#70634D"/>
<path d="M1370.71 375.28C1370.87 370.995 1372.66 366.476 1376.2 363.312C1379.74 360.147 1385.17 358.628 1389.33 360.214C1390.06 360.491 1390.86 360.862 1391.65 360.567C1392.24 360.35 1392.63 359.831 1393 359.357C1394.78 357.083 1397.09 355.001 1399.91 354.038C1404.83 352.363 1410.12 354.664 1412.7 358.385C1411.3 358.265 1409.98 357.775 1408.55 357.864C1407.12 357.954 1405.47 358.959 1405.5 360.254C1403.89 359.294 1401.91 358.306 1400 359.088C1398.8 359.575 1397.95 360.679 1397.55 361.809C1397.14 362.941 1397.12 364.115 1397.1 365.262C1395.55 364.711 1393.55 365.457 1392.37 366.737C1391.2 368.017 1390.76 369.706 1390.76 371.278C1388.89 369.993 1386.47 369.244 1384 369.653C1381.54 370.061 1379.13 371.798 1378.48 374.026C1377.76 372.78 1376.09 372.103 1374.47 372.405C1372.85 372.714 1371.38 373.974 1370.71 375.28Z" fill="#FF4A4A"/>
<path d="M1383.98 406.585C1386.65 409.15 1389.4 411.762 1392.95 413.299C1396.49 414.83 1401.06 415.108 1404.74 413.058C1407.44 411.546 1409.45 408.924 1412.36 407.87C1413.81 407.347 1415.35 407.269 1416.86 406.97C1419.36 406.466 1421.73 405.344 1424.06 404.23C1426.14 403.239 1428.32 402.173 1429.71 400.428C1431.33 398.389 1431.58 395.826 1431.72 393.427C1431.81 392.081 1431.84 390.625 1430.98 389.624C1429.86 391.234 1428.57 392.839 1426.79 393.819C1425 394.799 1422.61 394.972 1421.25 393.786C1420.84 395.57 1420.33 397.513 1418.79 398.765C1416.71 400.441 1413.45 400.094 1411.71 398.474C1411.38 400.361 1409.83 402.15 1407.86 402.924C1405.88 403.698 1403.57 403.426 1402.11 402.25C1402.97 404.083 1401.4 406.712 1399.14 407.22C1397.7 407.548 1396.25 407.09 1395.19 406.297C1394.12 405.505 1393.39 404.406 1392.73 403.3C1393.01 405.006 1391.36 406.834 1389.46 407.353C1387.56 407.873 1385.59 407.327 1383.98 406.585Z" fill="#FF4A4A"/>
</g>
<defs>
<clipPath id="clip0_0_1">
<rect width="1440" height="4420.59" fill="white" transform="translate(0 -3694)"/>
</clipPath>
</defs>
</svg>
