<svg width="1440" height="440" viewBox="0 0 1440 440" fill="none" xmlns="http://www.w3.org/2000/svg">
<rect width="1440" height="440" fill="#E5E5E5"/>
<g clip-path="url(#clip0_0_1)">
<path d="M1440.5 -671C1460.5 -162 1272 -37.5 1272 -37.5C1272 -37.5 1199.21 51.5 1050.5 51.5C242.5 51.5 158 110.5 158 277C158 452.332 418 449 503.5 449C589 449 1219.94 441.615 1258 567C1303.5 716.901 1004 779.401 644.5 752.901C261.142 724.643 201.5 821.401 206.5 872.901C211.5 924.401 322 1012.9 738.5 909.401C1155 805.901 1251 919.401 1253.5 978.901C1256 1038.4 1146.5 1193 738.5 1069C330.5 945 186 1071 206.5 1138.5C227 1206 348 1249 606.5 1176.5C865 1104 1175.28 1108.9 1239.78 1204.4C1304.28 1299.9 1143.5 1389.9 860.5 1307.9C853 1305.73 808.053 1300.57 773.5 1296.4C768.981 1295.86 765.253 1291.68 761.563 1287.38L748.5 1277.52V1263.43C757.979 1263.6 761.438 1272.34 765.213 1279.12L773.5 1286.9C890.5 1296.4 1092.42 1373.73 1207.5 1292.9C1291.5 1233.9 1203 1188.9 1182.5 1176.5C1143.17 1156.67 943.4 1112.9 673 1176.5C335 1256 299 1261 206.5 1165C114 1069 343.5 989 487.5 1009L495.537 1010.12C632.706 1029.16 619.456 1021.17 851 1084.9C1087 1149.86 1261.24 1042.92 1234 968.901C1228.5 905.401 1057 838.901 718.5 927.401C561.167 960.901 241.4 1013.6 203 904.401C155 767.901 332 718.901 503.5 727.401C675 735.901 984.202 761.423 1143.5 687.901C1299.5 615.901 1268.19 538.955 1090 501.5C864.5 454.102 876.5 492.236 550 478.5C421.5 473.094 179.881 470 142.281 352C95.2809 204.5 133 82 452 51.5C771 21 1061 74 1195 -26C1372.88 -158.747 1406.11 -408.5 1206 -544C974.623 -700.668 69 -465.099 -12 -665.099L1440.5 -671Z" fill="#48A4BD"/>
<path d="M584 3089.4C1170.89 3106.42 1317.5 2993.9 1344 2690.9C1370.66 2386.06 1351.92 2355.55 1296.5 2215.9C1284 2184.4 1272 2167.9 1266.5 2161.4H958.5C959.522 2187.9 1075.5 2215.9 1189 2324.9C1268 2443.4 1311.5 2509.47 1311.5 2677.9C1311.5 2998.9 1108.51 3016.86 997.5 3047.4C886.494 3077.95 648.967 3076.9 471.5 3076.9C333.5 3076.9 244.483 3134.4 215.5 3189.9C178.945 3259.9 229.572 3315.08 298.5 3340.4C347.5 3358.4 421.667 3369.23 451.5 3364.9V3356.4H431C130.5 3340.4 153 3076.9 584 3089.4Z" fill="#48A4BD"/>
<path d="M773.5 1286.9C890.5 1296.4 1092.42 1373.73 1207.5 1292.9C1291.5 1233.9 1203 1188.9 1182.5 1176.5C1143.17 1156.67 943.4 1112.9 673 1176.5C335 1256 299 1261 206.5 1165C114 1069 343.5 989 487.5 1009M773.5 1286.9C763.423 1285.59 763.558 1263.71 748.5 1263.43M773.5 1286.9L748.5 1263.43M487.5 1009L495.537 1010.12M487.5 1009C490.219 1009.38 492.897 1009.75 495.537 1010.12M1234 968.901C1261.24 1042.92 1087 1149.86 851 1084.9C619.456 1021.17 632.706 1029.16 495.537 1010.12M1234 968.901C1228.5 905.401 1057 838.901 718.5 927.401C561.167 960.901 241.4 1013.6 203 904.401C155 767.901 332 718.901 503.5 727.401C675 735.901 984.202 761.423 1143.5 687.901C1299.5 615.901 1268.19 538.955 1090 501.5C864.5 454.102 876.5 492.236 550 478.5C421.5 473.094 179.881 470 142.281 352C95.2809 204.5 133 82 452 51.5C771 21 1061 74 1195 -26C1372.88 -158.747 1406.11 -408.5 1206 -544C974.623 -700.668 69 -465.099 -12 -665.099L1440.5 -671C1460.5 -162 1272 -37.5 1272 -37.5C1272 -37.5 1199.21 51.5 1050.5 51.5C242.5 51.5 158 110.5 158 277C158 452.332 418 449 503.5 449C589 449 1219.94 441.614 1258 567C1303.5 716.901 1004 779.401 644.5 752.901C261.142 724.643 201.5 821.401 206.5 872.901C211.5 924.401 322 1012.9 738.5 909.401C1155 805.901 1251 919.401 1253.5 978.901C1256 1038.4 1146.5 1193 738.5 1069C330.5 945 186 1071 206.5 1138.5C227 1206 348 1249 606.5 1176.5C865 1104 1175.28 1108.9 1239.78 1204.4C1304.28 1299.9 1143.5 1389.9 860.5 1307.9C853 1305.73 808.053 1300.57 773.5 1296.4M1234 968.901C1226.08 931.401 1234.05 968.951 1234 968.901ZM748.5 1263.43V1277.52M748.5 1277.52C757.996 1278.05 764.002 1295.26 773.5 1296.4M748.5 1277.52L773.5 1296.4M1344 2690.9C1317.5 2993.9 1170.89 3106.42 584 3089.4C153 3076.9 130.5 3340.4 431 3356.4H451.5V3364.9C421.667 3369.23 347.5 3358.4 298.5 3340.4C229.572 3315.08 178.945 3259.9 215.5 3189.9C244.483 3134.4 333.5 3076.9 471.5 3076.9C648.967 3076.9 886.494 3077.95 997.5 3047.4C1108.51 3016.86 1311.5 2998.9 1311.5 2677.9C1311.5 2509.47 1268 2443.4 1189 2324.9C1075.5 2215.9 959.522 2187.9 958.5 2161.4H1266.5C1272 2167.9 1284 2184.4 1296.5 2215.9C1351.92 2355.55 1370.66 2386.06 1344 2690.9Z" stroke="#48A4BD" stroke-width="3"/>
<path d="M1444.5 -672.599C1433.3 -591.621 1415.05 -462.971 1420.78 -374.256C1422.94 -340.826 1423.65 -291.06 1414.59 -286.753C1432.72 -189.06 1432.59 -48.4298 1414.29 48.801C1421.75 93.6768 1420.22 157.008 1410.74 196.093C1422.05 216.305 1427.32 267.502 1427.29 314.641C1427.26 361.781 1423.07 407.254 1420.47 453.364C1415.97 533.01 1416.18 615.653 1418.96 696.396C1420.43 738.993 1420.98 793.899 1410.64 812.106C1413.5 823.203 1416.35 834.293 1419.2 845.391C1419.43 918.776 1413.88 992.282 1403.43 1054.22C1412.93 1088.22 1414.04 1142.84 1414.55 1192.15C1415.06 1242.07 1415.57 1292.01 1416.09 1341.93C1414.25 1336.21 1418.92 1339.62 1418.76 1348.57C1418 1392.77 1417.24 1436.97 1416.47 1481.17C1413.04 1499.41 1409.61 1517.66 1406.18 1535.9C1410.72 1537.36 1415 1547.69 1417.24 1562.62C1411.83 1577.08 1406.41 1591.53 1401 1605.99C1404.57 1621.06 1408.14 1636.13 1411.7 1651.19C1413.69 1741.27 1415.69 1831.35 1417.68 1921.43C1418.61 1963.56 1418.36 2014.91 1408.71 2036.49C1412.9 2025.62 1418.65 2047.11 1417.8 2066.02C1416.94 2084.92 1412.47 2098.02 1408.34 2109.2C1409.39 2125.27 1410.44 2141.34 1411.42 2157.48C1423.1 2350.74 1423.43 2553.62 1412.38 2747.4C1410.94 2772.75 1416.22 2813.6 1420.75 2794.11C1417.74 2804.51 1414.48 2817.19 1414.78 2832.53C1415.09 2847.87 1421.75 2857.2 1423.18 2842.78C1417.18 2857.39 1413.01 2882.22 1412.08 2908.91C1417.82 2912.19 1419.14 2948.47 1413.84 2957.44C1417.02 3011.27 1418.29 3066.68 1417.63 3121.77C1418.25 3147.41 1418.88 3173.05 1419.5 3198.69C1420.15 3221.23 1425.63 3246.79 1426.28 3269.33C1422.47 3425.02 1416.53 3578.63 1418.13 3734.87C1422.92 3778.47 1428.48 3794.88 1441 3793.22" fill="#B59D92"/>
<path d="M-12.0458 3739.42C5.95915 3657.94 16.1236 3542.66 6.90784 3453.4C4.11951 3426.4 7.68837 3369.29 16.7435 3345.58C20.0514 3336.92 20.6688 3322.2 18.1339 3311.42C-4.48892 3215.28 -2.27281 3088.28 24.6869 2998.08C24.7948 2997.72 24.7998 2997.18 24.6994 2996.79C13.014 2952.1 15.3632 2889.57 30.1631 2850.36C30.3539 2849.86 30.2987 2848.94 30.0628 2848.67C12.2436 2827.94 3.93128 2776.96 3.97896 2729.99C4.02916 2682.57 10.7528 2636.81 14.939 2590.41C22.1696 2510.28 21.8358 2427.13 17.3659 2345.88C15.0344 2303.49 14.1459 2249 30.1933 2230.08C30.4342 2229.8 30.4844 2228.84 30.2861 2228.36L17.1074 2196.27C17.0296 2196.08 16.9845 2195.8 16.982 2195.5C16.6457 2122.14 25.49 2048.68 42.1221 1986.67C42.24 1986.23 42.2124 1985.58 42.0618 1985.24C27.0485 1950.99 25.2742 1896.39 24.4635 1847.08C23.6504 1797.64 22.8397 1748.18 22.0265 1698.74C22.009 1697.62 22.5536 1697.23 22.6665 1698.29C22.9552 1701.04 17.4688 1697.42 17.6822 1689.69C18.9094 1645.34 20.1342 1600.98 21.3615 1556.62C21.3665 1556.4 21.3966 1556.19 21.4468 1556.03L37.459 1502.73C37.6447 1502.11 37.5142 1501.12 37.2381 1501.05C30.3438 1499.13 23.9114 1489.32 20.3601 1475.25C20.2371 1474.77 20.2898 1474.06 20.4655 1473.77L45.829 1431.39C46.0298 1431.04 46.0599 1430.2 45.8867 1429.75L29.1341 1385.47C29.0714 1385.3 29.0312 1385.07 29.0212 1384.82L19.429 1113.31C17.9306 1070.92 18.3297 1019.25 33.8475 997.536C27.1038 1008.47 17.8679 986.855 19.2382 967.833C20.591 949.037 27.6258 935.934 34.2114 924.776C34.3494 924.542 34.4121 924.05 34.3645 923.595C32.698 907.684 31.034 891.78 29.4905 875.8C10.7076 681.35 10.173 477.226 27.937 282.238C30.261 256.743 21.7781 215.64 14.4823 235.245C19.3235 224.776 24.5714 212.029 24.0795 196.587C23.6403 182.795 15.0469 173.833 11.5835 182.424C11.2748 183.189 11.6111 184.665 11.96 184.074C20.7441 169.359 26.8352 145.938 28.3662 120.784C28.4013 120.216 28.2683 119.694 28.08 119.603C19.2533 115.569 17.2354 80.6495 25.3018 71.2328C25.4649 71.0436 25.5552 70.5214 25.5076 70.0218C20.468 16.171 18.4451 -39.2467 19.5068 -94.3389C19.5068 -94.3995 19.5068 -94.4525 19.5042 -94.5131L16.5076 -171.807L13.3629 -239.707C13.3579 -239.791 13.3579 -239.874 13.3629 -239.957C19.4792 -396.468 2.08002 -510.558 -0.5 -667.599L-13.5 -667.153C-21.1547 -710.837 -12.0347 -712.916 -25 -739.599" fill="#B59D92"/>
<path d="M103.163 178.722C98.2725 178.662 93.405 179.139 88.65 180.07C83.895 181.016 79.26 182.454 74.82 184.308C65.955 188.063 57.87 193.565 51.3675 200.544C44.8275 207.53 39.615 215.773 34.41 224.091C29.19 232.409 23.8125 240.788 17.7075 248.698L12 256.092L12.69 246.684C13.3275 238.01 15.75 229.593 19.05 221.729C22.365 213.85 26.5425 206.455 31.035 199.393C35.5125 192.309 40.2375 185.474 44.745 178.571C49.26 171.676 53.655 164.758 57.255 157.461C60.8625 150.165 63.93 142.565 66.3225 134.739C66.615 133.763 66.96 132.794 67.215 131.802L67.995 128.835C68.25 127.844 68.5275 126.86 68.7675 125.861L69.42 122.856L70.095 119.851L70.635 116.823L71.175 113.788C71.3475 112.774 71.4525 111.752 71.595 110.738C73.8225 94.4496 73.4625 77.7373 70.4475 61.358C75.03 77.3664 76.5 94.3663 75.03 111.132C74.9325 112.176 74.8725 113.236 74.7525 114.28L74.355 117.414L73.95 120.547L73.41 123.666L72.855 126.777C72.645 127.806 72.3975 128.835 72.1725 129.865L71.475 132.953C71.25 133.982 70.935 134.989 70.665 136.011C68.4825 144.163 65.6175 152.155 61.9875 159.8C58.38 167.475 54.0525 174.718 49.5675 181.75C45.0525 188.774 40.395 195.624 36.0525 202.595C31.74 209.581 27.6375 216.643 24.465 224.061C21.27 231.463 19.08 239.236 18.315 247.161L13.2975 245.148C19.38 237.632 24.78 229.525 30.24 221.336C33 217.256 35.7825 213.154 38.775 209.165C41.7675 205.184 44.9625 201.286 48.6 197.781C55.845 190.734 64.605 185.383 74.0025 182.144C83.385 178.859 93.4275 177.648 103.163 178.722Z" fill="#B1BF91"/>
<path d="M110.388 131.542C109.368 139.437 107.838 147.286 105.888 155.029L105.153 157.935C104.898 158.904 104.613 159.858 104.343 160.819C103.788 162.742 103.278 164.672 102.648 166.571C102.025 168.471 101.44 170.386 100.765 172.271L98.7403 177.925C95.9578 185.433 92.6728 192.76 89.0653 199.92C85.4803 207.096 81.4378 214.036 77.0803 220.773C72.7228 227.517 67.9378 233.988 62.9728 240.202C58.0228 246.447 52.9978 252.578 48.0253 258.716C38.0203 270.94 28.4653 283.429 19.9153 296.622L16.0603 293.049C19.0603 290.809 22.0753 288.553 25.1428 286.366C28.2253 284.186 31.3528 282.051 34.5628 280.03C37.7728 278.009 41.0653 276.087 44.4553 274.338C47.8453 272.605 51.3628 271.076 54.9628 269.797C58.5628 268.525 62.2528 267.481 66.0103 266.807C69.7678 266.141 73.5853 265.808 77.3953 265.861C81.1978 265.914 84.9928 266.429 88.6603 267.383C92.3203 268.344 95.8078 269.744 99.2728 271.152C95.6728 270.138 92.0728 269.108 88.4278 268.488C84.7903 267.859 81.0928 267.731 77.4403 267.935C70.1203 268.344 62.9728 270.297 56.2303 273.105C52.8553 274.513 49.5928 276.17 46.4128 278.009C43.2253 279.818 40.1203 281.801 37.0753 283.89C34.0378 285.979 31.0603 288.197 28.1203 290.46C25.1653 292.708 22.2253 295.009 19.2778 297.318C18.1228 298.226 16.4578 298.014 15.5578 296.849C14.8603 295.94 14.8303 294.722 15.3928 293.798L15.4303 293.745C19.6228 286.918 24.0403 280.235 28.7878 273.809C33.5053 267.36 38.4253 261.085 43.3978 254.886C48.4003 248.71 53.5003 242.655 58.4353 236.509C60.9103 233.443 63.3328 230.348 65.6953 227.214L69.2053 222.506L72.5878 217.7C77.0053 211.228 81.0778 204.515 84.9178 197.665C88.7278 190.8 92.1928 183.723 95.3803 176.517L97.6753 171.067C98.4403 169.251 99.1078 167.397 99.8428 165.557C100.593 163.733 101.23 161.864 101.913 160.009C102.243 159.078 102.595 158.155 102.918 157.216L103.848 154.401C106.33 146.915 108.505 139.278 110.388 131.542Z" fill="#B1BF91"/>
<path d="M1364.58 0.328217C1364.46 7.9426 1365.53 15.4889 1367.54 22.7324C1369.5 29.9986 1372.44 36.9394 1375.78 43.6455C1382.57 57.0425 1391.21 69.4026 1400.01 81.7022C1404.4 87.8936 1408.76 94.1456 1412.88 100.602C1417.02 107.051 1420.81 113.764 1424.14 120.758C1427.43 127.759 1430.28 135.079 1432.03 142.746C1433.81 150.398 1434.58 158.361 1434 166.278L1433.29 175.898L1428.58 167.497C1426.23 163.303 1423.15 159.481 1419.51 156.158C1415.91 152.805 1411.79 149.921 1407.49 147.318C1398.87 142.133 1389.36 138.053 1380.17 133.065C1375.59 130.552 1371.09 127.752 1366.94 124.467C1365.91 123.634 1364.87 122.809 1363.89 121.916C1362.89 121.053 1361.94 120.13 1360.99 119.214C1359.13 117.337 1357.35 115.384 1355.71 113.318C1354.04 111.282 1352.54 109.109 1351.1 106.914C1350.41 105.794 1349.7 104.689 1349.09 103.524C1348.77 102.948 1348.44 102.381 1348.14 101.798L1347.26 100.042C1344.92 95.3491 1343.2 90.3763 1342 85.3202C1345.38 95.1523 1350.7 104.182 1357.59 111.675C1361.02 115.437 1364.86 118.775 1368.95 121.712C1371.02 123.165 1373.15 124.512 1375.34 125.776C1377.54 127.033 1379.8 128.191 1382.08 129.326C1386.64 131.597 1391.34 133.648 1396.05 135.783C1398.41 136.85 1400.78 137.932 1403.13 139.075C1405.48 140.218 1407.81 141.459 1410.11 142.761C1414.68 145.403 1419.16 148.37 1423.21 151.973C1425.24 153.766 1427.19 155.689 1428.93 157.816C1430.69 159.935 1432.26 162.221 1433.64 164.643L1428.22 165.862C1428.7 158.588 1427.94 151.253 1426.23 144.124C1424.5 136.994 1421.98 130.015 1418.83 123.286C1415.71 116.535 1411.99 110.04 1408.11 103.622C1404.21 97.211 1400.03 90.9288 1395.79 84.6617C1387.35 72.0594 1378.97 59.1618 1372.79 45.0684C1369.67 38.052 1367.21 30.7025 1365.67 23.1714C1364.18 15.6479 1363.68 7.88962 1364.58 0.328217Z" fill="#B1BF91"/>
<path d="M1353 177.818C1357.29 174.072 1362.74 171.634 1368.41 170.416C1371.26 169.772 1374.16 169.508 1377.08 169.439C1380 169.379 1382.93 169.576 1385.83 170.045C1391.61 170.953 1397.2 172.77 1402.51 175.056C1407.83 177.364 1412.89 180.134 1417.77 183.071L1413.49 186.803C1410.94 180.8 1407.06 175.283 1403.05 169.689C1399.03 164.111 1394.83 158.351 1391.67 151.826C1388.51 145.325 1386.63 138.263 1385.94 131.171C1385.29 124.071 1385.83 116.888 1387.8 110.182C1387.27 117.145 1387.64 124.048 1389.06 130.694C1390.43 137.339 1392.84 143.69 1396.08 149.495C1399.33 155.308 1403.57 160.606 1407.75 166.177C1411.93 171.725 1416.13 177.629 1418.96 184.456L1422.55 193.07L1414.69 188.188C1409.95 185.251 1405.18 182.45 1400.25 180.059C1395.33 177.659 1390.24 175.676 1384.96 174.39C1382.34 173.761 1379.66 173.307 1376.96 173.073C1374.25 172.83 1371.53 172.861 1368.8 173.073C1363.37 173.557 1357.96 175.048 1353 177.818Z" fill="#B1BF91"/>
<path d="M27.459 78.2324C29.2339 79.6606 30.15 81.8153 30.3158 83.871C30.476 85.9241 29.969 87.9007 29.3511 89.8007C27.4816 95.534 24.577 100.84 21.6097 106.08C20.8659 107.391 20.0977 108.725 18.9112 109.701C16.8565 111.381 13.598 111.757 10.8249 110.634C12.8862 115.681 15.1691 121.02 19.7945 124.527C21.8441 126.082 24.2258 127.168 26.5962 128.208C31.2826 130.262 36.0225 132.191 40.805 133.989C42.799 134.737 44.8393 135.474 46.9226 135.632C49.0059 135.79 51.1676 135.283 52.3926 133.878C48.7561 133.142 46.125 129.588 45.7124 126.245C45.2945 122.9 46.6012 119.762 48.1113 116.884C49.945 113.389 52.1151 110.072 54.2807 106.765C55.333 105.161 56.3922 103.543 57.8115 102.208C59.5639 100.557 61.8434 99.3853 64.3669 98.8367C64.7206 98.7567 65.1182 98.6688 65.2743 98.3718C65.4122 98.1126 65.3141 97.7865 65.2055 97.4961C63.2941 92.3465 58.3066 87.9741 52.6217 86.4632C50.7598 85.9697 48.8409 85.7625 46.9967 85.1903C43.5454 84.1249 40.5845 81.8712 37.3959 80.1473C34.2073 78.4235 30.292 77.1932 27.459 78.2324Z" fill="#FFE0AD"/>
<path d="M96.5189 96.0643C95.7303 95.5982 94.8268 95.3152 93.933 95.2635Z" fill="#FFE0AD"/>
<path d="M49.9147 84.2387C51.1431 82.1147 52.2698 79.8954 52.6492 77.4448C53.0263 74.999 52.5736 72.2707 50.8902 70.1077C51.1193 69.561 51.8497 69.3947 52.503 69.3191C53.0704 69.2547 53.6637 69.2201 54.224 69.4079C55.1075 69.7045 55.7459 70.5111 55.9867 71.3359C56.2352 72.1585 56.1542 72.9972 56.0318 73.8102C55.4172 77.9088 53.7443 81.7953 50.9849 84.8866C50.6073 85.3096 49.9005 85.7198 49.4242 85.2875C49.0573 84.9485 49.2447 84.405 49.571 84.1026C49.8996 83.7956 50.3454 83.5796 49.9147 84.2387Z" fill="#70634D"/>
<path d="M26.2968 78.3602C29.7223 75.7807 34.3493 74.3016 39.0417 75.045C43.7341 75.7885 48.3449 79.0325 49.7482 83.2579C49.9957 83.9988 50.2152 84.8539 50.943 85.2792C51.4815 85.596 52.1307 85.5709 52.7335 85.5583C55.6194 85.4977 58.6924 85.9687 61.2214 87.5441C65.6324 90.297 67.1962 95.8491 65.9442 100.199C65.1532 99.0405 64.6953 97.7046 63.7235 96.6565C62.7518 95.6084 60.9285 94.9648 59.9418 95.8042C59.6708 93.9537 59.185 91.7965 57.367 90.8068C56.2306 90.1852 54.837 90.2247 53.7098 90.6305C52.5773 91.0337 51.6527 91.7577 50.7536 92.4706C50.198 90.9192 48.3551 89.842 46.62 89.7406C44.8849 89.6393 43.2962 90.3638 42.0798 91.3602C41.8963 89.1042 40.9415 86.7507 39.0658 85.0997C37.19 83.4488 34.3203 82.6802 32.1864 83.5903C32.6937 82.2415 32.1648 80.5228 30.9057 79.4587C29.6389 78.3967 27.7362 78.0579 26.2968 78.3602Z" fill="#FF4A4A"/>
<path d="M10.4429 108.44C10.1496 112.135 9.86262 115.914 10.9181 119.635C11.9758 123.351 14.6505 127.066 18.5609 128.614C21.4457 129.756 24.7428 129.648 27.4044 131.241C28.727 132.033 29.7609 133.175 30.9424 134.15C32.9184 135.773 35.2875 136.9 37.623 137.999C39.7055 138.982 41.9085 139.994 44.1406 139.968C46.745 139.935 48.887 138.506 50.8364 137.1C51.9321 136.313 53.08 135.417 53.3099 134.116C51.3578 134.27 49.2982 134.286 47.4108 133.525C45.5235 132.763 43.8743 131.018 43.9352 129.216C42.2925 130.025 40.4682 130.863 38.5183 130.455C35.9096 129.911 34.1167 127.166 34.271 124.794C32.5956 125.726 30.2331 125.661 28.3852 124.622C26.5373 123.583 25.2866 121.622 25.2708 119.743C24.3982 121.573 21.3681 122.017 19.546 120.59C18.38 119.681 17.8135 118.264 17.7583 116.941C17.6976 115.616 18.0882 114.356 18.5242 113.142C17.3832 114.442 14.9217 114.317 13.318 113.174C11.7144 112.032 10.8904 110.16 10.4429 108.44Z" fill="#FF4A4A"/>
</g>
<defs>
<clipPath id="clip0_0_1">
<rect width="1440" height="4420.59" fill="white" transform="translate(0 -671)"/>
</clipPath>
</defs>
</svg>
