<svg width="375" height="675" viewBox="0 0 375 675" fill="none" xmlns="http://www.w3.org/2000/svg">
<g clip-path="url(#clip0_366_257)">
<rect width="375" height="3825" transform="translate(0 -3150)" fill="white"/>
<path d="M435.938 -2582H0V709H435.938V-2582Z" fill="url(#paint0_linear_366_257)"/>
<rect x="-1" y="653" width="320" height="100" fill="#ABA09B"/>
<path d="M-5.62525 576.266C-5.67226 576.267 -5.71928 576.267 -5.76632 576.267C-5.76632 574.415 -5.69816 574.749 -5.62525 576.266C5.09004 576.241 14.9821 573.35 20.8216 584.331C23.8338 589.995 28.4542 600.695 35.2305 601.982C51.862 605.141 69.5859 603.168 86.0906 607C92.6545 608.524 97.6834 616.587 104.187 616.587H117.396C122.438 616.587 124.785 614.503 129.317 613.451C134.655 612.212 138.431 614.804 143.126 616.587C147.744 618.342 151.651 618.2 156.677 618.2C167.862 618.2 178.67 613.361 190.298 613.361C200.05 613.361 209.163 612.998 218.773 611.659C227.129 610.495 234.272 603.685 242.788 603.685C249.898 603.685 257.622 602.072 265.173 602.072C274.133 602.072 282.626 610.136 291.847 610.136C301.077 610.136 307.369 607.418 316.119 605.387C323.647 603.639 328.859 596.559 335.416 592.753C345.916 586.659 357.252 581.809 369.38 581.105C371.037 581.009 376.89 577.17 377.099 581.105C377.513 588.878 377.099 596.794 377.099 604.581C377.099 613.795 374.659 620.094 377.871 629.49C379.965 635.613 378.643 643.982 378.643 650.456C378.643 666.001 381.116 682.203 381.817 697.945C382.06 703.404 381.36 715.562 384.047 720.614C387.639 727.37 379.993 717.452 378.986 714.611C376.905 708.741 375.121 708.688 369.61 708.525L369.38 708.518C355.974 708.118 343.666 705.635 330.185 709.414C315.475 713.537 301.821 719.81 286.701 723.033C273.76 725.792 261.276 728.658 248.62 732.71C240.835 735.203 232.888 740.578 224.605 740.774C213.529 741.037 202.405 741.775 191.327 742.477C175.253 743.495 159.344 744 143.126 744C120.29 744 97.1698 736.512 74.512 733.069C47.3427 728.94 18.2592 734.404 -4.56557 715.328C-11.4564 709.569 -12.4813 704.555 -13.3996 694.003C-14.9379 676.325 -13.4124 659.183 -10.0547 642.034C-6.96749 626.266 -7.6661 608.85 -5.76632 592.972C-5.27725 588.885 -5.46302 579.644 -5.62525 576.266Z" fill="#ABA09B"/>
<path d="M357.306 500C359.089 501.191 360.598 502.834 361.722 504.727C362.854 506.62 363.599 508.742 364.09 510.906C364.58 513.074 364.822 515.303 364.829 517.53C364.829 518.088 364.833 518.644 364.803 519.202L364.768 520.038L364.699 520.866L364.561 522.525C364.504 523.076 364.422 523.624 364.354 524.175C364.086 526.377 363.637 528.546 363.173 530.704C362.675 532.853 362.139 534.993 361.556 537.11C360.396 541.347 359.108 545.528 358.071 549.753L357.683 551.336L357.33 552.925C357.076 553.98 356.9 555.047 356.69 556.109C356.582 556.64 356.521 557.176 356.434 557.71C356.359 558.244 356.26 558.777 356.204 559.313L356.034 560.921C356.008 561.189 355.973 561.457 355.952 561.725L355.905 562.532L355.813 564.145L355.794 565.763L355.785 566.572L355.809 567.38L355.856 568.998C355.985 571.154 356.152 573.313 356.479 575.455C357.067 579.75 358.071 583.985 359.185 588.19C360.312 592.396 361.659 596.547 362.985 600.711L361.525 601.104C361.034 597.958 360.874 594.764 361.034 591.592C361.205 588.422 361.692 585.276 362.475 582.219C363.27 579.163 364.361 576.198 365.736 573.389L366.825 571.315L368.015 569.305L369.313 567.373L370.707 565.521L369.435 567.463L368.267 569.469L367.194 571.525L366.228 573.635C365.005 576.476 364.057 579.436 363.404 582.457C362.741 585.476 362.371 588.561 362.31 591.643C362.235 594.725 362.466 597.812 363.013 600.833L361.553 601.225C360.831 599.157 360.119 597.086 359.446 594.995C359.101 593.955 358.781 592.902 358.449 591.855C358.132 590.802 357.812 589.75 357.509 588.69C356.298 584.453 355.28 580.138 354.649 575.738C354.304 573.542 354.118 571.32 353.974 569.096L353.927 567.422L353.906 566.586L353.92 565.748L353.949 564.072L354.052 562.398C354.344 557.927 355.237 553.549 356.361 549.285C357.485 545.014 358.821 540.838 360.06 536.654C360.693 534.564 361.271 532.466 361.817 530.361C362.327 528.248 362.809 526.126 363.152 523.985C363.237 523.449 363.336 522.915 363.411 522.376L363.601 520.761L363.698 519.952L363.759 519.143C363.808 518.605 363.82 518.064 363.839 517.523C363.867 516.982 363.841 516.441 363.848 515.9C363.836 515.36 363.808 514.819 363.785 514.278C363.7 513.201 363.59 512.121 363.39 511.059L363.242 510.262C363.185 509.999 363.115 509.739 363.051 509.475C362.983 509.215 362.934 508.947 362.849 508.691L362.611 507.916C362.571 507.787 362.534 507.658 362.491 507.529L362.348 507.151L362.061 506.393C361.962 506.142 361.84 505.904 361.73 505.658C361.612 505.416 361.516 505.16 361.379 504.929C360.375 503.033 359.018 501.308 357.306 500Z" fill="#B1BF91"/>
<path d="M312.891 575.087C314.899 576.217 316.681 577.791 318.228 579.567C319.769 581.358 321.083 583.358 322.186 585.468C323.284 587.581 324.194 589.791 324.98 592.027C325.377 593.146 325.744 594.271 326.092 595.399C326.444 596.525 326.776 597.656 327.105 598.784L325.276 599.147C325.045 596.535 324.982 593.908 325.071 591.291C325.165 588.672 325.412 586.063 325.826 583.483L326.165 581.553L326.562 579.638L327.025 577.74L327.538 575.859C328.281 573.369 329.151 570.923 330.233 568.581C329.56 571.081 328.942 573.578 328.464 576.1L328.114 577.991L327.815 579.889L327.552 581.789L327.331 583.695C327.068 586.238 326.912 588.787 326.882 591.338C326.847 593.889 326.936 596.437 327.143 598.979L327.9 608.335L325.313 599.342L324.342 595.967C324.013 594.846 323.679 593.733 323.329 592.624C322.621 590.414 321.845 588.236 320.904 586.138C319.966 584.043 318.87 582.016 317.544 580.147C316.227 578.266 314.678 576.556 312.891 575.087Z" fill="#B1BF91"/>
<path d="M291.726 578.206C292.542 579.666 292.994 581.354 293.151 583.062C293.229 583.917 293.243 584.778 293.205 585.638C293.158 586.495 293.057 587.351 292.919 588.198C292.347 591.592 291.134 594.77 290.207 597.922C289.269 601.063 288.681 604.294 288.46 607.561C288.242 610.826 288.369 614.12 288.869 617.361L287.237 617.641C287.061 616.201 286.744 614.776 286.287 613.392C285.831 612.008 285.246 610.66 284.538 609.379C283.821 608.104 282.998 606.879 282.05 605.753C281.11 604.62 280.054 603.58 278.906 602.637C280.197 603.358 281.401 604.265 282.502 605.298C283.593 606.338 284.594 607.5 285.446 608.779C286.306 610.051 287.04 611.423 287.618 612.87C288.195 614.318 288.625 615.833 288.876 617.39L287.245 617.67C286.586 614.31 286.363 610.853 286.591 607.427C286.817 604.004 287.473 600.598 288.568 597.369C289.645 594.151 290.979 591.12 291.795 587.945C291.994 587.153 292.157 586.349 292.27 585.54C292.392 584.731 292.467 583.913 292.479 583.092C292.5 581.449 292.288 579.788 291.726 578.206Z" fill="#B1BF91"/>
<path d="M301.179 593.848C301.788 594.7 302.226 595.699 302.501 596.745C302.56 597.008 302.628 597.271 302.68 597.539C302.722 597.804 302.774 598.075 302.809 598.343C302.833 598.613 302.865 598.884 302.882 599.154C302.894 599.425 302.91 599.698 302.915 599.968C302.957 602.144 302.59 604.283 302.155 606.347C301.723 608.396 301.252 610.398 301.048 612.391C300.841 614.377 300.9 616.353 301.535 618.159L299.961 618.743C299.712 617.83 299.43 616.926 299.108 616.032L298.861 615.362L298.6 614.699L298.329 614.036L298.045 613.381C297.648 612.513 297.231 611.648 296.77 610.805C296.314 609.958 295.823 609.124 295.312 608.293C296.023 608.951 296.679 609.67 297.297 610.43C297.909 611.193 298.487 611.992 299.002 612.833L299.388 613.466L299.757 614.112L300.102 614.772L300.434 615.442C300.857 616.343 301.236 617.269 301.558 618.219L299.985 618.804C299.543 617.759 299.277 616.636 299.164 615.517C299.047 614.397 299.075 613.278 299.183 612.189C299.409 610.006 299.94 607.93 300.488 605.915C301.034 603.917 301.535 601.934 301.772 599.914C301.803 599.661 301.817 599.41 301.84 599.157C301.859 598.903 301.861 598.65 301.873 598.397C301.883 598.143 301.875 597.89 301.878 597.634C301.871 597.381 301.85 597.127 301.838 596.871C301.753 595.853 301.546 594.837 301.179 593.848Z" fill="#B1BF91"/>
<path d="M322.885 542.111C317.453 546.436 313.333 552.342 310.993 558.886L310.575 560.121C310.438 560.533 310.333 560.957 310.21 561.374L310.034 562C309.975 562.21 309.935 562.424 309.883 562.633L309.594 563.903L309.364 565.185C309.326 565.399 309.284 565.611 309.253 565.825L309.173 566.471C309.124 566.902 309.056 567.331 309.018 567.762L308.919 569.061C308.823 570.798 308.828 572.54 308.915 574.282C309.016 576.024 309.176 577.766 309.392 579.509C310.271 586.467 311.965 593.384 312.404 600.594C312.47 601.49 312.487 602.394 312.517 603.293C312.517 604.197 312.519 605.099 312.472 606.005C312.39 607.813 312.228 609.626 311.894 611.417C311.826 611.867 311.725 612.311 311.624 612.757C311.522 613.2 311.435 613.648 311.301 614.087C311.177 614.526 311.059 614.966 310.925 615.403L310.476 616.699C309.834 618.412 309.016 620.056 308.031 621.591L305.707 625.222L306.439 620.938C307.102 617.045 307.379 613.081 307.203 609.136C307.036 605.194 306.354 601.274 305.105 597.543C304.482 595.682 303.699 593.872 302.766 592.147C301.832 590.422 300.765 588.77 299.544 587.239C297.108 584.182 294.1 581.567 290.625 579.772C294.218 581.297 297.447 583.753 300.08 586.759C302.726 589.764 304.8 593.306 306.232 597.114C307.671 600.92 308.451 604.974 308.743 609.043C309.028 613.12 308.781 617.215 308.169 621.24L306.575 620.588C307.457 619.15 308.19 617.622 308.785 616.031L309.197 614.823C309.321 614.416 309.425 613.999 309.543 613.59C309.667 613.181 309.745 612.759 309.839 612.34C309.931 611.921 310.025 611.504 310.086 611.078C310.394 609.387 310.54 607.66 310.608 605.93C310.678 604.197 310.645 602.458 310.547 600.716C310.366 597.231 309.844 593.762 309.284 590.273C308.724 586.786 308.148 583.275 307.751 579.721C307.56 577.942 307.412 576.154 307.356 574.355C307.313 572.557 307.353 570.752 307.504 568.954L307.643 567.606C307.694 567.158 307.774 566.712 307.838 566.266L307.941 565.596C307.979 565.375 308.031 565.155 308.073 564.934L308.348 563.611L308.696 562.307C308.757 562.09 308.807 561.871 308.875 561.657L309.082 561.016C309.223 560.589 309.347 560.158 309.505 559.739L309.982 558.482C312.623 551.825 317.154 546.007 322.885 542.111Z" fill="#B1BF91"/>
<path d="M0.180029 506.016C-0.765259 508.199 -1.69644 510.392 -2.45126 512.641C-2.82749 513.766 -3.1614 514.904 -3.41536 516.059C-3.66462 517.214 -3.84333 518.383 -3.92092 519.553C-3.93268 519.845 -3.9609 520.138 -3.9609 520.432L-3.95855 521.31L-3.90447 522.184C-3.89036 522.477 -3.84333 522.764 -3.81511 523.054C-3.65991 524.211 -3.38714 525.349 -3.04148 526.468C-2.3572 528.707 -1.36959 530.851 -0.365512 532.997C1.6685 537.295 3.63433 541.632 5.5155 546.013C7.39667 550.394 9.16497 554.833 10.764 559.345C13.9972 568.348 16.4992 577.682 17.8419 587.236C19.1563 596.779 19.2622 606.572 17.6091 616.103L15.9536 615.869C16.1864 613.591 16.4192 611.306 16.6897 609.023C16.9671 606.74 17.2799 604.459 17.6585 602.186C18.037 599.913 18.4862 597.647 19.0341 595.405C19.5867 593.164 20.2498 590.949 21.0375 588.783C22.613 584.446 24.774 580.326 27.5581 576.708C28.9478 574.897 30.5092 573.233 32.2187 571.754C33.9259 570.275 35.8024 569.013 37.7893 568.005C33.9188 570.249 30.6644 573.46 28.0731 577.117C26.7727 578.947 25.6299 580.894 24.64 582.916C23.6476 584.938 22.7893 587.031 22.0816 589.173C21.3691 591.317 20.7883 593.51 20.2992 595.722C19.8053 597.934 19.4126 600.173 19.0834 602.425C18.7566 604.676 18.4932 606.939 18.2651 609.21C18.0276 611.481 17.8231 613.759 17.6185 616.04L15.9631 615.806C16.6897 611.135 17.0447 606.406 17.0212 601.672C17.0353 599.304 16.9083 596.938 16.7508 594.574C16.645 593.395 16.565 592.213 16.4216 591.037C16.3534 590.447 16.297 589.86 16.2217 589.27L15.9842 587.509C15.9113 586.921 15.8126 586.337 15.7256 585.752C15.6338 585.167 15.5515 584.58 15.4504 583.995C15.2412 582.828 15.0507 581.659 14.8085 580.499C14.3617 578.172 13.8185 575.862 13.2471 573.565C12.0667 568.974 10.7075 564.428 9.16732 559.94C7.63887 555.45 5.92936 551.022 4.16341 546.615C2.38335 542.212 0.502179 537.853 -1.3931 533.492C-2.33839 531.306 -3.28838 529.089 -3.93033 526.741C-4.24543 525.566 -4.48998 524.367 -4.6052 523.147C-4.62401 522.842 -4.66399 522.538 -4.66634 522.231L-4.6875 521.314L-4.65693 520.398C-4.64518 520.094 -4.60755 519.792 -4.58404 519.487C-4.45941 518.276 -4.23132 517.082 -3.92327 515.918C-3.61288 514.753 -3.22254 513.615 -2.79457 512.499C-2.36661 511.381 -1.88691 510.289 -1.38134 509.213C-0.875778 508.143 -0.34905 507.078 0.180029 506.016Z" fill="#B1BF91"/>
<path d="M64.4531 562.565C66.3578 563.993 68.1261 565.628 69.758 567.404L70.9549 568.764L72.1024 570.167L73.1935 571.622L74.2352 573.115C75.6014 575.125 76.8148 577.245 77.9176 579.421C79.0299 581.594 80.001 583.843 80.871 586.128C82.6323 590.694 83.9209 595.428 85.0378 600.179C86.1054 604.943 86.999 609.733 87.8102 614.523L86.1501 614.815L85.9643 612.988L85.8797 611.156L85.9055 609.323L86.0302 607.499C86.2583 605.072 86.745 602.677 87.4881 600.377L88.0853 598.669L88.7696 597L89.548 595.377L90.4086 593.803C91.6149 591.742 93.0446 589.832 94.6788 588.148C93.2445 590.017 92.0076 592.025 90.9847 594.135L90.2557 595.733L89.6114 597.368L89.0447 599.029L88.5603 600.715C87.9819 602.981 87.6103 605.296 87.481 607.62L87.4316 609.365L87.474 611.107L87.5986 612.842L87.8173 614.564L86.1571 614.857C85.1954 610.098 84.3136 605.333 83.2108 600.635C82.1549 595.925 80.8734 591.284 79.2909 586.759C78.4914 584.501 77.5908 582.284 76.6055 580.108C75.6132 577.934 74.5009 575.82 73.2899 573.766L72.3517 572.243L71.3664 570.752L70.3388 569.29L69.2595 567.867C67.7875 565.981 66.1862 564.21 64.4531 562.565Z" fill="#B1BF91"/>
<path d="M64.1646 571.373C65.0934 572.091 65.9705 572.9 66.7559 573.802C67.5248 574.715 68.2373 575.695 68.8369 576.75C69.4224 577.81 69.9468 578.916 70.3513 580.076C70.7345 581.24 71.052 582.437 71.2307 583.662C71.4024 584.888 71.5011 586.133 71.4306 587.38C71.4329 587.692 71.3835 588.001 71.3624 588.313C71.3342 588.625 71.3083 588.937 71.2566 589.242C71.1719 589.858 71.0543 590.467 70.9227 591.071C70.6569 592.28 70.3042 593.454 69.9115 594.602C69.5235 595.749 69.1073 596.877 68.7099 597.998C68.3102 599.116 67.9339 600.235 67.6024 601.351C67.2755 602.469 66.9957 603.585 66.8405 604.725C66.4643 606.994 66.4996 609.33 66.7088 611.65C67.1768 616.301 68.5148 620.874 69.8551 625.457L68.2726 625.754C68.202 623.632 68.4771 621.515 69.0109 619.49C69.5423 617.461 70.3748 615.531 71.4235 613.752C72.4676 611.971 73.7703 610.366 75.2399 608.969C76.7214 607.586 78.3862 606.426 80.1851 605.595C78.5038 606.655 76.9824 607.944 75.6679 609.42C74.3417 610.885 73.2365 612.541 72.3312 614.291C71.4306 616.045 70.7722 617.921 70.3442 619.839C69.9186 621.759 69.7728 623.732 69.8927 625.676L70.2854 631.975L68.3125 625.974C67.5648 623.698 66.8358 621.4 66.2127 619.056C65.6084 616.705 65.0934 614.308 64.8488 611.852C64.7971 611.235 64.7289 610.624 64.7124 610.003C64.7007 609.693 64.6795 609.384 64.6795 609.074L64.6842 608.141C64.6795 607.832 64.6983 607.52 64.7171 607.208L64.7736 606.275L64.877 605.344L64.9288 604.879L65.0087 604.416C65.3967 601.931 66.2362 599.596 67.0992 597.362C67.9692 595.123 68.851 592.935 69.46 590.694C69.6082 590.133 69.7446 589.57 69.8457 589.003C69.9068 588.72 69.9421 588.435 69.9797 588.15C70.0126 587.865 70.0714 587.58 70.0808 587.292L70.1396 586.427C70.1514 586.14 70.142 585.85 70.149 585.56C70.149 585.416 70.1561 585.27 70.1514 585.126L70.1279 584.693C70.109 584.403 70.1091 584.11 70.0714 583.823C69.9703 582.663 69.7399 581.518 69.4412 580.387C69.1355 579.259 68.7193 578.163 68.2326 577.096C67.7247 576.041 67.1345 575.025 66.4619 574.058C65.773 573.1 65.0064 572.206 64.1646 571.373Z" fill="#B1BF91"/>
<path d="M67.3665 563.768C65.1114 566.085 63.021 568.544 61.2856 571.229C59.5549 573.914 58.2522 576.84 57.2881 579.89C56.7896 581.411 56.4204 582.977 56.063 584.544L55.8161 585.728L55.5974 586.92C55.5198 587.314 55.454 587.714 55.3905 588.113C55.327 588.513 55.2565 588.91 55.2 589.312C54.7156 592.519 54.3864 595.764 54.0314 599.021L53.1543 607.059L52.303 599.048C52.1196 597.316 51.8868 595.586 51.6164 593.864C51.4753 593.003 51.3295 592.143 51.1743 591.283C51.0121 590.426 50.8451 589.568 50.6711 588.71L50.3936 587.429L50.0974 586.15L49.7917 584.873L49.4695 583.599C49.0274 581.903 48.5501 580.212 48.0469 578.521C48.8111 580.102 49.5024 581.725 50.1232 583.374L50.5794 584.617L51.0144 585.869L51.4189 587.134L51.8022 588.406L52.1666 589.685L52.5029 590.971L52.818 592.265L53.1049 593.566C53.4764 595.303 53.7821 597.058 54.0243 598.822L52.296 598.849C52.4182 597.211 52.5593 595.571 52.7239 593.929C52.8979 592.287 53.0884 590.645 53.3424 589.005C53.8479 585.728 54.5698 582.458 55.6915 579.311C56.2676 577.744 56.9025 576.194 57.6996 574.73C57.8807 574.355 58.1017 574.001 58.311 573.641C58.525 573.283 58.7249 572.92 58.9553 572.574C59.4044 571.874 59.8841 571.202 60.3874 570.549C62.3955 567.932 64.7822 565.681 67.3665 563.768Z" fill="#B1BF91"/>
<path d="M21.7415 533.689C21.6286 534.858 21.3605 536.021 20.9702 537.137C20.5845 538.255 20.0884 539.339 19.5099 540.365C18.3765 542.436 16.9892 544.329 15.6606 546.22C15.0022 547.17 14.3132 548.088 13.7159 549.066C13.4102 549.548 13.0975 550.025 12.8012 550.513L11.9547 552.004C10.8495 554.002 9.83601 556.061 9.02476 558.205L8.70496 559.002C8.6015 559.27 8.51449 559.542 8.41808 559.81C8.22997 560.351 8.03714 560.89 7.85373 561.433C7.53863 562.537 7.1671 563.621 6.91314 564.742L6.70386 565.577L6.59805 565.994L6.51104 566.416L6.16302 568.102C6.04545 568.664 5.97726 569.235 5.88085 569.802L5.74682 570.653C5.70214 570.938 5.67862 571.223 5.64335 571.508L5.44818 573.223L5.33296 574.946C5.28123 575.518 5.27417 576.096 5.26242 576.671L5.24361 577.533C5.2342 577.821 5.2295 578.108 5.24125 578.396L5.27652 580.123C5.27652 580.411 5.30004 580.698 5.3212 580.986L5.38234 581.848L5.43642 582.711C5.45288 582.998 5.49756 583.283 5.52578 583.571L5.72095 585.291L4.33124 585.272C4.64633 583.797 5.17542 582.379 5.89026 581.083C6.60275 579.787 7.47279 578.588 8.48862 577.55C9.50446 576.515 10.6379 575.608 11.8771 574.907C13.1116 574.198 14.4378 573.676 15.8017 573.391C14.4919 573.871 13.2574 574.532 12.1381 575.338C11.0211 576.152 10.0006 577.095 9.13058 578.164C8.25818 579.232 7.50806 580.396 6.9343 581.646C6.3629 582.894 5.94199 584.209 5.72095 585.554L5.05079 589.608L4.33124 585.537C3.91738 583.196 3.61874 580.823 3.54114 578.435C3.51998 578.138 3.51998 577.838 3.51998 577.541L3.51763 576.644C3.51528 576.047 3.50823 575.45 3.5482 574.853L3.63756 573.062L3.81391 571.279C4.08433 568.906 4.48643 566.545 5.10722 564.242C5.37999 563.08 5.75857 561.95 6.11129 560.812C6.30881 560.251 6.5181 559.693 6.72033 559.135C6.82379 558.858 6.9202 558.575 7.03071 558.3L7.37873 557.479C8.28405 555.281 9.39394 553.181 10.5979 551.149L11.5432 549.653C11.8747 549.165 12.2204 548.688 12.559 548.208L13.0693 547.489L13.6007 546.79C13.9581 546.329 14.3155 545.869 14.6824 545.421C16.145 543.62 17.6052 541.854 18.8891 539.953L19.3571 539.232L19.7968 538.494C20.079 537.994 20.3588 537.492 20.5963 536.966C21.076 535.928 21.4734 534.832 21.7415 533.689Z" fill="#B1BF91"/>
<path d="M130.078 590.238C131.247 591.062 132.397 591.922 133.443 592.95C134.473 593.981 135.414 595.201 135.957 596.663C136.507 598.115 136.683 599.653 136.817 601.107C136.888 601.838 136.944 602.557 137.038 603.254C137.078 603.605 137.154 603.946 137.21 604.289C137.262 604.635 137.346 604.974 137.424 605.315C138.073 608.034 139.246 610.612 140.679 613.048C142.104 615.492 143.759 617.822 145.424 620.173L143.792 620.774C143.735 618.747 144.022 616.723 144.601 614.808C145.175 612.89 146.042 611.082 147.133 609.447C148.241 607.827 149.551 606.358 151.063 605.171L152.222 604.321L153.442 603.583C153.868 603.373 154.289 603.159 154.714 602.957C155.154 602.788 155.591 602.618 156.029 602.459L154.818 603.169C154.435 603.439 154.049 603.697 153.666 603.958L152.582 604.83L151.561 605.771C150.256 607.084 149.116 608.556 148.217 610.166C146.397 613.365 145.426 617.064 145.607 620.699L145.758 623.698L143.978 621.301C142.256 618.984 140.554 616.608 139.082 614.038C137.619 611.474 136.406 608.67 135.839 605.678C135.769 605.305 135.693 604.932 135.656 604.552C135.613 604.175 135.555 603.797 135.534 603.419C135.475 602.664 135.456 601.926 135.437 601.197C135.392 599.748 135.35 598.335 134.972 597.016C134.593 595.708 133.89 594.478 133.001 593.379C132.119 592.268 131.089 591.261 130.078 590.238Z" fill="#B1BF91"/>
<path d="M160.653 590.238C161.213 591.751 161.733 593.286 162.092 594.887C162.438 596.485 162.624 598.171 162.391 599.865C162.281 600.708 162.062 601.548 161.756 602.343C161.453 603.137 161.06 603.88 160.651 604.596C159.819 606.027 158.899 607.33 158.09 608.665C157.272 610.005 156.529 611.392 155.854 612.812C155.17 614.228 154.565 615.682 154.02 617.161C152.943 620.122 152.139 623.189 151.652 626.313L151.262 628.815L150.013 626.673C149.465 625.735 149.087 624.707 148.861 623.669C148.814 623.408 148.748 623.15 148.717 622.889L148.621 622.112C148.586 621.596 148.548 621.082 148.548 620.575C148.543 619.559 148.595 618.557 148.659 617.575C148.722 616.594 148.779 615.621 148.816 614.659C148.847 613.699 148.83 612.744 148.732 611.803C148.616 610.868 148.431 609.932 148.13 609.028C147.833 608.122 147.445 607.245 146.975 606.407C146.505 605.568 145.943 604.781 145.312 604.043C146.049 604.665 146.73 605.374 147.314 606.17C147.61 606.565 147.878 606.982 148.134 607.408C148.379 607.842 148.612 608.285 148.811 608.746C149.221 609.664 149.536 610.634 149.729 611.635C149.914 612.637 150.011 613.648 150.055 614.652C150.131 616.654 150.011 618.626 150.133 620.516C150.215 622.409 150.61 624.212 151.52 625.677L149.881 626.037C150.321 622.768 151.121 619.547 152.273 616.467C152.842 614.925 153.51 613.421 154.246 611.959C154.993 610.502 155.819 609.089 156.715 607.727C157.601 606.348 158.615 605.106 159.464 603.809C160.308 602.511 161.025 601.163 161.331 599.662C161.646 598.166 161.655 596.573 161.472 594.992C161.302 593.41 160.971 591.827 160.653 590.238Z" fill="#B1BF91"/>
<path d="M212.456 608.286C211.673 609.036 211.017 609.869 210.493 610.755C210.366 610.978 210.246 611.207 210.124 611.43C210.013 611.66 209.912 611.895 209.808 612.126C209.71 612.358 209.625 612.597 209.533 612.83C209.451 613.067 209.388 613.31 209.312 613.547C208.8 615.476 208.807 617.5 209.413 619.329C210.02 621.174 211.191 622.874 212.355 624.657C212.934 625.552 213.517 626.475 214.008 627.469C214.502 628.459 214.902 629.529 215.087 630.649L213.728 630.195C214.478 629.631 215.172 628.991 215.788 628.282L216.24 627.742L216.661 627.177L217.06 626.595L217.427 625.99C217.886 625.168 218.283 624.305 218.577 623.399C218.878 622.496 219.08 621.557 219.198 620.591C219.341 621.555 219.332 622.544 219.2 623.525C219.059 624.506 218.807 625.481 218.419 626.415L218.114 627.111L217.768 627.793L217.373 628.452L216.94 629.092C216.331 629.929 215.621 630.707 214.81 631.393L213.761 632.281L213.451 630.939C213.016 629.066 211.911 627.345 210.758 625.585C210.182 624.701 209.585 623.802 209.054 622.841C208.522 621.882 208.052 620.859 207.758 619.767C207.168 617.573 207.375 615.252 208.224 613.217C208.339 612.965 208.445 612.712 208.567 612.464C208.701 612.221 208.826 611.977 208.964 611.74C209.119 611.51 209.268 611.277 209.425 611.052C209.597 610.832 209.761 610.613 209.935 610.4C210.648 609.559 211.501 608.833 212.456 608.286Z" fill="#B1BF91"/>
<path d="M200.391 604.954C201.571 606.613 202.429 608.528 203.05 610.504C203.194 611.001 203.351 611.498 203.483 612C203.6 612.505 203.727 613.009 203.838 613.516L204.144 615.038C204.235 615.548 204.327 616.057 204.407 616.566C204.736 618.603 204.983 620.637 205.289 622.642C205.594 624.645 205.952 626.624 206.493 628.526L204.997 628.071C205.813 627.303 206.38 626.192 206.836 624.955C207.071 624.338 207.292 623.693 207.532 623.03L207.92 622.041C208.054 621.712 208.172 621.378 208.329 621.061C209.488 618.481 210.97 616.062 212.745 613.908C214.528 611.761 216.571 609.859 218.819 608.285C221.076 606.728 223.522 605.48 226.083 604.676C223.698 605.933 221.462 607.415 219.426 609.13C219.172 609.344 218.927 609.574 218.678 609.793C218.433 610.017 218.175 610.226 217.944 610.468C217.474 610.94 216.987 611.393 216.545 611.891L215.868 612.621L215.224 613.384C214.782 613.879 214.398 614.427 213.987 614.948C212.397 617.08 211.073 619.407 210.018 621.851C209.876 622.15 209.768 622.467 209.644 622.777L209.284 623.71C209.058 624.343 208.842 625.001 208.585 625.669C208.332 626.336 208.04 627.013 207.659 627.674C207.287 628.334 206.803 628.97 206.215 629.504L205.11 630.51L204.72 629.05C204.174 627.006 203.859 624.933 203.631 622.876C203.403 620.818 203.259 618.773 203.078 616.744L202.933 615.226L202.759 613.715C202.69 613.214 202.61 612.716 202.538 612.215L202.269 610.723C202.164 610.231 202.041 609.742 201.928 609.247L201.51 607.788L200.997 606.355L200.391 604.954Z" fill="#B1BF91"/>
<path d="M207.422 583.019C208.941 583.604 210.314 584.617 211.462 585.843C212.609 587.076 213.547 588.511 214.309 590.029C214.695 590.789 215.031 591.571 215.339 592.36C215.64 593.152 215.915 593.954 216.172 594.756C216.43 595.557 216.67 596.361 216.91 597.16L217.608 599.548C218.079 601.132 218.612 602.659 219.238 604.153C219.866 605.646 220.581 607.099 221.375 608.502C222.967 611.309 224.91 613.899 227.113 616.223L225.641 616.728L225.907 615.339L226.243 613.969L226.64 612.62L227.106 611.294L227.633 609.996L228.214 608.726L228.851 607.486L229.552 606.287L230.304 605.125L231.106 604.002C231.388 603.639 231.677 603.283 231.964 602.925L232.869 601.894C234.104 600.552 235.47 599.348 236.942 598.325C235.649 599.58 234.466 600.932 233.399 602.365L232.623 603.456C232.38 603.831 232.14 604.209 231.896 604.579L231.209 605.727L230.577 606.904L229.996 608.105L229.457 609.323L228.973 610.566L228.545 611.828L228.171 613.107L227.847 614.396L227.581 615.699L227.369 617.01L227.097 618.699L225.897 617.515C223.506 615.154 221.432 612.442 219.765 609.484C218.93 608.005 218.194 606.468 217.566 604.882C216.926 603.303 216.442 601.653 216.014 600.03C215.8 599.217 215.596 598.405 215.396 597.596C215.203 596.785 215.01 595.981 214.801 595.184C214.594 594.388 214.373 593.596 214.126 592.818C213.884 592.036 213.625 591.266 213.317 590.518C213.011 589.768 212.659 589.037 212.278 588.326C211.892 587.614 211.466 586.925 210.98 586.284C210.011 584.99 208.828 583.855 207.422 583.019Z" fill="#B1BF91"/>
<path d="M256.099 592.28C256.892 594.508 259.076 595.872 261.245 596.638C263.414 597.404 265.733 597.768 267.761 598.869C270.231 600.214 272.052 602.529 273.798 604.783C275.171 606.553 276.544 608.323 277.916 610.093C278.399 610.716 278.898 611.363 279.108 612.136C279.471 613.464 278.913 614.88 278.167 616.02C275.146 620.641 269.407 622.333 264.085 623.197C260.455 623.785 256.788 624.145 253.118 624.272C251.262 624.337 249.366 624.334 247.605 623.723C244.251 622.557 236.099 625.139 240.919 615.747C242.58 612.512 240.214 608.463 240.753 604.841C241.255 601.464 242.019 598.067 243.665 595.108C245.31 592.147 247.95 589.646 251.159 588.86C252.115 588.626 253.146 588.551 254.061 588.918C256.127 589.747 256.832 592.351 257.261 594.602C257.729 594.852 258.343 594.738 256.099 592.28Z" fill="#F0E4E4"/>
<path d="M287.748 630.858C290.487 628.095 294.872 628.53 298.664 629.027C299.244 629.101 299.909 629.15 300.338 628.741C300.94 628.166 300.68 627.137 300.335 626.367C299.003 623.386 297.091 620.684 294.75 618.469C294.405 618.141 294.029 617.813 293.571 617.712C293.026 617.589 292.468 617.81 291.976 618.082C288.265 620.138 286.955 624.886 285.995 629.134C285.876 629.67 285.782 630.312 286.162 630.699C286.651 631.196 287.494 630.832 287.973 630.326C288.453 629.816 288.87 629.15 287.748 630.858Z" fill="#F0E4E4"/>
<path d="M113.722 636.982C115.408 629.502 120.507 622.929 127.196 619.616C127.817 619.311 128.494 619.022 129.171 619.142C129.807 619.253 130.33 619.698 130.847 620.097C135.085 623.367 140.579 624.222 145.372 626.527C150.471 628.979 154.784 633.153 157.498 638.255C157.639 638.521 157.78 638.8 157.799 639.106C157.837 639.739 157.345 640.272 156.831 640.613C153.944 642.535 150.202 641.006 146.835 640.311C138.561 638.599 130.199 642.379 121.771 642.788C119.934 642.879 117.991 642.775 116.436 641.759C114.881 640.742 113.377 638.515 113.722 636.982Z" fill="#F0E4E4"/>
<path d="M316.641 619.177C312.253 611.145 314.892 600.857 322.837 595.011C324.809 593.56 327.075 592.355 328.717 590.643C332.904 586.282 332.218 579.585 336.7 575.428C337.151 575.009 337.716 574.603 338.389 574.597C339.029 574.594 339.577 574.951 340.06 575.298C345.012 578.884 348.889 583.486 351.249 588.581C353.055 592.475 354.146 596.859 357.831 599.691C359.32 600.834 361.17 601.662 362.414 602.991C363.36 604.004 363.89 605.238 364.401 606.449C367.673 614.192 369.384 617.384 372.657 625.126C364.323 624.782 356.02 629.283 347.673 626.458C344.743 625.467 342.163 623.808 339.139 623.035C336.468 622.353 333.616 622.398 330.823 622.453C324.812 622.57 318.8 622.687 312.789 622.804C315.142 621.554 316.782 619.44 316.641 619.177Z" fill="#F0E4E4"/>
<path d="M60.9375 617.838C55.3842 612.84 50.2216 607.248 45.5437 601.154C44.1147 599.297 42.7001 597.355 40.8623 596.076C37.9572 594.055 34.4009 593.937 31.0218 593.873C27.8454 593.814 24.6038 593.764 21.5685 594.857C18.5331 595.954 15.6823 598.406 14.6766 601.922C14.0724 604.028 14.1556 606.387 13.2909 608.367C12.5999 609.941 11.3844 611.093 10.2773 612.3C7.44818 615.386 5.1364 619.117 3.51562 623.223C7.10449 621.704 10.7874 620.163 14.6042 620.201C17.039 620.227 19.4304 620.893 21.8 621.556C25.284 622.531 28.7679 623.506 32.2483 624.485C33.4639 624.827 34.7011 625.169 35.9529 625.127C37.523 625.072 39.028 624.418 40.5077 623.81C46.8642 621.197 53.4486 619.357 60.9375 617.838Z" fill="#F0E4E4"/>
<path d="M71.7436 626.563C72.7215 624.829 73.2105 622.854 73.8467 620.954C74.483 619.058 75.3198 617.145 76.7992 615.846C78.2786 614.547 80.5416 614.021 82.1871 615.083C82.7889 615.472 83.2653 616.034 83.7292 616.586C85.1145 618.233 86.4999 619.879 87.8852 621.529C89.2455 623.143 90.6998 625.17 90.1106 627.226C89.8504 628.138 89.2048 628.888 88.4776 629.47C85.8166 631.587 82.1652 631.658 78.8177 631.395C75.4703 631.132 71.9818 630.642 68.8569 631.915C70.1577 629.054 71.6715 626.297 71.7436 626.563Z" fill="#F0E4E4"/>
<path d="M81.7166 616.411C82.8158 616.207 83.947 616.595 84.8143 617.244C85.6789 617.894 86.3134 618.78 86.8843 619.684C88.6054 622.413 89.8467 625.402 91.0434 628.393C91.3422 629.142 91.6429 629.908 91.6761 630.715C91.7297 632.109 90.904 633.524 89.6274 634.227C92.2519 635.168 95.0589 636.123 97.8379 635.518C99.0695 635.25 100.214 634.688 101.337 634.115C103.557 632.981 105.742 631.782 107.888 630.521C108.783 629.995 109.686 629.446 110.373 628.68C111.059 627.913 111.504 626.885 111.312 625.913C109.931 627.092 107.73 626.894 106.277 625.895C104.821 624.898 103.964 623.292 103.271 621.697C102.429 619.76 101.76 617.752 101.092 615.749C100.769 614.776 100.442 613.797 100.336 612.773C100.203 611.508 100.42 610.203 100.957 609.017C101.03 608.85 101.115 608.662 101.043 608.498C100.981 608.353 100.822 608.279 100.674 608.22C98.0538 607.185 94.8222 607.632 92.5201 609.349C91.7666 609.912 91.11 610.596 90.3306 611.125C88.874 612.115 87.0916 612.5 85.4517 613.158C83.8119 613.816 82.1509 614.933 81.7166 616.411Z" fill="#FFE0AD"/>
<path d="M110.698 595.171C110.265 595.327 109.872 595.597 109.576 595.946Z" fill="#FFE0AD"/>
<path d="M91.2319 610.09C90.7636 608.885 90.2282 607.686 89.3832 606.699C88.5394 605.714 87.3416 604.955 86.0033 604.868C85.8572 604.592 86.0067 604.251 86.169 603.971C86.3104 603.728 86.4711 603.485 86.7089 603.332C87.0841 603.09 87.5863 603.118 87.9789 603.307C88.3729 603.492 88.6764 603.811 88.9578 604.137C90.3769 605.781 91.4025 607.764 91.7989 609.896C91.8531 610.188 91.8057 610.603 91.4972 610.641C91.2571 610.667 91.1 610.408 91.0778 610.177C91.0545 609.944 91.1011 609.697 91.2319 610.09Z" fill="#70634D"/>
<path d="M81.5759 617.389C81.554 615.055 82.346 612.632 84.0683 610.993C85.7907 609.354 88.5128 608.661 90.6679 609.63C91.0463 609.8 91.4629 610.022 91.857 609.881C92.1495 609.777 92.3354 609.504 92.5124 609.254C93.3595 608.057 94.4809 606.978 95.8904 606.524C98.351 605.732 101.098 607.12 102.502 609.216C101.788 609.115 101.103 608.815 100.38 608.828C99.6567 608.841 98.8422 609.349 98.8879 610.056C98.0479 609.492 97.0173 608.903 96.0626 609.282C95.4646 609.518 95.0597 610.1 94.8854 610.706C94.7084 611.314 94.7257 611.955 94.7461 612.581C93.9426 612.241 92.9445 612.598 92.3787 613.267C91.813 613.937 91.6298 614.848 91.6705 615.706C90.6908 614.958 89.4381 614.488 88.195 614.65C86.9519 614.811 85.77 615.699 85.4981 616.899C85.0988 616.201 84.2348 615.79 83.4185 615.914C82.6006 616.042 81.887 616.693 81.5759 617.389Z" fill="#FF4A4A"/>
<path d="M88.0552 633.256C89.4811 634.725 90.9436 636.221 92.788 637.15C94.6311 638.075 96.9623 638.342 98.7788 637.313C100.119 636.555 101.072 635.172 102.529 634.669C103.254 634.419 104.034 634.415 104.791 634.289C106.054 634.077 107.232 633.523 108.388 632.972C109.421 632.483 110.502 631.954 111.166 631.035C111.939 629.962 112.001 628.568 112.014 627.26C112.023 626.526 112.003 625.732 111.538 625.163C111.012 626.015 110.396 626.86 109.513 627.351C108.63 627.842 107.416 627.876 106.696 627.194C106.531 628.159 106.323 629.208 105.567 629.854C104.555 630.718 102.888 630.446 101.962 629.517C101.838 630.541 101.097 631.479 100.112 631.853C99.1278 632.227 97.9459 632.02 97.1709 631.341C97.6572 632.364 96.9235 633.761 95.7875 633.983C95.0624 634.126 94.3103 633.839 93.7515 633.379C93.1899 632.92 92.7917 632.301 92.4256 631.68C92.6136 632.62 91.8183 633.577 90.8652 633.813C89.9121 634.05 88.8957 633.702 88.0552 633.256Z" fill="#FF4A4A"/>
<path d="M46.1375 608.866C43.8718 612.339 39.9364 614.019 36.1822 615.485C35.888 615.602 35.5796 615.718 35.2591 615.699C34.9448 615.681 34.6443 615.539 34.3526 615.399C33.7917 615.129 33.2342 614.861 32.6733 614.59C32.3236 614.423 31.9642 614.252 31.588 614.214C31.1684 614.174 30.7638 614.303 30.368 614.433C26.6959 615.643 23.0645 616.967 19.4755 618.402C19.3211 618.465 19.1613 618.529 19.049 618.657C18.9479 618.772 18.8963 618.926 18.8562 619.08C18.4647 620.494 18.6454 622.054 19.0163 623.525C19.3871 624.996 19.9445 626.419 20.3146 627.887C20.8265 629.909 21.057 632.152 22.4295 633.695C22.5496 633.831 22.6858 633.963 22.8513 634.021C22.995 634.072 23.1452 634.059 23.2928 634.047C24.6994 633.924 26.1061 633.802 27.5108 633.682C28.1616 633.627 28.8277 633.564 29.4123 633.283C30.383 632.812 31.0282 631.779 32.0318 631.381C33.2286 630.904 34.602 631.44 35.8804 631.816C36.897 632.112 37.9353 632.304 38.9738 632.364C40.2542 632.437 41.5223 632.305 42.7869 632.171C45.5713 631.88 48.3566 631.591 51.1437 631.299C51.3983 631.271 51.6708 631.237 51.8548 631.056C52.1309 630.78 52.0928 630.298 52.0239 629.885C51.0607 623.935 48.5054 618.283 47.438 612.347C47.2098 611.078 46.9977 609.695 46.1375 608.866Z" fill="#FFEEA3"/>
<path d="M46.2896 609.207C45.1137 610.395 43.9345 611.581 42.7586 612.769C42.6675 612.859 42.5746 612.953 42.5222 613.075C42.4542 613.232 41.9794 612.781 41.9778 612.96C41.9865 614.921 42.4673 617.517 42.476 619.477C43.0996 618.914 43.3664 618.013 43.6234 617.157C44.4369 614.452 45.37 611.804 46.2896 609.207Z" fill="#EDDA82"/>
<path d="M39.6659 632.464C38.0548 632.256 36.4417 632.019 34.8329 631.757C34.1116 631.639 33.3671 631.507 32.7253 631.082C32.1349 630.692 31.6833 630.091 31.2237 629.523C30.0598 628.078 28.7614 626.756 27.3598 625.591C28.5731 625.68 29.7891 625.831 31.0035 626.039C31.9081 626.195 32.8265 626.392 33.6741 626.835C34.3434 627.186 34.9518 627.684 35.5387 628.196C37.0746 629.529 38.5319 630.985 39.6659 632.464Z" fill="#EDDA82"/>
<path d="M35.3293 616.052C35.6165 617.112 35.9029 618.169 36.1875 619.23C34.6877 617.841 33.3399 616.25 32.1876 614.511C33.4537 614.563 35.0722 615.096 35.3293 616.052Z" fill="#FFFAD1"/>
<path d="M41.3569 623.079C40.8845 625.689 40.6788 628.387 40.7463 631.102C40.7593 631.625 40.6685 632.297 40.194 632.332C39.8521 632.357 39.5634 632.002 39.334 631.694C38.1129 630.039 36.6453 628.589 35.017 627.437C36.9989 625.711 39.0667 624.099 41.3569 623.079Z" fill="#FFFAD1"/>
<path d="M32.2589 631.285C30.9624 631.746 29.7998 632.568 28.9005 633.659C28.6425 633.258 28.5289 632.779 28.4235 632.311C27.9174 630.062 27.4931 627.794 27.1543 625.522C29.0812 627.128 30.8022 629.048 32.2589 631.285Z" fill="#FFFAD1"/>
<path d="M51.636 611.265C52.0457 611.011 52.501 610.806 52.9951 610.814C53.4884 610.818 54.0266 611.068 54.3177 611.544C54.526 611.883 54.5902 612.299 54.5644 612.683C54.5386 613.066 54.4285 613.428 54.3227 613.786C54.1626 614.312 54.0058 614.84 53.8456 615.366C53.8256 615.432 53.8038 615.501 53.7529 615.543C53.702 615.584 53.6299 615.588 53.5623 615.577C53.181 615.527 52.8646 615.168 52.6426 614.798C52.2828 614.199 52.0689 613.52 51.8615 612.855C51.7757 612.578 51.6867 612.29 51.7204 612.015C51.7504 611.757 51.8694 611.458 51.636 611.265Z" fill="#516D85"/>
<path d="M52.0376 609.021C50.9844 609.028 49.9284 608.974 48.8712 608.853C49.8946 616.009 51.9838 623.014 54.0654 629.977C54.926 629.455 55.7873 628.935 56.6503 628.413C56.7426 628.358 56.84 628.294 56.8766 628.183C56.9098 628.079 56.882 627.96 56.8539 627.849C55.2815 621.567 53.6422 615.307 52.0376 609.021Z" fill="#5E88AB"/>
<path d="M48.3774 607.691L54.0046 631.021L52.4789 632.281L46.2792 607.352L48.3774 607.691Z" fill="#516D85"/>
<path d="M337.212 614.572L323.624 609.866L316.269 629.138L329.857 633.844L337.212 614.572Z" fill="#BFBFBF"/>
<path d="M336.706 614.251C335.977 614.03 335.389 613.475 334.979 612.811C334.569 612.147 334.32 611.376 334.114 610.6C333.8 609.429 333.571 608.226 333.428 607.004C333.311 606.016 333.253 605.015 333.102 604.037C333.002 603.396 332.833 602.711 332.337 602.356C331.947 602.077 331.432 602.059 330.946 602.079C330.487 602.097 330.018 602.146 329.593 602.354C329.193 602.548 328.855 602.876 328.577 603.245C327.451 604.744 327.396 606.885 328.112 608.507C328.828 610.129 330.198 611.295 331.68 612.138C333.161 612.98 334.782 613.547 336.316 614.288C336.45 614.358 336.664 614.394 336.706 614.251Z" fill="#BFBFBF"/>
<path d="M335.073 621.143L320.764 615.921L335.073 621.143ZM335.264 620.613L320.955 615.391C320.702 615.298 320.41 615.461 320.305 615.752C320.2 616.043 320.321 616.358 320.573 616.45L334.882 621.672C335.135 621.765 335.427 621.602 335.532 621.311C335.637 621.02 335.517 620.706 335.264 620.613Z" fill="#6B6B6B"/>
<path d="M333.104 626.696L318.795 621.475L333.104 626.696ZM333.295 626.167L318.986 620.945C318.733 620.852 318.441 621.015 318.336 621.306C318.231 621.597 318.351 621.912 318.604 622.004L332.913 627.226C333.166 627.319 333.458 627.156 333.563 626.865C333.668 626.574 333.547 626.259 333.295 626.167Z" fill="#6B6B6B"/>
<path d="M337.334 614.761L323.024 609.539L337.334 614.761ZM337.525 614.231L323.215 609.009C322.963 608.917 322.67 609.079 322.565 609.371C322.46 609.662 322.581 609.976 322.833 610.069L337.143 615.291C337.395 615.383 337.688 615.221 337.793 614.93C337.898 614.638 337.777 614.324 337.525 614.231Z" fill="#6B6B6B"/>
<path d="M330.594 633.787L316.285 628.565L330.594 633.787ZM330.785 633.257L316.476 628.035C316.223 627.942 315.931 628.105 315.826 628.396C315.721 628.688 315.842 629.002 316.094 629.094L330.404 634.316C330.656 634.409 330.948 634.247 331.053 633.955C331.158 633.664 331.038 633.35 330.785 633.257Z" fill="#6B6B6B"/>
<path d="M333.631 625.219L319.321 619.998L333.631 625.219ZM333.822 624.69L319.512 619.468C319.259 619.375 318.967 619.538 318.862 619.829C318.757 620.12 318.878 620.435 319.13 620.527L333.44 625.749C333.692 625.842 333.985 625.679 334.09 625.388C334.195 625.097 334.074 624.782 333.822 624.69Z" fill="#6B6B6B"/>
<path d="M334.111 623.861L319.801 618.638L334.111 623.861ZM334.302 623.331L319.992 618.109C319.74 618.016 319.448 618.179 319.343 618.47C319.238 618.761 319.358 619.075 319.611 619.168L333.92 624.39C334.173 624.483 334.465 624.32 334.57 624.029C334.675 623.738 334.554 623.424 334.302 623.331Z" fill="#6B6B6B"/>
<path d="M334.592 622.501L320.282 617.279L334.592 622.501ZM334.782 621.972L320.473 616.75C320.22 616.657 319.928 616.82 319.823 617.111C319.718 617.402 319.839 617.716 320.091 617.809L334.401 623.031C334.653 623.123 334.945 622.961 335.05 622.67C335.155 622.378 335.035 622.064 334.782 621.972Z" fill="#6B6B6B"/>
<path d="M170.113 638.924C168.976 639.049 167.835 638.258 167.136 637.232C166.435 636.204 166.092 634.97 165.772 633.763C164.619 629.412 163.595 625.029 162.7 620.622C162.306 618.676 161.936 616.708 161.964 614.744C162.016 611.166 163.384 607.838 163.682 604.288C163.902 601.64 163.553 598.764 164.946 596.573C165.03 595.909 165.117 595.245 165.2 594.581C165.452 595.055 165.704 595.529 165.955 596.003C166.029 595.127 166.104 594.253 166.177 593.377C166.641 595.381 167.308 597.345 168.163 599.218C168.159 598.566 168.156 597.918 168.152 597.266C168.507 597.951 168.86 598.632 169.215 599.316C169.115 598.481 169.014 597.646 168.913 596.807C169.475 598.021 170.188 599.167 171.021 600.195C170.889 599.084 170.756 597.971 170.624 596.86C171.254 597.851 171.888 598.845 172.518 599.836C172.408 598.446 172.302 597.058 172.193 595.668C173.013 597.517 173.837 599.368 174.657 601.217C174.942 601.857 175.229 602.503 175.634 603.064C176.025 603.603 176.511 604.047 176.972 604.517C181.253 608.898 183.01 615.262 184.577 621.286C185.267 623.939 185.958 626.589 186.565 629.26C186.875 630.621 187.163 632.04 186.907 633.376C186.651 634.712 185.702 635.953 184.422 636.025" fill="#4E8F3C"/>
<path d="M200.412 619.656C203.38 620.233 205.862 622.528 208.643 623.881C210.397 624.736 212.274 625.216 214.166 625.62C213.164 627.436 212.801 629.669 213.151 631.823C206.364 628.362 198.729 627.699 191.457 628.337C193.013 628.075 194.515 627.555 195.897 626.799C195.238 626.166 194.448 625.688 193.612 625.413C194.399 625.382 195.186 625.348 195.974 625.317C194.073 624.742 192.278 623.666 190.807 622.208C192.045 622.446 193.3 622.539 194.539 622.482C193.827 621.595 192.948 620.86 191.975 620.342C192.796 620.268 193.631 620.324 194.452 620.497C193.135 619.868 191.912 618.991 190.857 617.92C193.73 619.379 196.735 620.512 199.799 621.287C199.495 620.929 199.192 620.571 198.889 620.213C199.567 620.411 200.248 620.608 200.926 620.805C200.733 620.531 200.538 620.25 200.412 619.656Z" fill="#4E8F3C"/>
<path d="M161.447 618.626C165.248 618.713 169.072 618.802 172.759 618.14C176.447 617.482 180.029 616.026 182.691 613.341C183.679 617.033 184.664 620.729 185.653 624.425C185.924 625.441 186.195 626.523 185.923 627.479C185.564 628.739 184.377 629.403 183.257 629.883C178.113 632.088 172.312 632.741 166.594 631.767C166.09 631.682 165.552 631.566 165.154 631.18C164.78 630.819 164.6 630.285 164.444 629.78C163.301 626.138 162.346 622.443 161.447 618.626Z" fill="#F0D586"/>
<path d="M214.353 625.05C214.044 625.253 213.875 625.63 213.744 625.999C213.341 627.136 213.184 628.382 213.136 629.633C213.11 630.229 213.117 630.861 213.393 631.412C213.666 631.959 214.295 632.369 214.779 632.143C215.051 632.019 215.218 631.731 215.355 631.447C215.965 630.152 216.137 628.58 215.831 627.071C215.741 626.631 215.609 626.189 215.36 625.818C215.11 625.447 214.722 625.154 214.353 625.05Z" fill="#9CC295"/>
<path d="M235.727 608.62C235.838 609.136 236.419 609.273 236.891 609.084C237.363 608.894 237.764 608.476 238.187 608.131C239.813 606.807 241.832 606.541 243.577 606.928C245.322 607.319 246.85 608.291 248.355 609.255C250.498 610.628 252.642 611.999 254.782 613.371C255.603 613.898 256.444 614.441 256.996 615.313C257.549 616.186 257.753 617.472 257.238 618.567C257.05 618.969 256.776 619.322 256.606 619.729C256.435 620.137 256.388 620.652 256.642 620.914C256.746 621.022 256.887 621.073 257.027 621.115C259.223 621.79 261.887 621.015 263.877 619.118C264.38 618.64 264.856 618.084 265.44 617.795C265.919 617.558 266.423 617.524 266.91 617.522C268.559 617.516 270.223 617.894 271.367 619.081C272.511 620.268 272.997 622.402 272.182 624.231C271.615 625.504 270.506 626.507 270.165 627.85C269.839 629.126 270.29 630.43 269.851 631.682C269.532 632.593 268.783 633.293 267.998 633.662C267.216 634.029 266.394 634.115 265.593 634.163C263.251 634.307 260.932 634.188 258.683 633.808C258.385 633.758 258.084 633.701 257.83 633.544C256.622 632.803 257.047 630.391 256.031 629.359C255.597 628.919 254.967 628.807 254.356 628.757C253.344 628.674 252.307 628.724 251.268 628.905C250.551 629.029 249.818 629.217 249.134 629.102C247.19 628.777 246.367 626.241 244.665 625.278C244.46 625.162 244.231 625.068 243.987 625.11C243.259 625.238 242.943 626.324 242.478 627.052C241.946 627.881 241.06 628.342 240.233 628.429C239.406 628.516 238.625 628.283 237.88 628.003C236.081 627.325 234.355 626.317 233.226 624.628C232.096 622.939 231.654 620.465 232.486 618.213C232.824 617.3 233.36 616.435 233.508 615.486C233.655 614.54 233.17 613.468 232.36 613.425C233.864 612.264 235.085 610.515 235.727 608.62Z" fill="#9DD1F3"/>
<path d="M230.577 613.387C230.821 613.543 231.155 613.5 231.451 613.35C231.747 613.201 232.011 612.955 232.261 612.7C233.533 611.411 234.584 609.805 235.297 608.067C235.393 607.831 235.486 607.58 235.484 607.337C235.48 607.01 235.305 606.759 235.127 606.54C234.64 605.939 234.078 605.423 233.461 604.999C233.229 604.838 232.973 604.689 232.68 604.718C232.375 604.749 232.077 604.967 231.81 605.197C230.387 606.423 229.323 608.167 228.434 609.935C228.31 610.18 228.189 610.432 228.144 610.694C228.033 611.344 228.416 611.853 228.815 612.211C229.394 612.733 230.086 613.077 230.577 613.387Z" fill="#707070"/>
<path d="M359.871 621.146C359.871 621.146 360.511 619.801 362.142 621.181C363.681 622.482 362.708 623.285 362.708 623.285" fill="#5E5E5E"/>
<path d="M354.579 634.336C354.579 634.336 353.914 635.786 352.253 634.312C350.687 632.921 351.688 632.052 351.688 632.052" fill="#5E5E5E"/>
<path d="M360.099 620.37L351.5 632.223C351.5 632.223 352.316 634.449 354.579 634.87L363.106 622.929C363.105 622.929 362.38 620.986 360.099 620.37Z" fill="#7A7A7A"/>
<path d="M360.118 620.504L357.761 623.708C357.761 623.708 359.673 623.965 360.766 626.233L363.084 623.034C363.082 623.034 362.421 621.278 360.118 620.504Z" fill="#F7E468"/>
<path d="M360.568 622.117C360.996 622.328 361.445 622.558 361.685 622.999C361.698 623.022 361.71 623.044 361.732 623.053C361.754 623.062 361.785 623.044 361.786 623.02" fill="#F7E468"/>
<path d="M361.58 621.882C361.318 622.319 361.058 622.759 360.796 623.197Z" fill="#F7E468"/>
<path d="M361.598 621.998C361.333 622.343 361.078 622.7 360.837 623.064Z" fill="white"/>
<path d="M361.598 621.998C361.333 622.343 361.078 622.7 360.837 623.064" stroke="black" stroke-width="2" stroke-miterlimit="10"/>
<path d="M360.719 622.149C361.159 622.213 361.546 622.516 361.734 622.95" stroke="black" stroke-width="2" stroke-miterlimit="10"/>
<path d="M353.204 632.045C353.482 632.527 353.923 632.881 354.43 633.03" stroke="#F7E468" stroke-width="2" stroke-miterlimit="10"/>
<path d="M358.393 632.279C358.393 632.279 357.046 632.377 357.547 634.444C358.019 636.392 359.051 635.774 359.051 635.774" fill="#5E5E5E"/>
<path d="M372.126 632.732C372.126 632.732 373.574 632.649 373.006 630.517C372.469 628.506 371.367 629.126 371.367 629.126" fill="#5E5E5E"/>
<path d="M357.959 632.464L371.318 628.469C371.318 628.469 372.835 630.195 372.26 632.667L358.856 636.553C358.856 636.553 357.539 635.035 357.959 632.464Z" fill="#7A7A7A"/>
<path d="M357.975 632.257L361.453 631.156C361.453 631.156 360.89 633.185 362.245 635.188L358.785 636.251C358.784 636.249 357.662 634.884 357.975 632.257Z" fill="#F7E468"/>
<path d="M359.013 633.318C359.007 633.811 359.008 634.334 359.24 634.734C359.251 634.753 359.263 634.775 359.261 634.798C359.259 634.821 359.236 634.848 359.216 634.837" fill="#F7E468"/>
<path d="M358.361 634.229C358.84 634.127 359.321 634.023 359.799 633.921Z" fill="#F7E468"/>
<path d="M358.461 634.289C358.857 634.143 359.259 634.016 359.662 633.906Z" fill="white"/>
<path d="M358.461 634.289C358.857 634.143 359.259 634.016 359.662 633.906" stroke="black" stroke-width="2" stroke-miterlimit="10"/>
<path d="M358.979 633.462C358.861 633.915 358.933 634.409 359.169 634.758" stroke="black" stroke-width="2" stroke-miterlimit="10"/>
<path d="M370.746 630.492C370.985 630.948 371.071 631.515 370.989 632.068" stroke="#F7E468" stroke-width="2" stroke-miterlimit="10"/>
<path d="M-40.0002 -97C-30.542 -70.3333 27.444 -14.3 183.722 -3.5C340.001 7.3 404.171 77.6667 416.721 111.5" stroke="#48A4BD" stroke-width="70"/>
</g>
<defs>
<linearGradient id="paint0_linear_366_257" x1="217.969" y1="-2541.28" x2="217.969" y2="686.04" gradientUnits="userSpaceOnUse">
<stop stop-color="#E3FAFF"/>
<stop offset="1" stop-color="#A3DDF1"/>
</linearGradient>
<clipPath id="clip0_366_257">
<rect width="375" height="3825" fill="white" transform="translate(0 -3150)"/>
</clipPath>
</defs>
</svg>
