<svg width="320" height="575" viewBox="0 0 320 575" fill="none" xmlns="http://www.w3.org/2000/svg">
<g clip-path="url(#clip0_366_257)">
<rect width="320" height="3825" transform="translate(0 -568)" fill="white"/>
<path d="M320 0H0V3238H320V0Z" fill="url(#paint0_linear_366_257)"/>
<path d="M368.5 480C359.833 506.667 306.7 562.7 163.5 573.5C20.3 584.3 -38.5 654.667 -50 688.5" stroke="#48A4BD" stroke-width="70"/>
<path d="M198.499 -481C72.4988 -489 12.6655 -515.333 -1.50115 -527.5V-535L-3.50049 -539.5C4.83284 -529 71.8997 -502.7 223.5 -499.5C413 -495.5 419 -370 253 -273C190.238 -236.326 131.5 -93.5 331 -23V312.5C322 157 352 102.5 211 71.5C48.3838 35.7475 -7.00022 20.5 -18.5002 -31.5C-37.5002 -77 -17.0009 -308 -17.0009 -308C-22.5009 -366 123.499 -339.583 268 -347.5C318.999 -350.294 355.999 -471 198.499 -481Z" fill="#48A4BD"/>
</g>
<defs>
<linearGradient id="paint0_linear_366_257" x1="160" y1="40.0612" x2="160" y2="3215.41" gradientUnits="userSpaceOnUse">
<stop stop-color="#E3FAFF"/>
<stop offset="1" stop-color="#A3DDF1"/>
</linearGradient>
<clipPath id="clip0_366_257">
<rect width="320" height="3825" fill="white" transform="translate(0 -568)"/>
</clipPath>
</defs>
</svg>
