<svg width="320" height="675" viewBox="0 0 320 675" fill="none" xmlns="http://www.w3.org/2000/svg">
<g clip-path="url(#clip0_366_257)">
<rect width="320" height="3825" transform="translate(0 -3150)" fill="white"/>
<path d="M320 -2582H0V709H320V-2582Z" fill="url(#paint0_linear_366_257)"/>
<rect x="-1" y="653" width="320" height="100" fill="#ABA09B"/>
<path d="M-6.69177 575.87C-6.73279 575.87 -6.77382 575.87 -6.81487 575.87C-6.81487 574.009 -6.7554 574.344 -6.69177 575.87C2.65893 575.844 11.2912 572.938 16.3871 583.975C19.0157 589.667 23.0477 600.421 28.961 601.715C43.4745 604.89 58.9413 602.907 73.3441 606.758C79.0721 608.289 83.4606 616.393 89.1364 616.393H100.663C105.062 616.393 107.111 614.299 111.066 613.241C115.724 611.996 119.019 614.601 123.116 616.393C127.146 618.156 130.555 618.014 134.942 618.014C144.702 618.014 154.133 613.151 164.281 613.151C172.791 613.151 180.743 612.786 189.129 611.44C196.421 610.27 202.655 603.426 210.086 603.426C216.291 603.426 223.031 601.805 229.62 601.805C237.439 601.805 244.851 609.909 252.897 609.909C260.952 609.909 266.443 607.178 274.078 605.137C280.648 603.38 285.196 596.265 290.918 592.439C300.081 586.315 309.973 581.44 320.557 580.733C322.003 580.636 327.111 576.778 327.293 580.733C327.654 588.544 327.293 596.501 327.293 604.326C327.293 613.587 325.164 619.917 327.967 629.361C329.793 635.515 328.64 643.926 328.64 650.433C328.64 666.055 330.798 682.339 331.41 698.16C331.622 703.647 331.011 715.866 333.356 720.943C336.491 727.733 329.819 717.765 328.94 714.91C327.124 709.01 325.566 708.957 320.758 708.793L320.557 708.786C308.858 708.384 298.117 705.889 286.353 709.687C273.517 713.83 261.601 720.134 248.407 723.374C237.114 726.147 226.22 729.028 215.175 733.1C208.382 735.605 201.447 741.007 194.219 741.205C184.553 741.469 174.846 742.211 165.179 742.916C151.152 743.938 137.269 744.446 123.116 744.446C103.189 744.446 83.0124 736.92 63.24 733.46C39.5308 729.311 14.151 734.802 -5.76704 715.63C-11.7803 709.842 -12.6747 704.804 -13.4761 694.198C-14.8184 676.432 -13.4872 659.203 -10.5571 641.968C-7.86307 626.121 -8.47271 608.617 -6.81487 592.66C-6.38808 588.552 -6.5502 579.264 -6.69177 575.87Z" fill="#ABA09B"/>
<path d="M304.902 500C306.423 501.191 307.711 502.834 308.67 504.727C309.635 506.62 310.271 508.742 310.691 510.906C311.108 513.074 311.315 515.303 311.321 517.53C311.321 518.088 311.325 518.644 311.299 519.202L311.268 520.038L311.21 520.866L311.092 522.525C311.044 523.076 310.973 523.624 310.915 524.175C310.686 526.377 310.303 528.546 309.908 530.704C309.483 532.853 309.025 534.993 308.527 537.11C307.538 541.347 306.439 545.528 305.554 549.753L305.223 551.336L304.922 552.925C304.705 553.98 304.554 555.047 304.376 556.109C304.284 556.641 304.231 557.177 304.157 557.71C304.093 558.244 304.009 558.777 303.96 559.313L303.816 560.921C303.794 561.189 303.764 561.457 303.746 561.725L303.706 562.532L303.627 564.145L303.611 565.763L303.603 566.572L303.623 567.38L303.663 568.998C303.774 571.155 303.916 573.313 304.195 575.455C304.697 579.75 305.554 583.985 306.505 588.19C307.466 592.396 308.616 596.547 309.747 600.711L308.501 601.104C308.082 597.958 307.946 594.764 308.082 591.592C308.228 588.422 308.644 585.276 309.312 582.219C309.99 579.163 310.921 576.198 312.095 573.389L313.024 571.315L314.039 569.305L315.147 567.373L316.337 565.521L315.251 567.463L314.254 569.469L313.339 571.525L312.514 573.635C311.471 576.476 310.662 579.436 310.105 582.457C309.539 585.476 309.224 588.561 309.172 591.643C309.107 594.725 309.304 597.812 309.772 600.833L308.525 601.225C307.909 599.157 307.301 597.086 306.728 594.995C306.433 593.955 306.16 592.902 305.877 591.855C305.606 590.802 305.333 589.75 305.074 588.69C304.041 584.453 303.172 580.138 302.634 575.738C302.339 573.542 302.181 571.32 302.058 569.096L302.018 567.422L302 566.586L302.012 565.748L302.036 564.072L302.124 562.398C302.373 557.927 303.136 553.549 304.095 549.285C305.054 545.014 306.194 540.838 307.251 536.654C307.791 534.564 308.285 532.466 308.75 530.361C309.186 528.248 309.597 526.126 309.89 523.985C309.962 523.449 310.046 522.915 310.111 522.376L310.273 520.761L310.355 519.952L310.408 519.143C310.45 518.605 310.46 518.064 310.476 517.523C310.5 516.982 310.478 516.441 310.484 515.9C310.474 515.36 310.45 514.819 310.43 514.278C310.357 513.201 310.263 512.121 310.093 511.059L309.966 510.262C309.918 509.999 309.858 509.739 309.804 509.475C309.745 509.215 309.703 508.947 309.631 508.691L309.428 507.916C309.394 507.787 309.362 507.658 309.326 507.529L309.204 507.151L308.959 506.393C308.875 506.142 308.77 505.904 308.676 505.658C308.576 505.416 308.493 505.16 308.377 504.929C307.52 503.033 306.362 501.308 304.902 500Z" fill="#B1BF91"/>
<path d="M267 575.087C268.714 576.217 270.235 577.791 271.555 579.567C272.869 581.358 273.991 583.358 274.932 585.468C275.869 587.581 276.646 589.791 277.316 592.027C277.655 593.146 277.968 594.271 278.265 595.4C278.566 596.525 278.849 597.656 279.13 598.784L277.569 599.147C277.372 596.535 277.318 593.908 277.394 591.292C277.474 588.672 277.685 586.063 278.038 583.483L278.327 581.553L278.666 579.638L279.062 577.74L279.499 575.859C280.133 573.369 280.876 570.923 281.799 568.581C281.225 571.081 280.697 573.578 280.29 576.1L279.991 577.991L279.736 579.889L279.511 581.789L279.322 583.695C279.098 586.238 278.965 588.787 278.939 591.338C278.909 593.889 278.985 596.437 279.162 598.979L279.808 608.335L277.601 599.342L276.772 595.967C276.491 594.846 276.206 593.733 275.907 592.624C275.303 590.414 274.641 588.236 273.838 586.138C273.038 584.043 272.103 582.016 270.971 580.147C269.847 578.266 268.525 576.556 267 575.087Z" fill="#B1BF91"/>
<path d="M248.94 578.206C249.636 579.666 250.021 581.354 250.156 583.062C250.222 583.917 250.234 584.777 250.202 585.638C250.162 586.495 250.076 587.35 249.957 588.198C249.47 591.592 248.434 594.769 247.644 597.922C246.843 601.063 246.341 604.294 246.153 607.561C245.966 610.826 246.074 614.12 246.502 617.361L245.109 617.641C244.959 616.201 244.688 614.775 244.299 613.392C243.909 612.008 243.41 610.66 242.806 609.379C242.194 608.104 241.491 606.879 240.683 605.753C239.88 604.62 238.979 603.58 238 602.637C239.102 603.358 240.129 604.264 241.068 605.297C241.999 606.338 242.854 607.5 243.58 608.779C244.315 610.051 244.941 611.423 245.434 612.87C245.926 614.317 246.293 615.833 246.508 617.39L245.115 617.67C244.554 614.31 244.363 610.853 244.558 607.427C244.75 604.004 245.31 600.598 246.245 597.369C247.164 594.151 248.302 591.12 248.998 587.945C249.169 587.153 249.307 586.349 249.403 585.54C249.508 584.731 249.572 583.913 249.582 583.092C249.6 581.449 249.419 579.788 248.94 578.206Z" fill="#B1BF91"/>
<path d="M257.006 593.848C257.526 594.7 257.899 595.699 258.134 596.745C258.184 597.008 258.243 597.271 258.287 597.539C258.323 597.804 258.367 598.075 258.397 598.343C258.417 598.613 258.445 598.884 258.459 599.154C258.469 599.425 258.483 599.698 258.487 599.968C258.523 602.144 258.21 604.283 257.839 606.347C257.47 608.396 257.069 610.398 256.894 612.392C256.718 614.377 256.768 616.353 257.309 618.159L255.967 618.743C255.754 617.83 255.514 616.926 255.239 616.032L255.028 615.362L254.805 614.699L254.574 614.036L254.332 613.381C253.993 612.513 253.637 611.648 253.244 610.805C252.855 609.958 252.435 609.124 252 608.293C252.606 608.951 253.166 609.67 253.694 610.43C254.215 611.193 254.709 611.992 255.148 612.833L255.477 613.466L255.792 614.112L256.087 614.772L256.37 615.442C256.732 616.343 257.055 617.269 257.33 618.219L255.987 618.804C255.61 617.759 255.383 616.636 255.287 615.517C255.186 614.397 255.211 613.278 255.303 612.189C255.495 610.006 255.949 607.93 256.417 605.915C256.882 603.917 257.309 601.934 257.512 599.914C257.538 599.661 257.55 599.41 257.57 599.157C257.586 598.903 257.588 598.65 257.598 598.397C257.606 598.143 257.6 597.89 257.602 597.634C257.596 597.381 257.578 597.127 257.568 596.871C257.496 595.853 257.319 594.837 257.006 593.848Z" fill="#B1BF91"/>
<path d="M275.528 542.111C270.893 546.436 267.378 552.342 265.381 558.886L265.024 560.121C264.907 560.533 264.817 560.957 264.713 561.374L264.562 562C264.512 562.21 264.478 562.424 264.434 562.633L264.187 563.903L263.99 565.184C263.958 565.399 263.922 565.611 263.896 565.825L263.828 566.471C263.786 566.902 263.728 567.331 263.695 567.762L263.611 569.061C263.529 570.798 263.533 572.54 263.607 574.282C263.693 576.024 263.83 577.766 264.015 579.509C264.765 586.467 266.21 593.384 266.585 600.594C266.641 601.49 266.655 602.394 266.681 603.293C266.681 604.197 266.683 605.099 266.643 606.005C266.573 607.813 266.434 609.626 266.15 611.417C266.091 611.867 266.005 612.311 265.919 612.757C265.833 613.2 265.758 613.648 265.644 614.087C265.538 614.525 265.437 614.966 265.323 615.403L264.94 616.699C264.392 618.412 263.693 620.056 262.853 621.591L260.87 625.222L261.494 620.938C262.06 617.045 262.297 613.081 262.146 609.136C262.004 605.194 261.422 601.273 260.357 597.543C259.825 595.682 259.157 593.872 258.36 592.147C257.563 590.421 256.652 588.77 255.611 587.239C253.532 584.182 250.966 581.567 248 579.772C251.066 581.297 253.821 583.753 256.068 586.759C258.326 589.764 260.096 593.306 261.318 597.114C262.546 600.92 263.212 604.974 263.461 609.043C263.704 613.12 263.493 617.215 262.971 621.24L261.611 620.587C262.363 619.15 262.989 617.622 263.497 616.031L263.848 614.823C263.954 614.416 264.043 613.999 264.143 613.59C264.249 613.18 264.316 612.759 264.396 612.34C264.474 611.921 264.554 611.504 264.606 611.078C264.869 609.387 264.994 607.659 265.052 605.93C265.112 604.197 265.084 602.458 265 600.716C264.845 597.231 264.4 593.762 263.922 590.273C263.445 586.786 262.953 583.275 262.614 579.721C262.451 577.942 262.325 576.154 262.277 574.355C262.241 572.557 262.275 570.752 262.403 568.954L262.522 567.606C262.566 567.158 262.634 566.712 262.688 566.266L262.776 565.596C262.809 565.375 262.853 565.155 262.889 564.933L263.124 563.611L263.421 562.307C263.473 562.09 263.515 561.871 263.573 561.656L263.75 561.016C263.87 560.589 263.976 560.158 264.111 559.739L264.518 558.482C266.772 551.825 270.638 546.007 275.528 542.111Z" fill="#B1BF91"/>
<path d="M0.153625 506.016C-0.653021 508.199 -1.44763 510.392 -2.09174 512.641C-2.41279 513.766 -2.69773 514.904 -2.91444 516.059C-3.12714 517.214 -3.27964 518.383 -3.34586 519.553C-3.35589 519.845 -3.37997 520.138 -3.37997 520.432L-3.37796 521.31L-3.33181 522.184C-3.31977 522.477 -3.27964 522.764 -3.25556 523.054C-3.12313 524.211 -2.89036 525.349 -2.59539 526.468C-2.01148 528.707 -1.16871 530.851 -0.311904 532.997C1.42379 537.295 3.10129 541.632 4.70656 546.013C6.31183 550.394 7.82078 554.833 9.18525 559.345C11.9443 568.348 14.0793 577.682 15.2251 587.236C16.3467 596.779 16.437 606.571 15.0264 616.103L13.6138 615.869C13.8124 613.591 14.0111 611.305 14.2418 609.023C14.4786 606.74 14.7455 604.459 15.0685 602.186C15.3916 599.913 15.7749 597.647 16.2424 595.405C16.7139 593.164 17.2798 590.949 17.952 588.783C19.2964 584.446 21.1405 580.326 23.5163 576.708C24.7022 574.897 26.0345 573.233 27.4933 571.754C28.9501 570.275 30.5513 569.013 32.2469 568.005C28.9441 570.249 26.167 573.46 23.9557 577.117C22.8461 578.947 21.8709 580.893 21.0261 582.916C20.1793 584.938 19.4469 587.031 18.8429 589.173C18.2349 591.317 17.7393 593.51 17.3219 595.722C16.9006 597.934 16.5655 600.173 16.2845 602.425C16.0056 604.676 15.7809 606.939 15.5863 609.21C15.3836 611.481 15.209 613.759 15.0344 616.04L13.6218 615.806C14.2418 611.135 14.5448 606.406 14.5248 601.672C14.5368 599.303 14.4285 596.938 14.294 594.574C14.2037 593.395 14.1355 592.213 14.0131 591.037C13.9549 590.447 13.9067 589.86 13.8425 589.27L13.6399 587.509C13.5777 586.921 13.4934 586.337 13.4191 585.752C13.3409 585.167 13.2707 584.58 13.1844 583.995C13.0058 582.828 12.8432 581.659 12.6366 580.499C12.2553 578.172 11.7918 575.862 11.3042 573.565C10.2969 568.974 9.13709 564.428 7.82278 559.94C6.5185 555.449 5.05972 551.022 3.55278 546.615C2.03379 542.212 0.428526 537.853 -1.18878 533.492C-1.99543 531.306 -2.80609 529.089 -3.35388 526.74C-3.62277 525.566 -3.83145 524.367 -3.92977 523.147C-3.94582 522.842 -3.97993 522.538 -3.98194 522.231L-4 521.314L-3.97392 520.398C-3.96388 520.094 -3.93178 519.792 -3.91171 519.487C-3.80536 518.276 -3.61072 517.082 -3.34786 515.918C-3.08299 514.753 -2.7499 513.615 -2.3847 512.499C-2.01951 511.381 -1.61016 510.289 -1.17875 509.213C-0.747331 508.143 -0.297856 507.078 0.153625 506.016Z" fill="#B1BF91"/>
<path d="M55 562.565C56.6253 563.993 58.1343 565.628 59.5269 567.404L60.5482 568.764L61.5274 570.167L62.4585 571.622L63.3474 573.115C64.5132 575.125 65.5486 577.245 66.4897 579.421C67.4388 581.594 68.2675 583.843 69.01 586.128C70.5129 590.694 71.6125 595.428 72.5656 600.18C73.4766 604.943 74.2391 609.733 74.9314 614.523L73.5147 614.815L73.3562 612.988L73.284 611.156L73.3061 609.324L73.4124 607.499C73.607 605.072 74.0224 602.677 74.6565 600.377L75.1662 598.669L75.7501 597L76.4143 595.377L77.1487 593.803C78.178 591.742 79.398 589.832 80.7926 588.148C79.5686 590.017 78.5131 592.025 77.6403 594.135L77.0182 595.733L76.4684 597.368L75.9848 599.029L75.5715 600.715C75.0779 602.981 74.7608 605.296 74.6505 607.62L74.6083 609.365L74.6444 611.107L74.7508 612.842L74.9374 614.564L73.5208 614.857C72.7001 610.098 71.9476 605.333 71.0065 600.635C70.1056 595.925 69.012 591.284 67.6615 586.759C66.9793 584.501 66.2108 582.284 65.37 580.108C64.5232 577.934 63.5741 575.82 62.5407 573.766L61.7401 572.243L60.8994 570.752L60.0225 569.29L59.1015 567.867C57.8453 565.981 56.4789 564.21 55 562.565Z" fill="#B1BF91"/>
<path d="M54.7539 571.373C55.5465 572.091 56.295 572.9 56.9652 573.802C57.6213 574.715 58.2293 575.695 58.741 576.75C59.2406 577.81 59.6881 578.916 60.0332 580.076C60.3603 581.24 60.6312 582.437 60.7837 583.662C60.9302 584.888 61.0144 586.133 60.9542 587.38C60.9562 587.692 60.9141 588.001 60.8961 588.313C60.872 588.625 60.8499 588.937 60.8058 589.242C60.7335 589.858 60.6332 590.467 60.5208 591.071C60.2941 592.28 59.9931 593.454 59.658 594.602C59.3269 595.749 58.9717 596.877 58.6326 597.998C58.2915 599.116 57.9705 600.235 57.6875 601.351C57.4086 602.469 57.1698 603.585 57.0374 604.725C56.7163 606.994 56.7464 609.33 56.925 611.65C57.3243 616.301 58.4661 620.874 59.6098 625.457L58.2594 625.754C58.1992 623.632 58.434 621.515 58.8895 619.49C59.343 617.461 60.0533 615.531 60.9482 613.752C61.8391 611.971 62.9508 610.366 64.2049 608.969C65.469 607.586 66.8897 606.426 68.4247 605.595C66.99 606.655 65.6918 607.944 64.5701 609.42C63.4384 610.885 62.4953 612.541 61.7228 614.291C60.9542 616.045 60.3924 617.921 60.0272 619.839C59.664 621.759 59.5396 623.732 59.6419 625.676L59.977 631.975L58.2935 625.974C57.6554 623.698 57.0334 621.4 56.5016 619.057C55.986 616.705 55.5465 614.308 55.3378 611.852C55.2937 611.235 55.2355 610.624 55.2214 610.003C55.2114 609.693 55.1933 609.384 55.1933 609.074L55.1974 608.141C55.1934 607.832 55.2094 607.52 55.2255 607.208L55.2736 606.275L55.3619 605.344L55.406 604.879L55.4743 604.416C55.8054 601.931 56.5217 599.596 57.2581 597.362C58.0006 595.123 58.753 592.935 59.2727 590.694C59.3991 590.133 59.5155 589.57 59.6018 589.003C59.654 588.72 59.6841 588.435 59.7162 588.15C59.7443 587.865 59.7944 587.58 59.8025 587.292L59.8526 586.427C59.8627 586.14 59.8546 585.85 59.8606 585.56C59.8606 585.416 59.8667 585.27 59.8627 585.126L59.8426 584.693C59.8265 584.403 59.8265 584.11 59.7944 583.823C59.7082 582.663 59.5115 581.518 59.2567 580.387C58.9958 579.259 58.6407 578.163 58.2253 577.096C57.7919 576.041 57.2882 575.025 56.7143 574.058C56.1264 573.1 55.4723 572.206 54.7539 571.373Z" fill="#B1BF91"/>
<path d="M57.4861 563.768C55.5618 566.085 53.7779 568.544 52.2971 571.229C50.8202 573.914 49.7086 576.84 48.8859 579.89C48.4605 581.411 48.1454 582.977 47.8404 584.544L47.6297 585.728L47.4431 586.92C47.3769 587.314 47.3207 587.714 47.2666 588.114C47.2124 588.513 47.1522 588.91 47.104 589.312C46.6907 592.519 46.4097 595.764 46.1068 599.022L45.3583 607.059L44.6319 599.048C44.4754 597.316 44.2767 595.586 44.046 593.864C43.9256 593.004 43.8012 592.143 43.6688 591.283C43.5303 590.426 43.3878 589.568 43.2393 588.71L43.0026 587.429L42.7497 586.15L42.4889 584.873L42.214 583.599C41.8367 581.903 41.4294 580.212 41 578.521C41.6521 580.102 42.2421 581.725 42.7718 583.375L43.1611 584.617L43.5323 585.87L43.8774 587.134L44.2045 588.406L44.5155 589.685L44.8025 590.972L45.0714 592.265L45.3162 593.566C45.6332 595.304 45.8941 597.058 46.1007 598.822L44.6259 598.849C44.7302 597.211 44.8506 595.572 44.9911 593.929C45.1396 592.287 45.3021 590.645 45.5188 589.005C45.9502 585.728 46.5663 582.459 47.5234 579.311C48.015 577.744 48.5568 576.194 49.237 574.73C49.3915 574.355 49.5801 574.002 49.7587 573.641C49.9413 573.283 50.1119 572.92 50.3085 572.574C50.6918 571.874 51.1011 571.202 51.5305 570.549C53.2442 567.932 55.2808 565.681 57.4861 563.768Z" fill="#B1BF91"/>
<path d="M18.5527 533.689C18.4564 534.858 18.2277 536.021 17.8946 537.137C17.5655 538.255 17.1421 539.339 16.6485 540.365C15.6813 542.436 14.4974 544.329 13.3637 546.22C12.8019 547.17 12.2139 548.088 11.7043 549.066C11.4434 549.548 11.1765 550.025 10.9237 550.513L10.2013 552.004C9.25823 554.002 8.3934 556.061 7.70113 558.205L7.42823 559.001C7.33994 559.27 7.2657 559.542 7.18343 559.81C7.0229 560.351 6.85836 560.89 6.70185 561.433C6.43296 562.537 6.11592 563.621 5.89921 564.742L5.72063 565.577L5.63033 565.994L5.55609 566.416L5.25911 568.102C5.15878 568.664 5.1006 569.235 5.01833 569.802L4.90395 570.653C4.86583 570.938 4.84576 571.223 4.81566 571.508L4.64912 573.223L4.55079 574.946C4.50665 575.518 4.50063 576.096 4.4906 576.671L4.47455 577.533C4.46652 577.821 4.4625 578.108 4.47254 578.396L4.50263 580.123C4.50263 580.411 4.5227 580.698 4.54076 580.986L4.59293 581.848L4.63908 582.711C4.65313 582.998 4.69125 583.283 4.71533 583.571L4.88188 585.291L3.69599 585.271C3.96487 583.797 4.41636 582.379 5.02636 581.083C5.63435 579.787 6.37678 578.588 7.24363 577.55C8.11047 576.515 9.07764 575.608 10.1351 574.907C11.1886 574.198 12.3203 573.676 13.4841 573.391C12.3664 573.871 11.313 574.532 10.3578 575.338C9.40471 576.152 8.53386 577.095 7.79142 578.164C7.04698 579.231 6.40688 580.396 5.91727 581.646C5.42967 582.894 5.0705 584.209 4.88188 585.554L4.31 589.608L3.69599 585.537C3.34283 583.196 3.08799 580.822 3.02178 578.435C3.00372 578.137 3.00372 577.838 3.00372 577.541L3.00171 576.644C2.99971 576.047 2.99369 575.45 3.0278 574.853L3.10405 573.062L3.25454 571.279C3.4853 568.906 3.82842 566.545 4.35816 564.242C4.59092 563.08 4.91398 561.95 5.21497 560.812C5.38352 560.251 5.56211 559.693 5.73468 559.135C5.82297 558.858 5.90523 558.575 5.99954 558.3L6.29652 557.479C7.06905 555.281 8.01616 553.181 9.04353 551.149L9.85017 549.653C10.1331 549.165 10.4281 548.688 10.717 548.208L11.1524 547.489L11.6059 546.79C11.9109 546.329 12.2159 545.869 12.529 545.421C13.7771 543.62 15.0231 541.854 16.1187 539.953L16.518 539.232L16.8933 538.494C17.1341 537.994 17.3728 537.492 17.5755 536.966C17.9849 535.928 18.324 534.832 18.5527 533.689Z" fill="#B1BF91"/>
<path d="M111 590.238C111.997 591.062 112.978 591.922 113.871 592.95C114.75 593.981 115.553 595.201 116.016 596.663C116.486 598.115 116.636 599.653 116.751 601.107C116.811 601.838 116.859 602.557 116.939 603.254C116.974 603.605 117.038 603.946 117.086 604.289C117.13 604.635 117.202 604.974 117.269 605.315C117.822 608.034 118.824 610.612 120.046 613.048C121.262 615.492 122.674 617.822 124.095 620.173L122.702 620.775C122.654 618.747 122.899 616.723 123.393 614.808C123.882 612.89 124.623 611.082 125.554 609.447C126.499 607.827 127.616 606.358 128.907 605.171L129.896 604.321L130.937 603.583C131.301 603.373 131.66 603.159 132.023 602.957C132.398 602.788 132.771 602.618 133.145 602.459L132.111 603.169C131.784 603.439 131.455 603.697 131.128 603.958L130.203 604.83L129.332 605.771C128.218 607.084 127.245 608.556 126.479 610.166C124.926 613.365 124.097 617.064 124.251 620.699L124.38 623.698L122.861 621.301C121.392 618.984 119.939 616.608 118.683 614.038C117.435 611.474 116.4 608.67 115.916 605.678C115.856 605.305 115.792 604.932 115.76 604.552C115.723 604.175 115.673 603.797 115.655 603.419C115.605 602.664 115.589 601.926 115.573 601.197C115.535 599.748 115.499 598.335 115.176 597.016C114.853 595.708 114.253 594.478 113.494 593.379C112.742 592.268 111.863 591.261 111 590.238Z" fill="#B1BF91"/>
<path d="M137.091 590.238C137.568 591.751 138.012 593.286 138.319 594.887C138.614 596.485 138.772 598.171 138.574 599.865C138.479 600.708 138.293 601.548 138.032 602.342C137.773 603.137 137.438 603.88 137.089 604.596C136.379 606.026 135.594 607.33 134.904 608.665C134.205 610.005 133.571 611.392 132.995 612.812C132.412 614.228 131.896 615.682 131.43 617.161C130.511 620.121 129.825 623.189 129.41 626.313L129.077 628.815L128.011 626.673C127.544 625.735 127.221 624.707 127.028 623.669C126.988 623.408 126.932 623.15 126.906 622.889L126.823 622.112C126.793 621.596 126.761 621.081 126.761 620.575C126.757 619.559 126.801 618.557 126.855 617.575C126.91 616.593 126.958 615.621 126.99 614.659C127.016 613.699 127.002 612.744 126.918 611.803C126.819 610.868 126.661 609.932 126.404 609.028C126.151 608.122 125.82 607.245 125.419 606.407C125.017 605.568 124.538 604.781 124 604.043C124.628 604.664 125.21 605.373 125.708 606.17C125.96 606.565 126.189 606.982 126.408 607.408C126.617 607.842 126.815 608.285 126.986 608.746C127.335 609.664 127.604 610.634 127.768 611.635C127.927 612.637 128.009 613.648 128.047 614.652C128.111 616.654 128.009 618.625 128.113 620.516C128.184 622.409 128.521 624.212 129.297 625.677L127.899 626.037C128.274 622.767 128.956 619.547 129.939 616.467C130.425 614.925 130.995 613.421 131.623 611.959C132.261 610.502 132.965 609.089 133.73 607.727C134.486 606.348 135.351 605.105 136.076 603.809C136.796 602.511 137.408 601.163 137.669 599.662C137.938 598.166 137.946 596.573 137.789 594.992C137.645 593.41 137.362 591.827 137.091 590.238Z" fill="#B1BF91"/>
<path d="M181.296 608.286C180.628 609.036 180.068 609.869 179.62 610.755C179.512 610.978 179.41 611.207 179.305 611.43C179.211 611.66 179.125 611.895 179.037 612.126C178.952 612.358 178.88 612.597 178.802 612.83C178.732 613.067 178.677 613.31 178.613 613.547C178.176 615.476 178.182 617.5 178.699 619.329C179.217 621.174 180.216 622.874 181.21 624.657C181.703 625.552 182.201 626.475 182.62 627.469C183.042 628.459 183.383 629.529 183.541 630.649L182.382 630.195C183.022 629.631 183.614 628.991 184.139 628.282L184.525 627.742L184.884 627.177L185.225 626.595L185.538 625.99C185.929 625.168 186.268 624.305 186.519 623.399C186.776 622.496 186.948 621.557 187.049 620.591C187.171 621.555 187.163 622.544 187.051 623.525C186.93 624.506 186.716 625.481 186.385 626.415L186.124 627.111L185.829 627.793L185.492 628.453L185.123 629.092C184.603 629.929 183.997 630.707 183.305 631.393L182.41 632.281L182.145 630.939C181.774 629.066 180.83 627.345 179.847 625.585C179.356 624.701 178.846 623.802 178.392 622.841C177.939 621.882 177.538 620.859 177.287 619.767C176.783 617.573 176.96 615.252 177.684 613.217C177.782 612.965 177.873 612.712 177.977 612.464C178.091 612.221 178.198 611.977 178.316 611.74C178.449 611.51 178.575 611.277 178.709 611.052C178.856 610.832 178.996 610.613 179.145 610.4C179.753 609.559 180.481 608.833 181.296 608.286Z" fill="#B1BF91"/>
<path d="M171 604.954C172.007 606.613 172.74 608.528 173.269 610.504C173.392 611.001 173.526 611.498 173.639 612C173.739 612.505 173.847 613.009 173.942 613.516L174.203 615.038C174.281 615.548 174.359 616.057 174.427 616.566C174.708 618.603 174.919 620.637 175.18 622.643C175.441 624.645 175.746 626.624 176.207 628.527L174.931 628.071C175.627 627.304 176.111 626.193 176.5 624.955C176.701 624.338 176.889 623.693 177.094 623.03L177.425 622.041C177.539 621.712 177.64 621.378 177.774 621.061C178.763 618.481 180.028 616.062 181.543 613.908C183.064 611.761 184.807 609.859 186.726 608.285C188.652 606.728 190.739 605.48 192.924 604.676C190.889 605.933 188.981 607.415 187.243 609.13C187.027 609.344 186.818 609.574 186.605 609.793C186.396 610.017 186.176 610.227 185.979 610.468C185.578 610.94 185.162 611.394 184.785 611.891L184.207 612.621L183.658 613.384C183.28 613.879 182.953 614.427 182.602 614.948C181.246 617.08 180.116 619.407 179.215 621.851C179.095 622.15 179.002 622.467 178.896 622.777L178.589 623.71C178.396 624.343 178.212 625.001 177.993 625.669C177.776 626.336 177.527 627.014 177.202 627.674C176.885 628.334 176.472 628.97 175.97 629.504L175.027 630.51L174.694 629.051C174.229 627.006 173.96 624.933 173.765 622.876C173.57 620.818 173.448 618.774 173.294 616.744L173.169 615.226L173.021 613.716C172.962 613.214 172.894 612.717 172.832 612.215L172.603 610.723C172.513 610.231 172.409 609.742 172.312 609.247L171.955 607.788L171.518 606.355L171 604.954Z" fill="#B1BF91"/>
<path d="M177 583.019C178.296 583.604 179.468 584.617 180.447 585.843C181.427 587.076 182.227 588.511 182.877 590.029C183.206 590.789 183.493 591.571 183.756 592.36C184.013 593.152 184.248 593.954 184.467 594.755C184.687 595.557 184.892 596.361 185.097 597.16L185.693 599.548C186.094 601.132 186.549 602.659 187.083 604.153C187.619 605.646 188.229 607.099 188.907 608.502C190.266 611.309 191.923 613.899 193.803 616.223L192.547 616.727L192.774 615.339L193.061 613.969L193.4 612.62L193.797 611.294L194.247 609.996L194.742 608.726L195.286 607.486L195.884 606.287L196.526 605.125L197.21 604.002C197.451 603.639 197.698 603.283 197.943 602.925L198.715 601.894C199.769 600.552 200.935 599.348 202.191 598.325C201.087 599.58 200.078 600.932 199.167 602.365L198.505 603.456C198.298 603.831 198.093 604.209 197.885 604.579L197.299 605.727L196.759 606.904L196.263 608.105L195.804 609.323L195.39 610.566L195.025 611.828L194.706 613.107L194.429 614.396L194.202 615.699L194.022 617.01L193.789 618.699L192.766 617.514C190.725 615.154 188.955 612.442 187.533 609.484C186.82 608.005 186.192 606.468 185.656 604.881C185.111 603.303 184.697 601.653 184.332 600.03C184.149 599.217 183.975 598.405 183.804 597.596C183.64 596.785 183.475 595.981 183.297 595.184C183.12 594.388 182.931 593.596 182.721 592.818C182.514 592.036 182.293 591.266 182.031 590.518C181.77 589.768 181.469 589.037 181.144 588.326C180.815 587.614 180.451 586.925 180.036 586.284C179.209 584.99 178.2 583.855 177 583.019Z" fill="#B1BF91"/>
<path d="M218.538 592.28C219.214 594.508 221.078 595.872 222.929 596.638C224.78 597.404 226.759 597.768 228.49 598.869C230.597 600.214 232.151 602.529 233.641 604.783C234.812 606.553 235.984 608.323 237.155 610.093C237.567 610.716 237.993 611.363 238.172 612.136C238.482 613.464 238.006 614.88 237.369 616.02C234.791 620.641 229.894 622.333 225.352 623.197C222.255 623.785 219.126 624.145 215.994 624.272C214.411 624.337 212.793 624.334 211.289 623.723C208.428 622.557 201.471 625.139 205.585 615.747C207.002 612.512 204.983 608.463 205.443 604.841C205.871 601.464 206.523 598.067 207.927 595.108C209.332 592.147 211.584 589.646 214.322 588.86C215.138 588.626 216.018 588.551 216.799 588.918C218.562 589.747 219.163 592.351 219.53 594.602C219.928 594.852 220.453 594.738 218.538 592.28Z" fill="#F0E4E4"/>
<path d="M245.544 630.858C247.882 628.095 251.624 628.53 254.86 629.027C255.355 629.101 255.922 629.15 256.288 628.741C256.802 628.166 256.58 627.137 256.286 626.367C255.149 623.386 253.518 620.684 251.52 618.469C251.225 618.141 250.904 617.813 250.514 617.712C250.049 617.589 249.572 617.81 249.153 618.082C245.986 620.138 244.868 624.886 244.049 629.134C243.948 629.67 243.868 630.313 244.191 630.699C244.608 631.196 245.328 630.832 245.737 630.326C246.146 629.816 246.502 629.15 245.544 630.858Z" fill="#F0E4E4"/>
<path d="M97.0425 636.982C98.4814 629.502 102.833 622.929 108.541 619.617C109.07 619.311 109.648 619.022 110.226 619.142C110.768 619.253 111.215 619.698 111.656 620.097C115.273 623.368 119.961 624.222 124.051 626.528C128.402 628.98 132.082 633.153 134.399 638.255C134.519 638.521 134.639 638.801 134.655 639.106C134.687 639.739 134.267 640.272 133.829 640.613C131.366 642.535 128.172 641.006 125.3 640.311C118.239 638.599 111.103 642.379 103.911 642.789C102.344 642.88 100.685 642.776 99.3587 641.759C98.0321 640.743 96.7483 638.515 97.0425 636.982Z" fill="#F0E4E4"/>
<path d="M270.2 619.177C266.456 611.145 268.708 600.857 275.488 595.011C277.17 593.56 279.104 592.355 280.505 590.643C284.079 586.282 283.493 579.585 287.318 575.428C287.703 575.009 288.184 574.603 288.759 574.597C289.305 574.594 289.773 574.951 290.185 575.298C294.411 578.884 297.719 583.486 299.733 588.581C301.274 592.475 302.204 596.859 305.35 599.691C306.62 600.834 308.198 601.663 309.26 602.991C310.068 604.004 310.52 605.238 310.956 606.449C313.748 614.192 315.208 617.384 318.001 625.126C310.889 624.782 303.804 629.283 296.681 626.458C294.181 625.467 291.979 623.808 289.398 623.035C287.12 622.353 284.686 622.398 282.303 622.454C277.173 622.57 272.043 622.687 266.913 622.804C268.922 621.554 270.321 619.44 270.2 619.177Z" fill="#F0E4E4"/>
<path d="M52 617.838C47.2612 612.841 42.8557 607.248 38.864 601.154C37.6445 599.297 36.4374 597.355 34.8691 596.076C32.3901 594.055 29.3554 593.937 26.472 593.873C23.7614 593.814 20.9953 593.764 18.4051 594.857C15.815 595.954 13.3822 598.406 12.524 601.922C12.0084 604.028 12.0794 606.387 11.3416 608.367C10.752 609.941 9.71465 611.093 8.76997 612.3C6.35578 615.386 4.38306 619.117 3 623.223C6.0625 621.704 9.20527 620.163 12.4623 620.201C14.5399 620.227 16.5806 620.893 18.6027 621.556C21.5757 622.531 24.5486 623.506 27.5185 624.485C28.5558 624.827 29.6116 625.169 30.6798 625.127C32.0197 625.072 33.3039 624.418 34.5666 623.81C39.9908 621.197 45.6095 619.357 52 617.838Z" fill="#F0E4E4"/>
<path d="M61.2211 626.563C62.0556 624.829 62.4728 622.854 63.0158 620.954C63.5587 619.058 64.2728 617.145 65.5352 615.846C66.7977 614.547 68.7287 614.021 70.1329 615.083C70.6464 615.472 71.0529 616.034 71.4488 616.586C72.631 618.233 73.8131 619.879 74.9953 621.529C76.1561 623.143 77.3971 625.17 76.8943 627.225C76.6723 628.138 76.1213 628.888 75.5008 629.469C73.2301 631.587 70.1142 631.658 67.2577 631.395C64.4012 631.132 61.4244 630.642 58.7578 631.915C59.8678 629.054 61.1596 626.297 61.2211 626.563Z" fill="#F0E4E4"/>
<path d="M69.697 617.054C70.6574 616.81 71.6262 617.149 72.3574 617.756C73.0863 618.365 73.6078 619.217 74.0735 620.088C75.4774 622.719 76.4565 625.625 77.3968 628.535C77.6315 629.263 77.8672 630.009 77.8696 630.806C77.8704 632.182 77.1077 633.614 75.977 634.359C78.2233 635.186 80.6275 636.02 83.0585 635.313C84.1359 635 85.1476 634.4 86.1408 633.789C88.1035 632.581 90.0391 631.31 91.9426 629.979C92.736 629.424 93.5378 628.846 94.1584 628.061C94.779 627.277 95.1989 626.242 95.0638 625.29C93.8271 626.509 91.9238 626.4 90.6958 625.469C89.4655 624.54 88.7743 622.986 88.2254 621.436C87.5586 619.554 87.0433 617.595 86.5299 615.641C86.2813 614.692 86.0299 613.736 85.9712 612.728C85.8977 611.483 86.1281 610.184 86.6327 608.99C86.7024 608.822 86.7815 608.634 86.7249 608.474C86.676 608.333 86.5404 608.266 86.4139 608.214C84.1743 607.293 81.3557 607.862 79.302 609.649C78.6299 610.235 78.0377 610.938 77.3441 611.49C76.0479 612.527 74.4887 612.977 73.0444 613.692C71.6 614.407 70.1223 615.576 69.697 617.054Z" fill="#FFE0AD"/>
<path d="M94.4702 595.171C94.0997 595.334 93.759 595.604 93.4981 595.946Z" fill="#FFE0AD"/>
<path d="M77.822 610.007C77.4479 608.817 77.0143 607.637 76.2998 606.681C75.5863 605.727 74.5524 605.014 73.3717 604.981C73.2517 604.71 73.3953 604.362 73.5481 604.075C73.6812 603.826 73.8314 603.576 74.0468 603.413C74.3866 603.155 74.8298 603.163 75.1707 603.337C75.5129 603.507 75.7708 603.815 76.0087 604.13C77.2091 605.721 78.0502 607.668 78.3298 609.789C78.3681 610.08 78.3124 610.498 78.0383 610.547C77.8252 610.584 77.6948 610.33 77.6829 610.1C77.6699 609.867 77.7194 609.618 77.822 610.007Z" fill="#70634D"/>
<path d="M69.4236 617.563C69.4963 615.341 70.2637 612.998 71.7908 611.358C73.3178 609.717 75.6572 608.93 77.4498 609.752C77.7645 609.895 78.1098 610.088 78.4501 609.935C78.7026 609.823 78.8711 609.554 79.0312 609.307C79.7975 608.129 80.7923 607.049 82.0073 606.55C84.1283 605.682 86.4075 606.875 87.5181 608.804C86.9157 608.741 86.3451 608.487 85.7305 608.534C85.1158 608.58 84.4041 609.101 84.4153 609.773C83.7238 609.275 82.8715 608.763 82.0457 609.168C81.5285 609.42 81.1619 609.993 80.9901 610.579C80.816 611.166 80.8056 611.774 80.7985 612.369C80.1293 612.084 79.2675 612.47 78.7608 613.134C78.2541 613.797 78.0629 614.673 78.0639 615.488C77.2609 614.822 76.2153 614.434 75.153 614.645C74.0908 614.857 73.0522 615.757 72.7743 616.913C72.4624 616.267 71.7447 615.916 71.0464 616.072C70.3467 616.233 69.715 616.886 69.4236 617.563Z" fill="#FF4A4A"/>
<path d="M75.1411 633.792C76.2943 635.122 77.4775 636.477 79.0071 637.273C80.5357 638.067 82.5043 638.211 84.0866 637.148C85.254 636.364 86.1169 635.005 87.3738 634.459C87.9987 634.188 88.6616 634.147 89.3089 633.992C90.3893 633.731 91.411 633.149 92.4143 632.572C93.31 632.058 94.2481 631.505 94.8478 630.6C95.5466 629.544 95.6534 628.215 95.7156 626.971C95.7516 626.273 95.7655 625.518 95.3937 624.999C94.9133 625.834 94.3572 626.666 93.5887 627.174C92.8201 627.682 91.7881 627.772 91.2034 627.157C91.0257 628.082 90.8082 629.089 90.1406 629.738C89.2479 630.607 87.8433 630.427 87.0935 629.587C86.9482 630.566 86.2824 631.493 85.432 631.894C84.5816 632.296 83.5863 632.155 82.9548 631.545C83.3277 632.495 82.6503 633.858 81.6772 634.121C81.056 634.292 80.4287 634.054 79.9722 633.643C79.5134 633.233 79.1995 632.663 78.913 632.089C79.0359 632.974 78.3234 633.921 77.505 634.191C76.6866 634.46 75.8372 634.177 75.1411 633.792Z" fill="#FF4A4A"/>
<path d="M39.905 608.882C37.8485 612.336 34.3967 614.096 31.1074 615.643C30.8496 615.765 30.5795 615.888 30.3027 615.88C30.0312 615.872 29.775 615.744 29.5265 615.616C29.0485 615.371 28.5735 615.127 28.0956 614.882C27.7975 614.73 27.4913 614.574 27.1667 614.55C26.8048 614.524 26.4511 614.662 26.1049 614.802C22.8939 616.096 19.7148 617.5 16.5694 619.01C16.4341 619.077 16.294 619.144 16.1933 619.272C16.1026 619.388 16.0537 619.539 16.0147 619.69C15.6371 621.079 15.7504 622.593 16.0307 624.014C16.3111 625.435 16.7542 626.802 17.034 628.22C17.4213 630.173 17.5588 632.351 18.704 633.81C18.8042 633.939 18.9185 634.063 19.06 634.115C19.183 634.159 19.3134 634.142 19.4414 634.126C20.662 633.962 21.8827 633.798 23.1016 633.637C23.6663 633.563 24.2445 633.481 24.7581 633.189C25.6112 632.699 26.1979 631.673 27.0774 631.253C28.1262 630.752 29.3 631.23 30.396 631.556C31.2675 631.812 32.1607 631.967 33.0577 631.992C34.1638 632.022 35.2648 631.854 36.3628 631.684C38.7805 631.312 41.1987 630.943 43.6187 630.57C43.8397 630.536 44.0766 630.494 44.2407 630.312C44.4873 630.035 44.4676 629.566 44.4194 629.166C43.7499 623.402 41.6945 617.978 40.9344 612.231C40.7719 611.003 40.6265 609.662 39.905 608.882Z" fill="#FFEEA3"/>
<path d="M39.8027 609.208C38.7007 610.431 37.5957 611.653 36.4937 612.876C36.4084 612.969 36.3213 613.066 36.2691 613.189C36.2015 613.346 35.7977 612.926 35.7884 613.102C35.7091 615.027 36.0231 617.553 35.9439 619.478C36.5254 618.894 36.8035 617.997 37.0708 617.144C37.9167 614.448 38.8669 611.802 39.8027 609.208Z" fill="#EDDA82"/>
<path d="M33.8483 632.061C32.4432 631.936 31.0377 631.784 29.637 631.607C29.0091 631.527 28.3613 631.435 27.8166 631.054C27.3154 630.705 26.9452 630.145 26.5667 629.617C25.6083 628.274 24.5264 627.056 23.347 625.995C24.4082 626.024 25.4689 626.112 26.5257 626.254C27.313 626.362 28.1104 626.509 28.8351 626.898C29.4072 627.205 29.9194 627.659 30.4122 628.126C31.7021 629.343 32.9175 630.683 33.8483 632.061Z" fill="#EDDA82"/>
<path d="M30.2445 616.004C30.4573 617.039 30.6696 618.072 30.8801 619.107C29.5832 617.806 28.4331 616.298 27.4668 614.633C28.6117 614.622 30.0544 615.07 30.2445 616.004Z" fill="#FFFAD1"/>
<path d="M35.5918 623.079C35.058 625.652 34.7567 628.297 34.6967 630.947C34.6851 631.457 34.5751 632.118 34.153 632.175C33.849 632.216 33.6088 631.883 33.4191 631.592C32.4101 630.035 31.1737 628.689 29.7816 627.642C31.614 625.86 33.5174 624.186 35.5918 623.079Z" fill="#FFFAD1"/>
<path d="M27.5748 631.136C26.3787 631.657 25.2877 632.529 24.4234 633.653C24.2075 633.269 24.1259 632.801 24.0512 632.343C23.693 630.139 23.4098 627.915 23.2042 625.682C24.8795 627.177 26.3541 628.993 27.5748 631.136Z" fill="#FFFAD1"/>
<path d="M44.0683 611.39C44.4521 611.117 44.8747 610.89 45.3217 610.87C45.7681 610.848 46.2427 611.065 46.4821 611.517C46.6535 611.839 46.6905 612.246 46.6477 612.625C46.6049 613.004 46.4869 613.366 46.373 613.724C46.2013 614.251 46.0326 614.78 45.8609 615.307C45.8394 615.373 45.8162 615.442 45.768 615.486C45.7198 615.53 45.6543 615.537 45.5936 615.531C45.251 615.502 44.9827 615.166 44.8005 614.814C44.5052 614.244 44.3459 613.586 44.1919 612.943C44.1282 612.675 44.0623 612.396 44.1067 612.124C44.147 611.868 44.2699 611.567 44.0683 611.39Z" fill="#516D85"/>
<path d="M44.7488 609.016C43.7496 609.074 42.7502 609.069 41.7525 608.999C42.4275 616.135 44.1196 623.069 45.8062 629.962C46.644 629.396 47.4824 628.834 48.3225 628.268C48.4122 628.209 48.5073 628.139 48.5466 628.027C48.5823 627.921 48.5609 627.802 48.5389 627.692C47.3071 621.459 46.0109 615.251 44.7488 609.016Z" fill="#5E88AB"/>
<path d="M41.5109 607.688L46.0811 630.939L44.556 632.277L39.4916 607.44L41.5109 607.688Z" fill="#516D85"/>
<path d="M287.754 615.223L275.513 609.866L269.883 628.487L282.125 633.845L287.754 615.223Z" fill="#BFBFBF"/>
<path d="M287.582 614.256C286.944 614.012 286.417 613.447 286.04 612.781C285.663 612.116 285.422 611.352 285.218 610.586C284.907 609.428 284.669 608.242 284.505 607.041C284.372 606.07 284.288 605.089 284.125 604.127C284.018 603.496 283.849 602.82 283.408 602.453C283.061 602.165 282.614 602.127 282.194 602.128C281.798 602.129 281.393 602.158 281.032 602.345C280.692 602.52 280.41 602.827 280.182 603.177C279.256 604.6 279.28 606.692 279.953 608.306C280.626 609.92 281.851 611.114 283.161 611.995C284.472 612.876 285.893 613.493 287.246 614.278C287.364 614.351 287.551 614.395 287.582 614.256Z" fill="#BFBFBF"/>
<path d="M285.949 621.198L273.7 615.864L285.949 621.198ZM286.091 620.725L273.843 615.391C273.627 615.297 273.386 615.432 273.307 615.692C273.228 615.952 273.341 616.242 273.557 616.337L285.806 621.67C286.022 621.765 286.263 621.63 286.341 621.37C286.42 621.11 286.308 620.82 286.091 620.725Z" fill="#6B6B6B"/>
<path d="M284.268 626.752L272.019 621.418L284.268 626.752ZM284.411 626.279L272.162 620.945C271.946 620.851 271.705 620.986 271.626 621.246C271.548 621.506 271.66 621.796 271.876 621.891L284.125 627.224C284.341 627.319 284.582 627.183 284.661 626.924C284.739 626.664 284.627 626.373 284.411 626.279Z" fill="#6B6B6B"/>
<path d="M287.877 614.816L275.629 609.483L287.877 614.816ZM288.02 614.344L275.771 609.01C275.555 608.915 275.314 609.051 275.236 609.311C275.157 609.571 275.27 609.861 275.486 609.955L287.734 615.289C287.95 615.384 288.192 615.248 288.27 614.988C288.349 614.728 288.236 614.438 288.02 614.344Z" fill="#6B6B6B"/>
<path d="M282.126 633.842L269.878 628.508L282.126 633.842ZM282.269 633.369L270.02 628.036C269.804 627.941 269.563 628.076 269.485 628.336C269.406 628.596 269.519 628.886 269.735 628.981L281.983 634.315C282.2 634.409 282.441 634.274 282.519 634.014C282.598 633.754 282.485 633.464 282.269 633.369Z" fill="#6B6B6B"/>
<path d="M284.717 625.275L272.468 619.941L284.717 625.275ZM284.86 624.802L272.611 619.468C272.395 619.374 272.154 619.509 272.076 619.769C271.997 620.029 272.109 620.319 272.326 620.414L284.574 625.747C284.79 625.842 285.031 625.706 285.11 625.446C285.189 625.186 285.076 624.896 284.86 624.802Z" fill="#6B6B6B"/>
<path d="M285.127 623.916L272.879 618.582L285.127 623.916ZM285.27 623.443L273.021 618.109C272.805 618.015 272.564 618.15 272.486 618.41C272.407 618.67 272.52 618.96 272.736 619.055L284.984 624.388C285.2 624.483 285.442 624.348 285.52 624.088C285.599 623.828 285.486 623.538 285.27 623.443Z" fill="#6B6B6B"/>
<path d="M285.537 622.557L273.289 617.223L285.537 622.557ZM285.68 622.084L273.432 616.75C273.216 616.656 272.974 616.791 272.896 617.051C272.817 617.311 272.93 617.601 273.146 617.696L285.395 623.029C285.611 623.124 285.852 622.988 285.93 622.728C286.009 622.468 285.896 622.178 285.68 622.084Z" fill="#6B6B6B"/>
<path d="M144.447 638.839C143.435 638.998 142.444 638.248 141.85 637.251C141.257 636.251 140.986 635.036 140.734 633.847C139.83 629.56 139.041 625.238 138.368 620.887C138.071 618.966 137.796 617.022 137.875 615.07C138.019 611.514 139.324 608.164 139.685 604.628C139.954 601.99 139.722 599.144 141.018 596.923C141.111 596.261 141.206 595.598 141.299 594.936C141.509 595.399 141.72 595.862 141.93 596.325C142.019 595.452 142.11 594.582 142.199 593.708C142.556 595.685 143.094 597.615 143.801 599.449C143.816 598.802 143.831 598.158 143.845 597.511C144.142 598.18 144.437 598.845 144.733 599.514C144.667 598.687 144.601 597.861 144.534 597.031C144.999 598.219 145.601 599.335 146.312 600.331C146.225 599.231 146.138 598.129 146.051 597.03C146.583 597.995 147.119 598.962 147.651 599.927C147.591 598.549 147.535 597.174 147.476 595.796C148.153 597.607 148.834 599.421 149.511 601.232C149.747 601.859 149.984 602.492 150.329 603.036C150.66 603.559 151.08 603.985 151.477 604.438C155.157 608.656 156.542 614.924 157.769 620.86C158.308 623.475 158.85 626.086 159.315 628.721C159.553 630.064 159.77 631.464 159.506 632.8C159.242 634.135 158.366 635.398 157.228 635.509" fill="#4E8F3C"/>
<path d="M171.132 619.838C173.688 620.31 175.777 622.473 178.15 623.709C179.647 624.489 181.261 624.9 182.889 625.237C181.972 627.039 181.598 629.23 181.843 631.321C176.055 628.151 169.458 627.738 163.14 628.583C164.495 628.28 165.811 627.726 167.028 626.946C166.474 626.349 165.803 625.906 165.085 625.664C165.769 625.61 166.451 625.552 167.135 625.498C165.503 624.995 163.977 624 162.741 622.622C163.807 622.816 164.893 622.869 165.967 622.776C165.375 621.932 164.632 621.241 163.804 620.765C164.516 620.668 165.239 620.697 165.946 620.841C164.821 620.267 163.785 619.449 162.9 618.436C165.35 619.772 167.924 620.785 170.557 621.448C170.304 621.108 170.051 620.768 169.797 620.428C170.38 620.6 170.965 620.771 171.547 620.943C171.387 620.682 171.225 620.414 171.132 619.838Z" fill="#4E8F3C"/>
<path d="M137.739 619.396C141.051 619.307 144.384 619.219 147.629 618.414C150.874 617.613 154.06 616.049 156.495 613.345C157.203 616.852 157.908 620.363 158.617 623.873C158.811 624.838 159.003 625.867 158.725 626.799C158.36 628.028 157.296 628.72 156.299 629.233C151.719 631.588 146.63 632.481 141.682 631.804C141.245 631.745 140.781 631.658 140.45 631.305C140.138 630.974 140.003 630.469 139.888 629.99C139.043 626.538 138.364 623.027 137.739 619.396Z" fill="#F0D586"/>
<path d="M183.064 625.091C182.776 625.307 182.607 625.688 182.473 626.059C182.059 627.203 181.864 628.443 181.767 629.684C181.718 630.275 181.697 630.9 181.923 631.432C182.146 631.961 182.698 632.336 183.145 632.09C183.396 631.954 183.56 631.662 183.695 631.374C184.302 630.064 184.525 628.5 184.314 627.022C184.251 626.591 184.151 626.159 183.941 625.804C183.731 625.448 183.393 625.177 183.064 625.091Z" fill="#9CC295"/>
<path d="M200.67 608.445C200.783 608.949 201.285 609.104 201.683 608.939C202.081 608.774 202.412 608.386 202.762 608.069C204.112 606.853 205.834 606.675 207.343 607.117C208.851 607.562 210.192 608.561 211.514 609.55C213.395 610.96 215.278 612.368 217.157 613.777C217.878 614.318 218.616 614.876 219.119 615.74C219.621 616.604 219.839 617.854 219.432 618.893C219.284 619.273 219.062 619.603 218.929 619.99C218.796 620.378 218.773 620.873 218.999 621.136C219.091 621.244 219.214 621.3 219.336 621.345C221.24 622.083 223.498 621.438 225.141 619.683C225.556 619.241 225.946 618.722 226.437 618.466C226.839 618.256 227.271 618.242 227.687 618.259C229.1 618.318 230.539 618.748 231.559 619.938C232.578 621.129 233.064 623.21 232.426 624.945C231.982 626.153 231.065 627.079 230.817 628.363C230.579 629.583 231.009 630.861 230.674 632.053C230.429 632.92 229.811 633.567 229.15 633.893C228.492 634.218 227.79 634.269 227.105 634.283C225.103 634.332 223.112 634.126 221.172 633.672C220.914 633.612 220.654 633.545 220.432 633.384C219.372 632.621 219.657 630.307 218.752 629.271C218.366 628.829 217.822 628.696 217.298 628.624C216.427 628.504 215.54 628.512 214.656 628.647C214.045 628.738 213.423 628.892 212.834 628.754C211.156 628.364 210.368 625.882 208.877 624.886C208.698 624.766 208.499 624.666 208.291 624.698C207.671 624.793 207.436 625.83 207.061 626.514C206.633 627.295 205.888 627.705 205.182 627.757C204.476 627.809 203.799 627.554 203.152 627.254C201.588 626.529 200.076 625.488 199.052 623.813C198.029 622.137 197.569 619.73 198.208 617.587C198.468 616.718 198.898 615.903 198.994 614.992C199.089 614.084 198.638 613.029 197.943 612.957C199.193 611.894 200.182 610.251 200.67 608.445Z" fill="#9DD1F3"/>
<path d="M196.911 613.28C197.134 613.447 197.428 613.422 197.684 613.289C197.939 613.157 198.162 612.927 198.372 612.688C199.441 611.477 200.3 609.941 200.853 608.258C200.928 608.028 200.999 607.785 200.987 607.544C200.969 607.22 200.802 606.962 200.635 606.736C200.177 606.116 199.656 605.576 199.091 605.123C198.878 604.952 198.644 604.792 198.386 604.805C198.118 604.819 197.864 605.02 197.638 605.234C196.432 606.374 195.567 608.046 194.859 609.75C194.761 609.986 194.664 610.229 194.636 610.487C194.567 611.125 194.928 611.649 195.298 612.024C195.834 612.571 196.463 612.948 196.911 613.28Z" fill="#707070"/>
<path d="M307.063 621.131C307.063 621.131 307.593 619.824 309.024 621.207C310.373 622.511 309.547 623.281 309.547 623.281" fill="#5E5E5E"/>
<path d="M302.604 634.352C302.604 634.352 302.053 635.763 300.595 634.285C299.22 632.89 300.07 632.056 300.07 632.056" fill="#5E5E5E"/>
<path d="M307.16 620.569L299.889 631.97C299.889 631.97 300.682 634.188 302.703 634.673L309.908 623.182C309.906 623.182 309.203 621.247 307.16 620.569Z" fill="#7A7A7A"/>
<path d="M307.173 620.571L305.212 623.594C305.212 623.594 306.92 623.919 307.984 626.167L309.911 623.148C309.91 623.148 309.25 621.415 307.173 620.571Z" fill="#F7E468"/>
<path d="M307.655 622.117C308.036 622.334 308.438 622.57 308.665 622.999C308.676 623.02 308.688 623.042 308.707 623.052C308.727 623.061 308.754 623.045 308.753 623.022" fill="#F7E468"/>
<path d="M308.548 621.904C308.325 622.327 308.103 622.751 307.88 623.174Z" fill="#F7E468"/>
<path d="M308.564 622.024C308.337 622.351 308.119 622.69 307.915 623.038Z" fill="white"/>
<path d="M308.564 622.024C308.337 622.351 308.119 622.69 307.915 623.038" stroke="black" stroke-width="2" stroke-miterlimit="10"/>
<path d="M307.784 622.149C308.172 622.229 308.525 622.532 308.711 622.95" stroke="black" stroke-width="2" stroke-miterlimit="10"/>
<path d="M301.364 632.045C301.631 632.513 302.034 632.868 302.486 633.03" stroke="#F7E468" stroke-width="2" stroke-miterlimit="10"/>
<path d="M305.778 632.303C305.778 632.303 304.576 632.357 305.087 634.415C305.569 636.355 306.473 635.776 306.473 635.776" fill="#5E5E5E"/>
<path d="M317.602 632.708C317.602 632.708 318.892 632.671 318.32 630.548C317.779 628.546 316.815 629.124 316.815 629.124" fill="#5E5E5E"/>
<path d="M305.313 632.189L316.82 628.898C316.82 628.898 318.215 630.603 317.812 632.937L306.262 636.122C306.262 636.122 305.05 634.624 305.313 632.189Z" fill="#7A7A7A"/>
<path d="M305.309 632.204L308.372 631.294C308.372 631.294 307.968 633.236 309.281 635.24L306.233 636.113C306.232 636.111 305.159 634.737 305.309 632.204Z" fill="#F7E468"/>
<path d="M306.307 633.318C306.327 633.807 306.354 634.325 306.596 634.733C306.607 634.753 306.62 634.775 306.619 634.798C306.618 634.821 306.598 634.846 306.578 634.835" fill="#F7E468"/>
<path d="M305.802 634.183C306.211 634.112 306.621 634.039 307.03 633.968Z" fill="#F7E468"/>
<path d="M305.887 634.245C306.225 634.13 306.567 634.032 306.912 633.951Z" fill="white"/>
<path d="M305.887 634.245C306.225 634.13 306.567 634.032 306.912 633.951" stroke="black" stroke-width="2" stroke-miterlimit="10"/>
<path d="M306.282 633.462C306.194 633.905 306.292 634.399 306.54 634.759" stroke="black" stroke-width="2" stroke-miterlimit="10"/>
<path d="M316.312 630.492C316.568 630.957 316.685 631.524 316.636 632.067" stroke="#F7E468" stroke-width="2" stroke-miterlimit="10"/>
<path d="M-48 -95C-39.3333 -68.3333 13.8 -12.3 157 -1.5C300.2 9.3 359 79.6667 370.5 113.5" stroke="#48A4BD" stroke-width="70"/>
</g>
<defs>
<linearGradient id="paint0_linear_366_257" x1="160" y1="-2541.28" x2="160" y2="686.04" gradientUnits="userSpaceOnUse">
<stop stop-color="#E3FAFF"/>
<stop offset="1" stop-color="#A3DDF1"/>
</linearGradient>
<clipPath id="clip0_366_257">
<rect width="320" height="3825" fill="white" transform="translate(0 -3150)"/>
</clipPath>
</defs>
</svg>
