<svg width="1440" height="711" viewBox="0 0 1440 711" fill="none" xmlns="http://www.w3.org/2000/svg">
<g clip-path="url(#clip0_334_282)">
<rect width="1440" height="5493" transform="translate(0 -3737)" fill="white"/>
<g clip-path="url(#clip1_334_282)">
<rect width="1440" height="4420.59" transform="translate(0 -2983)" fill="#693A3A"/>
<path d="M1440 -2983H0V1437.59H1440V-2983Z" fill="url(#paint0_linear_334_282)"/>
<path d="M1440.5 -2983C1460.5 -2474 1272 -2349.5 1272 -2349.5C1272 -2349.5 1199.21 -2260.5 1050.5 -2260.5C242.5 -2260.5 158 -2201.5 158 -2035C158 -1859.67 418 -1863 503.5 -1863C589 -1863 1219.94 -1870.39 1258 -1745C1303.5 -1595.1 1004 -1532.6 644.5 -1559.1C261.142 -1587.36 201.5 -1490.6 206.5 -1439.1C211.5 -1387.6 322 -1299.1 738.5 -1402.6C1155 -1506.1 1251 -1392.6 1253.5 -1333.1C1256 -1273.6 1146.5 -1119 738.5 -1243C330.5 -1367 186 -1241 206.5 -1173.5C227 -1106 348 -1063 606.5 -1135.5C865 -1208 1175.28 -1203.1 1239.78 -1107.6C1304.28 -1012.1 1143.5 -922.099 860.5 -1004.1C853 -1006.27 808.053 -1011.43 773.5 -1015.6C768.981 -1016.14 765.253 -1020.32 761.563 -1024.62L748.5 -1034.48V-1048.57C757.979 -1048.4 761.438 -1039.66 765.213 -1032.88L773.5 -1025.1C890.5 -1015.6 1092.42 -938.27 1207.5 -1019.1C1291.5 -1078.1 1203 -1123.1 1182.5 -1135.5C1143.17 -1155.33 943.4 -1199.1 673 -1135.5C335 -1056 299 -1051 206.5 -1147C114 -1243 343.5 -1323 487.5 -1303L495.537 -1301.88C632.706 -1282.84 619.456 -1290.83 851 -1227.1C1087 -1162.14 1261.24 -1269.08 1234 -1343.1C1228.5 -1406.6 1057 -1473.1 718.5 -1384.6C561.167 -1351.1 241.4 -1298.4 203 -1407.6C155 -1544.1 332 -1593.1 503.5 -1584.6C675 -1576.1 984.202 -1550.58 1143.5 -1624.1C1299.5 -1696.1 1268.19 -1773.05 1090 -1810.5C864.5 -1857.9 876.5 -1819.76 550 -1833.5C421.5 -1838.91 179.881 -1842 142.281 -1960C95.2809 -2107.5 133 -2230 452 -2260.5C771 -2291 1061 -2238 1195 -2338C1372.88 -2470.75 1406.11 -2720.5 1206 -2856C974.623 -3012.67 69 -2777.1 -12 -2977.1L1440.5 -2983Z" fill="#48A4BD"/>
<path d="M584 777.401C1170.89 794.422 1317.5 681.901 1344 378.901C1370.66 74.0649 1351.92 43.5493 1296.5 -96.0986C1284 -127.599 1272 -144.099 1266.5 -150.599H958.5C959.522 -124.099 1075.5 -96.0986 1189 12.9014C1268 131.401 1311.5 197.468 1311.5 365.901C1311.5 686.901 1108.51 704.856 997.5 735.401C886.494 765.947 648.967 764.901 471.5 764.901C333.5 764.901 244.483 822.401 215.5 877.901C178.945 947.901 229.572 1003.08 298.5 1028.4C347.5 1046.4 421.667 1057.23 451.5 1052.9V1044.4H431C130.5 1028.4 153 764.901 584 777.401Z" fill="#48A4BD"/>
<path d="M773.5 -1025.1C890.5 -1015.6 1092.42 -938.27 1207.5 -1019.1C1291.5 -1078.1 1203 -1123.1 1182.5 -1135.5C1143.17 -1155.33 943.4 -1199.1 673 -1135.5C335 -1056 299 -1051 206.5 -1147C114 -1243 343.5 -1323 487.5 -1303M773.5 -1025.1C763.423 -1026.41 763.558 -1048.29 748.5 -1048.57M773.5 -1025.1L748.5 -1048.57M487.5 -1303L495.537 -1301.88M487.5 -1303C490.219 -1302.62 492.897 -1302.25 495.537 -1301.88M1234 -1343.1C1261.24 -1269.08 1087 -1162.14 851 -1227.1C619.456 -1290.83 632.706 -1282.84 495.537 -1301.88M1234 -1343.1C1228.5 -1406.6 1057 -1473.1 718.5 -1384.6C561.167 -1351.1 241.4 -1298.4 203 -1407.6C155 -1544.1 332 -1593.1 503.5 -1584.6C675 -1576.1 984.202 -1550.58 1143.5 -1624.1C1299.5 -1696.1 1268.19 -1773.05 1090 -1810.5C864.5 -1857.9 876.5 -1819.76 550 -1833.5C421.5 -1838.91 179.881 -1842 142.281 -1960C95.2809 -2107.5 133 -2230 452 -2260.5C771 -2291 1061 -2238 1195 -2338C1372.88 -2470.75 1406.11 -2720.5 1206 -2856C974.623 -3012.67 69 -2777.1 -12 -2977.1L1440.5 -2983C1460.5 -2474 1272 -2349.5 1272 -2349.5C1272 -2349.5 1199.21 -2260.5 1050.5 -2260.5C242.5 -2260.5 158 -2201.5 158 -2035C158 -1859.67 418 -1863 503.5 -1863C589 -1863 1219.94 -1870.39 1258 -1745C1303.5 -1595.1 1004 -1532.6 644.5 -1559.1C261.142 -1587.36 201.5 -1490.6 206.5 -1439.1C211.5 -1387.6 322 -1299.1 738.5 -1402.6C1155 -1506.1 1251 -1392.6 1253.5 -1333.1C1256 -1273.6 1146.5 -1119 738.5 -1243C330.5 -1367 186 -1241 206.5 -1173.5C227 -1106 348 -1063 606.5 -1135.5C865 -1208 1175.28 -1203.1 1239.78 -1107.6C1304.28 -1012.1 1143.5 -922.099 860.5 -1004.1C853 -1006.27 808.053 -1011.43 773.5 -1015.6M1234 -1343.1C1226.08 -1380.6 1234.05 -1343.05 1234 -1343.1ZM748.5 -1048.57V-1034.48M748.5 -1034.48C757.996 -1033.95 764.002 -1016.74 773.5 -1015.6M748.5 -1034.48L773.5 -1015.6M1344 378.901C1317.5 681.901 1170.89 794.422 584 777.401C153 764.901 130.5 1028.4 431 1044.4H451.5V1052.9C421.667 1057.23 347.5 1046.4 298.5 1028.4C229.572 1003.08 178.945 947.901 215.5 877.901C244.483 822.401 333.5 764.901 471.5 764.901C648.967 764.901 886.494 765.947 997.5 735.401C1108.51 704.856 1311.5 686.901 1311.5 365.901C1311.5 197.468 1268 131.401 1189 12.9014C1075.5 -96.0986 959.522 -124.099 958.5 -150.599H1266.5C1272 -144.099 1284 -127.599 1296.5 -96.0986C1351.92 43.5494 1370.66 74.0649 1344 378.901Z" stroke="#48A4BD" stroke-width="3"/>
<path d="M1444.5 -2984.6C1433.3 -2903.62 1415.05 -2774.97 1420.78 -2686.26C1422.94 -2652.83 1423.65 -2603.06 1414.59 -2598.75C1432.72 -2501.06 1432.59 -2360.43 1414.29 -2263.2C1421.75 -2218.32 1420.22 -2154.99 1410.74 -2115.91C1422.05 -2095.69 1427.32 -2044.5 1427.29 -1997.36C1427.26 -1950.22 1423.07 -1904.75 1420.47 -1858.64C1415.97 -1778.99 1416.18 -1696.35 1418.96 -1615.6C1420.43 -1573.01 1420.98 -1518.1 1410.64 -1499.89C1413.5 -1488.8 1416.35 -1477.71 1419.2 -1466.61C1419.43 -1393.22 1413.88 -1319.72 1403.43 -1257.78C1412.93 -1223.78 1414.04 -1169.16 1414.55 -1119.85C1415.06 -1069.93 1415.57 -1019.99 1416.09 -970.068C1414.25 -975.791 1418.92 -972.385 1418.76 -963.429C1418 -919.227 1417.24 -875.033 1416.47 -830.831C1413.04 -812.586 1409.61 -794.343 1406.18 -776.099C1410.72 -774.638 1415 -764.312 1417.24 -749.376C1411.83 -734.917 1406.41 -720.465 1401 -706.007C1404.57 -690.942 1408.14 -675.87 1411.7 -660.805C1413.69 -570.728 1415.69 -480.651 1417.68 -390.567C1418.61 -348.439 1418.36 -297.09 1408.71 -275.508C1412.9 -286.379 1418.65 -264.895 1417.8 -245.985C1416.94 -227.082 1412.47 -213.978 1408.34 -202.797C1409.39 -186.725 1410.44 -170.662 1411.42 -154.522C1423.1 38.7435 1423.43 241.616 1412.38 435.404C1410.94 460.748 1416.22 501.597 1420.75 482.111C1417.74 492.513 1414.48 505.185 1414.78 520.53C1415.09 535.875 1421.75 545.201 1423.18 530.78C1417.18 545.39 1413.01 570.221 1412.08 596.905C1417.82 600.191 1419.14 636.466 1413.84 645.437C1417.02 699.268 1418.29 754.682 1417.63 809.77C1418.25 835.41 1418.88 861.05 1419.5 886.69C1420.15 909.226 1425.63 934.79 1426.28 957.327C1422.47 1113.02 1416.53 1266.63 1418.13 1422.87C1422.92 1466.47 1428.48 1482.88 1441 1481.22" fill="#B59D92"/>
<path d="M-12.0458 1427.42C5.95915 1345.94 16.1236 1230.66 6.90784 1141.4C4.11951 1114.4 7.68837 1057.29 16.7435 1033.58C20.0514 1024.92 20.6688 1010.2 18.1339 999.424C-4.48892 903.282 -2.27281 776.278 24.6869 686.085C24.7948 685.721 24.7998 685.176 24.6994 684.79C13.014 640.099 15.3632 577.566 30.1631 538.362C30.3539 537.863 30.2987 536.939 30.0628 536.667C12.2436 515.941 3.93128 464.959 3.97896 417.989C4.02916 370.565 10.7528 324.806 14.939 278.411C22.1696 198.279 21.8358 115.125 17.3659 33.8798C15.0344 -8.51052 14.1459 -63.0048 30.1933 -81.9215C30.4342 -82.2016 30.4844 -83.1553 30.2861 -83.6398L17.1074 -115.727C17.0296 -115.916 16.9845 -116.197 16.982 -116.5C16.6457 -189.858 25.49 -263.321 42.1221 -325.332C42.24 -325.771 42.2124 -326.422 42.0618 -326.763C27.0485 -361.008 25.2742 -415.609 24.4635 -464.918C23.6504 -514.363 22.8397 -563.815 22.0265 -613.26C22.009 -614.381 22.5536 -614.774 22.6665 -613.707C22.9552 -610.959 17.4688 -614.578 17.6822 -622.306C18.9094 -666.665 20.1342 -711.023 21.3615 -755.381C21.3665 -755.601 21.3966 -755.813 21.4468 -755.972L37.459 -809.27C37.6447 -809.891 37.5142 -810.875 37.2381 -810.951C30.3438 -812.866 23.9114 -822.684 20.3601 -836.748C20.2371 -837.233 20.2898 -837.936 20.4655 -838.232L45.829 -880.614C46.0298 -880.955 46.0599 -881.795 45.8867 -882.25L29.1341 -926.532C29.0714 -926.699 29.0312 -926.933 29.0212 -927.183L19.429 -1198.69C17.9306 -1241.08 18.3297 -1292.75 33.8475 -1314.46C27.1038 -1303.53 17.8679 -1325.14 19.2382 -1344.17C20.591 -1362.96 27.6258 -1376.07 34.2114 -1387.22C34.3494 -1387.46 34.4121 -1387.95 34.3645 -1388.4C32.698 -1404.32 31.034 -1420.22 29.4905 -1436.2C10.7076 -1630.65 10.173 -1834.77 27.937 -2029.76C30.261 -2055.26 21.7781 -2096.36 14.4823 -2076.75C19.3235 -2087.22 24.5714 -2099.97 24.0795 -2115.41C23.6403 -2129.21 15.0469 -2138.17 11.5835 -2129.58C11.2748 -2128.81 11.6111 -2127.34 11.96 -2127.93C20.7441 -2142.64 26.8352 -2166.06 28.3662 -2191.22C28.4013 -2191.78 28.2683 -2192.31 28.08 -2192.4C19.2533 -2196.43 17.2354 -2231.35 25.3018 -2240.77C25.4649 -2240.96 25.5552 -2241.48 25.5076 -2241.98C20.468 -2295.83 18.4451 -2351.25 19.5068 -2406.34C19.5068 -2406.4 19.5068 -2406.45 19.5042 -2406.51L16.5076 -2483.81L13.3629 -2551.71C13.3579 -2551.79 13.3579 -2551.87 13.3629 -2551.96C19.4792 -2708.47 2.08002 -2822.56 -0.5 -2979.6L-13.5 -2979.15C-21.1547 -3022.84 -12.0347 -3024.92 -25 -3051.6" fill="#B59D92"/>
<path d="M1358.07 359.501C1360.38 358.934 1362.82 358.805 1365.22 359.055C1367.62 359.32 1369.98 359.978 1372.23 360.902C1374.47 361.848 1376.62 363.059 1378.6 364.489C1380.58 365.957 1382.38 367.615 1384.06 369.401C1385.73 371.195 1387.26 373.11 1388.69 375.093C1390.12 377.076 1391.41 379.135 1392.66 381.209C1395.13 385.364 1397.44 389.573 1399.7 393.819C1404.16 402.326 1408.39 410.894 1413 419.167C1417.54 427.478 1422.64 435.395 1428.58 442.533L1424.29 446.416C1418.79 440.656 1415.29 433.336 1413.34 425.904C1412.37 422.172 1411.69 418.395 1411.32 414.603C1410.94 410.811 1410.82 407.019 1410.84 403.288C1410.9 388.316 1412.62 373.92 1409.6 359.849C1408.23 352.803 1406.27 345.809 1403.99 338.891C1401.65 331.973 1399.4 325.032 1396.1 318.697C1394.44 315.541 1392.51 312.536 1390.23 309.826C1387.94 307.117 1385.33 304.642 1382.42 302.56C1376.65 298.321 1369.83 295.46 1362.62 294.302C1366.27 294.484 1369.9 295.15 1373.43 296.255C1376.95 297.375 1380.34 298.95 1383.52 300.91C1386.7 302.87 1389.61 305.27 1392.25 307.98C1394.89 310.689 1397.11 313.792 1399.04 317.024C1402.89 323.534 1405.58 330.504 1408.17 337.4C1409.46 340.866 1410.68 344.379 1411.8 347.936C1412.36 349.715 1412.88 351.508 1413.38 353.31C1413.85 355.126 1414.3 356.943 1414.69 358.782C1415.49 362.453 1416.12 366.185 1416.51 369.954C1416.89 373.723 1417.05 377.493 1417.09 381.224C1417.14 388.695 1416.69 396.036 1416.74 403.265C1416.76 406.883 1416.89 410.456 1417.28 413.975C1417.66 417.495 1418.21 420.984 1419.08 424.367C1420.79 431.126 1423.84 437.477 1428.44 442.374L1424.16 446.257C1417.99 438.604 1412.94 430.203 1408.49 421.635C1404.04 413.051 1400.17 404.272 1396.08 395.658C1394.07 391.336 1392 387.045 1389.8 382.852C1387.58 378.681 1385.2 374.624 1382.27 371.006C1380.8 369.212 1379.19 367.517 1377.43 366.018C1375.67 364.519 1373.74 363.203 1371.68 362.128C1369.61 361.061 1367.41 360.266 1365.12 359.766C1362.81 359.305 1360.42 359.198 1358.07 359.501Z" fill="#B1BF91"/>
<path d="M1367.95 386.243C1367.41 388.445 1367.39 390.701 1367.84 392.835C1368.28 394.977 1369.15 396.998 1370.23 398.875C1372.36 402.667 1375.34 405.929 1378.44 409.048C1381.58 412.136 1384.92 415.209 1388.1 418.343C1391.33 421.454 1394.51 424.602 1397.72 427.743C1400.9 430.915 1404.08 434.018 1407.24 437.295C1410.4 440.565 1413.48 444.032 1416.19 447.884C1418.9 451.722 1421.19 456.036 1422.65 460.676C1424.09 465.308 1424.7 470.379 1423.91 475.367L1422.67 483.163L1418.51 476.495C1416.86 473.838 1415.04 471.287 1413.05 468.858C1411.02 466.466 1408.87 464.165 1406.54 462.054C1401.87 457.83 1396.64 454.212 1390.97 451.404C1390.26 451.04 1389.55 450.692 1388.82 450.382L1386.65 449.413C1385.18 448.846 1383.71 448.225 1382.19 447.763C1380.69 447.226 1379.15 446.847 1377.61 446.423C1376.09 446.045 1374.55 445.742 1372.99 445.553C1369.87 445.212 1366.68 445.265 1363.64 446.075C1360.6 446.847 1357.79 448.656 1356 451.457C1357.27 448.399 1360.01 445.939 1363.18 444.713C1364.75 444.07 1366.39 443.593 1368.07 443.343C1369.75 443.093 1371.44 442.98 1373.14 442.98C1374.84 443.01 1376.54 443.131 1378.22 443.396C1379.86 443.698 1381.52 443.963 1383.14 444.387C1384.78 444.743 1386.38 445.258 1387.99 445.727C1389.57 446.287 1391.18 446.794 1392.72 447.483C1395.85 448.74 1398.86 450.314 1401.75 452.062C1404.68 453.78 1407.39 455.832 1410.02 457.981C1412.66 460.138 1415.05 462.583 1417.34 465.119C1419.61 467.685 1421.63 470.462 1423.5 473.339L1418.11 474.459C1418.63 470.53 1418.21 466.42 1416.94 462.492C1416.32 460.524 1415.54 458.594 1414.59 456.725C1413.65 454.855 1412.54 453.061 1411.35 451.29C1406.55 444.244 1400.09 437.984 1394.08 431.323C1388 424.701 1382.01 418.108 1376.07 411.273C1373.12 407.807 1370.41 403.992 1368.55 399.723C1367.65 397.581 1367 395.303 1366.84 392.979C1366.67 390.655 1367.04 388.309 1367.95 386.243Z" fill="#B1BF91"/>
<path d="M1372.43 577.836C1376 575.505 1380.32 574.241 1384.68 573.969C1386.86 573.832 1389.07 573.893 1391.26 574.188C1393.44 574.491 1395.6 574.983 1397.71 575.649C1401.94 576.973 1405.9 579.009 1409.59 581.356C1413.28 583.717 1416.71 586.404 1419.97 589.22L1416.41 593.557C1410.31 589.023 1404.19 584.255 1398.78 578.48C1396.08 575.596 1393.58 572.447 1391.49 568.988C1389.38 565.544 1387.75 561.744 1386.67 557.831C1385.62 553.926 1385.13 550.088 1384.45 546.425C1384.13 544.586 1383.76 542.8 1383.27 541.059C1382.79 539.318 1382.2 537.615 1381.43 536.018C1380.67 534.421 1379.71 532.937 1378.57 531.613C1378 530.947 1377.39 530.333 1376.71 529.804C1376.03 529.259 1375.29 528.789 1374.5 528.388C1372.93 527.593 1371.19 527.056 1369.39 526.958C1368.49 526.912 1367.57 526.98 1366.66 527.154C1365.76 527.351 1364.89 527.684 1364.03 528.116C1364.76 527.495 1365.58 526.973 1366.48 526.587C1367.39 526.216 1368.35 525.943 1369.34 525.83C1371.31 525.61 1373.37 525.815 1375.28 526.473C1377.2 527.101 1379.05 528.199 1380.58 529.561C1382.14 530.916 1383.41 532.559 1384.5 534.284C1385.58 536.018 1386.46 537.849 1387.18 539.726C1387.9 541.603 1388.47 543.519 1388.97 545.396C1389.95 549.173 1390.7 552.874 1391.81 556.295C1392.09 557.15 1392.39 557.983 1392.73 558.8C1393.06 559.625 1393.39 560.443 1393.8 561.23L1394.38 562.426C1394.59 562.819 1394.81 563.198 1395.03 563.591L1395.68 564.757L1396.4 565.885C1398.34 568.882 1400.62 571.69 1403.12 574.347C1408.13 579.66 1413.95 584.338 1419.82 589.114L1416.26 593.451C1413.21 590.612 1410.11 587.888 1406.83 585.451C1403.56 583.013 1400.08 580.887 1396.39 579.236C1394.56 578.419 1392.64 577.753 1390.68 577.253C1388.72 576.746 1386.71 576.375 1384.68 576.224C1380.61 575.906 1376.41 576.337 1372.43 577.836Z" fill="#B1BF91"/>
<path d="M52.055 381.778C55.58 387.008 57.1775 393.525 57.14 399.959C57.08 406.423 55.61 412.819 53.24 418.821C50.8625 424.861 47.5325 430.379 44.0375 435.662C42.2825 438.303 40.4975 440.899 38.69 443.458C36.875 446.016 35.075 448.552 33.35 451.11C31.625 453.676 29.975 456.257 28.46 458.898C26.9525 461.54 25.565 464.234 24.29 466.997C21.755 472.53 19.7225 478.32 18.0275 484.232C14.5925 496.054 12.56 508.369 10.4075 520.729L5 520.131C5.495 513.554 7.16 507.112 9.8075 501.171C12.4325 495.222 15.965 489.711 20.2625 484.928L23.5925 481.461L27.17 478.267L30.9875 475.391L35.0075 472.833C40.49 469.646 46.4825 467.398 52.6325 466.384C46.685 468.253 41.135 471.077 36.1475 474.634L32.5175 477.435L29.12 480.5L25.9475 483.777L23.03 487.274C19.34 492.088 16.2875 497.379 14.135 502.995C11.9975 508.611 10.7 514.53 10.4525 520.472L5.045 519.874C6.8375 507.445 8.735 494.873 12.2825 482.551C14.09 476.413 16.205 470.312 19.0175 464.492C19.745 463.046 20.405 461.578 21.215 460.17L22.3775 458.043C22.775 457.339 23.21 456.658 23.6225 455.961C25.31 453.214 27.1175 450.573 28.9625 447.992C32.66 442.829 36.5525 437.932 40.2425 432.952C42.08 430.462 43.8425 427.934 45.4775 425.345C47.1125 422.742 48.6575 420.13 49.97 417.375C51.29 414.627 52.3625 411.767 53.24 408.837C54.1175 405.916 54.77 402.911 55.055 399.86C55.625 393.775 54.8225 387.455 52.055 381.778Z" fill="#B1BF91"/>
<path d="M12.4539 424.5C16.2584 427.33 19.4741 431.044 21.957 435.201C22.5289 436.26 23.1697 437.305 23.6985 438.397C24.1917 439.501 24.7633 440.584 25.2063 441.718C25.6256 442.851 26.0994 443.987 26.4543 445.145C26.7925 446.305 27.2044 447.46 27.4879 448.64C28.7501 453.336 29.4507 458.158 29.771 462.973C30.089 467.794 30.0148 472.62 29.6748 477.406C28.9713 486.931 27.4133 496.342 25.4407 505.589C23.4348 514.84 21.0093 523.942 18.4966 532.972L14.5901 529.809C23.0734 525.654 32.0548 522.565 41.2692 520.733L44.7291 520.083L48.2071 519.543L51.7008 519.145L55.2008 518.845C59.87 518.531 64.5536 518.526 69.1988 518.89C64.578 519.39 60.0083 520.067 55.501 520.958L52.1359 521.658L48.7937 522.455L45.4796 523.309L42.1909 524.252C33.4764 526.91 25.0625 530.37 17.1339 534.699L11.7918 537.618L13.2275 531.536C15.3846 522.403 17.6291 513.341 19.5744 504.244C21.5482 495.158 23.2111 486.024 24.247 476.834C25.2873 467.701 25.4683 458.446 23.9727 449.382C23.803 448.243 23.5191 447.134 23.3042 446.01C23.075 444.881 22.71 443.799 22.438 442.679C22.1469 441.568 21.732 440.492 21.3886 439.394C21.0094 438.307 20.5277 437.264 20.0986 436.184C18.2222 431.956 15.6856 427.98 12.4539 424.5Z" fill="#B1BF91"/>
<path d="M40.9523 579.108C41.9798 580.917 42.8047 582.869 43.3747 584.921C43.8922 586.979 44.2373 589.099 44.3273 591.249C44.3873 593.391 44.2823 595.54 44.0273 597.682C43.7198 599.809 43.2848 601.913 42.7148 603.987C41.5973 608.12 39.9247 612.131 38.0197 615.893C36.1372 619.677 34.0373 623.295 32.0348 626.883C31.0223 628.669 30.0248 630.456 29.0873 632.242C28.1498 634.036 27.2273 635.815 26.4173 637.631C24.7673 641.257 23.4698 644.928 22.5623 648.803C20.6648 656.523 20.0123 664.668 19.2848 672.918L14.0273 671.805C15.6623 667.536 18.4148 663.873 21.6548 660.974C24.9023 658.067 28.6298 655.857 32.5448 654.291C34.4948 653.511 36.4748 652.845 38.4848 652.323C40.4948 651.808 42.5123 651.407 44.5298 651.074C48.5723 650.423 52.6223 650.097 56.6723 649.893C52.7498 650.953 48.8273 651.936 45.0098 653.132C43.0973 653.723 41.2148 654.374 39.3848 655.123C37.5548 655.857 35.7548 656.652 34.0373 657.568C30.6323 659.407 27.4898 661.685 24.8873 664.395C22.2848 667.097 20.2373 670.253 19.1273 673.667L12.9998 692.499L13.8698 672.554C14.2298 664.274 14.7023 655.774 16.7348 647.35C17.2448 645.253 17.8673 643.164 18.6023 641.113C18.9548 640.076 19.3748 639.077 19.7723 638.062C20.2148 637.071 20.6423 636.072 21.1148 635.111C22.9598 631.213 25.1573 627.587 27.3548 624.052C31.7723 616.991 36.3773 610.315 39.2948 602.836C40.7348 599.097 41.7998 595.207 42.2123 591.195C42.3623 589.19 42.4223 587.169 42.2348 585.133C42.0023 583.112 41.5898 581.099 40.9523 579.108Z" fill="#B1BF91"/>
</g>
</g>
<defs>
<linearGradient id="paint0_linear_334_282" x1="720" y1="-2928.31" x2="720" y2="1406.75" gradientUnits="userSpaceOnUse">
<stop stop-color="#E3FAFF"/>
<stop offset="1" stop-color="#86D0EB"/>
</linearGradient>
<clipPath id="clip0_334_282">
<rect width="1440" height="5493" fill="white" transform="translate(0 -3737)"/>
</clipPath>
<clipPath id="clip1_334_282">
<rect width="1440" height="4420.59" fill="white" transform="translate(0 -2983)"/>
</clipPath>
</defs>
</svg>
