<svg width="1440" height="642" viewBox="0 0 1440 642" fill="none" xmlns="http://www.w3.org/2000/svg">
<g clip-path="url(#clip0_334_282)">
<rect width="1440" height="5493" transform="translate(0 -783)" fill="white"/>
<g clip-path="url(#clip1_334_282)">
<rect width="1440" height="4420.59" transform="translate(0 -29)" fill="#693A3A"/>
<path d="M1440 -29H0V4391.59H1440V-29Z" fill="url(#paint0_linear_334_282)"/>
<path d="M1440.5 -29C1460.5 480 1272 604.5 1272 604.5C1272 604.5 1199.21 693.5 1050.5 693.5C242.5 693.5 158 752.5 158 919C158 1094.33 418 1091 503.5 1091C589 1091 1219.94 1083.61 1258 1209C1303.5 1358.9 1004 1421.4 644.5 1394.9C261.142 1366.64 201.5 1463.4 206.5 1514.9C211.5 1566.4 322 1654.9 738.5 1551.4C1155 1447.9 1251 1561.4 1253.5 1620.9C1256 1680.4 1146.5 1835 738.5 1711C330.5 1587 186 1713 206.5 1780.5C227 1848 348 1891 606.5 1818.5C865 1746 1175.28 1750.9 1239.78 1846.4C1304.28 1941.9 1143.5 2031.9 860.5 1949.9C853 1947.73 808.053 1942.57 773.5 1938.4C768.981 1937.86 765.253 1933.68 761.563 1929.38L748.5 1919.52V1905.43C757.979 1905.6 761.438 1914.34 765.213 1921.12L773.5 1928.9C890.5 1938.4 1092.42 2015.73 1207.5 1934.9C1291.5 1875.9 1203 1830.9 1182.5 1818.5C1143.17 1798.67 943.4 1754.9 673 1818.5C335 1898 299 1903 206.5 1807C114 1711 343.5 1631 487.5 1651L495.537 1652.12C632.706 1671.16 619.456 1663.17 851 1726.9C1087 1791.86 1261.24 1684.92 1234 1610.9C1228.5 1547.4 1057 1480.9 718.5 1569.4C561.167 1602.9 241.4 1655.6 203 1546.4C155 1409.9 332 1360.9 503.5 1369.4C675 1377.9 984.202 1403.42 1143.5 1329.9C1299.5 1257.9 1268.19 1180.95 1090 1143.5C864.5 1096.1 876.5 1134.24 550 1120.5C421.5 1115.09 179.881 1112 142.281 994C95.2809 846.5 133 724 452 693.5C771 663 1061 716 1195 616C1372.88 483.253 1406.11 233.5 1206 98C974.623 -58.668 69 176.901 -12 -23.0988L1440.5 -29Z" fill="#48A4BD"/>
<path d="M584 3731.4C1170.89 3748.42 1317.5 3635.9 1344 3332.9C1370.66 3028.06 1351.92 2997.55 1296.5 2857.9C1284 2826.4 1272 2809.9 1266.5 2803.4H958.5C959.522 2829.9 1075.5 2857.9 1189 2966.9C1268 3085.4 1311.5 3151.47 1311.5 3319.9C1311.5 3640.9 1108.51 3658.86 997.5 3689.4C886.494 3719.95 648.967 3718.9 471.5 3718.9C333.5 3718.9 244.483 3776.4 215.5 3831.9C178.945 3901.9 229.572 3957.08 298.5 3982.4C347.5 4000.4 421.667 4011.23 451.5 4006.9V3998.4H431C130.5 3982.4 153 3718.9 584 3731.4Z" fill="#48A4BD"/>
<path d="M773.5 1928.9C890.5 1938.4 1092.42 2015.73 1207.5 1934.9C1291.5 1875.9 1203 1830.9 1182.5 1818.5C1143.17 1798.67 943.4 1754.9 673 1818.5C335 1898 299 1903 206.5 1807C114 1711 343.5 1631 487.5 1651M773.5 1928.9C763.423 1927.59 763.558 1905.71 748.5 1905.43M773.5 1928.9L748.5 1905.43M487.5 1651L495.537 1652.12M487.5 1651C490.219 1651.38 492.897 1651.75 495.537 1652.12M1234 1610.9C1261.24 1684.92 1087 1791.86 851 1726.9C619.456 1663.17 632.706 1671.16 495.537 1652.12M1234 1610.9C1228.5 1547.4 1057 1480.9 718.5 1569.4C561.167 1602.9 241.4 1655.6 203 1546.4C155 1409.9 332 1360.9 503.5 1369.4C675 1377.9 984.202 1403.42 1143.5 1329.9C1299.5 1257.9 1268.19 1180.95 1090 1143.5C864.5 1096.1 876.5 1134.24 550 1120.5C421.5 1115.09 179.881 1112 142.281 994C95.2809 846.5 133 724 452 693.5C771 663 1061 716 1195 616C1372.88 483.253 1406.11 233.5 1206 98C974.623 -58.668 69 176.901 -12 -23.0988L1440.5 -29C1460.5 480 1272 604.5 1272 604.5C1272 604.5 1199.21 693.5 1050.5 693.5C242.5 693.5 158 752.5 158 919C158 1094.33 418 1091 503.5 1091C589 1091 1219.94 1083.61 1258 1209C1303.5 1358.9 1004 1421.4 644.5 1394.9C261.142 1366.64 201.5 1463.4 206.5 1514.9C211.5 1566.4 322 1654.9 738.5 1551.4C1155 1447.9 1251 1561.4 1253.5 1620.9C1256 1680.4 1146.5 1835 738.5 1711C330.5 1587 186 1713 206.5 1780.5C227 1848 348 1891 606.5 1818.5C865 1746 1175.28 1750.9 1239.78 1846.4C1304.28 1941.9 1143.5 2031.9 860.5 1949.9C853 1947.73 808.053 1942.57 773.5 1938.4M1234 1610.9C1226.08 1573.4 1234.05 1610.95 1234 1610.9ZM748.5 1905.43V1919.52M748.5 1919.52C757.996 1920.05 764.002 1937.26 773.5 1938.4M748.5 1919.52L773.5 1938.4M1344 3332.9C1317.5 3635.9 1170.89 3748.42 584 3731.4C153 3718.9 130.5 3982.4 431 3998.4H451.5V4006.9C421.667 4011.23 347.5 4000.4 298.5 3982.4C229.572 3957.08 178.945 3901.9 215.5 3831.9C244.483 3776.4 333.5 3718.9 471.5 3718.9C648.967 3718.9 886.494 3719.95 997.5 3689.4C1108.51 3658.86 1311.5 3640.9 1311.5 3319.9C1311.5 3151.47 1268 3085.4 1189 2966.9C1075.5 2857.9 959.522 2829.9 958.5 2803.4H1266.5C1272 2809.9 1284 2826.4 1296.5 2857.9C1351.92 2997.55 1370.66 3028.06 1344 3332.9Z" stroke="#48A4BD" stroke-width="3"/>
<path d="M1444.5 -30.5988C1433.3 50.3789 1415.05 179.029 1420.78 267.744C1422.94 301.174 1423.65 350.94 1414.59 355.247C1432.72 452.94 1432.59 593.57 1414.29 690.801C1421.75 735.677 1420.22 799.008 1410.74 838.093C1422.05 858.305 1427.32 909.502 1427.29 956.641C1427.26 1003.78 1423.07 1049.25 1420.47 1095.36C1415.97 1175.01 1416.18 1257.65 1418.96 1338.4C1420.43 1380.99 1420.98 1435.9 1410.64 1454.11C1413.5 1465.2 1416.35 1476.29 1419.2 1487.39C1419.43 1560.78 1413.88 1634.28 1403.43 1696.22C1412.93 1730.22 1414.04 1784.84 1414.55 1834.15C1415.06 1884.07 1415.57 1934.01 1416.09 1983.93C1414.25 1978.21 1418.92 1981.62 1418.76 1990.57C1418 2034.77 1417.24 2078.97 1416.47 2123.17C1413.04 2141.41 1409.61 2159.66 1406.18 2177.9C1410.72 2179.36 1415 2189.69 1417.24 2204.62C1411.83 2219.08 1406.41 2233.53 1401 2247.99C1404.57 2263.06 1408.14 2278.13 1411.7 2293.19C1413.69 2383.27 1415.69 2473.35 1417.68 2563.43C1418.61 2605.56 1418.36 2656.91 1408.71 2678.49C1412.9 2667.62 1418.65 2689.11 1417.8 2708.02C1416.94 2726.92 1412.47 2740.02 1408.34 2751.2C1409.39 2767.27 1410.44 2783.34 1411.42 2799.48C1423.1 2992.74 1423.43 3195.62 1412.38 3389.4C1410.94 3414.75 1416.22 3455.6 1420.75 3436.11C1417.74 3446.51 1414.48 3459.19 1414.78 3474.53C1415.09 3489.87 1421.75 3499.2 1423.18 3484.78C1417.18 3499.39 1413.01 3524.22 1412.08 3550.91C1417.82 3554.19 1419.14 3590.47 1413.84 3599.44C1417.02 3653.27 1418.29 3708.68 1417.63 3763.77C1418.25 3789.41 1418.88 3815.05 1419.5 3840.69C1420.15 3863.23 1425.63 3888.79 1426.28 3911.33C1422.47 4067.02 1416.53 4220.63 1418.13 4376.87C1422.92 4420.47 1428.48 4436.88 1441 4435.22" fill="#B59D92"/>
<path d="M-12.0458 4381.42C5.95915 4299.94 16.1236 4184.66 6.90784 4095.4C4.11951 4068.4 7.68837 4011.29 16.7435 3987.58C20.0514 3978.92 20.6688 3964.2 18.1339 3953.42C-4.48892 3857.28 -2.27281 3730.28 24.6869 3640.08C24.7948 3639.72 24.7998 3639.18 24.6994 3638.79C13.014 3594.1 15.3632 3531.57 30.1631 3492.36C30.3539 3491.86 30.2987 3490.94 30.0628 3490.67C12.2436 3469.94 3.93128 3418.96 3.97896 3371.99C4.02916 3324.57 10.7528 3278.81 14.939 3232.41C22.1696 3152.28 21.8358 3069.13 17.3659 2987.88C15.0344 2945.49 14.1459 2891 30.1933 2872.08C30.4342 2871.8 30.4844 2870.84 30.2861 2870.36L17.1074 2838.27C17.0296 2838.08 16.9845 2837.8 16.982 2837.5C16.6457 2764.14 25.49 2690.68 42.1221 2628.67C42.24 2628.23 42.2124 2627.58 42.0618 2627.24C27.0485 2592.99 25.2742 2538.39 24.4635 2489.08C23.6504 2439.64 22.8397 2390.18 22.0265 2340.74C22.009 2339.62 22.5536 2339.23 22.6665 2340.29C22.9552 2343.04 17.4688 2339.42 17.6822 2331.69C18.9094 2287.34 20.1342 2242.98 21.3615 2198.62C21.3665 2198.4 21.3966 2198.19 21.4468 2198.03L37.459 2144.73C37.6447 2144.11 37.5142 2143.12 37.2381 2143.05C30.3438 2141.13 23.9114 2131.32 20.3601 2117.25C20.2371 2116.77 20.2898 2116.06 20.4655 2115.77L45.829 2073.39C46.0298 2073.04 46.0599 2072.2 45.8867 2071.75L29.1341 2027.47C29.0714 2027.3 29.0312 2027.07 29.0212 2026.82L19.429 1755.31C17.9306 1712.92 18.3297 1661.25 33.8475 1639.54C27.1038 1650.47 17.8679 1628.86 19.2382 1609.83C20.591 1591.04 27.6258 1577.93 34.2114 1566.78C34.3494 1566.54 34.4121 1566.05 34.3645 1565.6C32.698 1549.68 31.034 1533.78 29.4905 1517.8C10.7076 1323.35 10.173 1119.23 27.937 924.238C30.261 898.743 21.7781 857.64 14.4823 877.245C19.3235 866.776 24.5714 854.029 24.0795 838.587C23.6403 824.795 15.0469 815.833 11.5835 824.424C11.2748 825.189 11.6111 826.665 11.96 826.074C20.7441 811.359 26.8352 787.938 28.3662 762.784C28.4013 762.216 28.2683 761.694 28.08 761.603C19.2533 757.569 17.2354 722.65 25.3018 713.233C25.4649 713.044 25.5552 712.521 25.5076 712.022C20.468 658.171 18.4451 602.753 19.5068 547.661C19.5068 547.601 19.5068 547.547 19.5042 547.487L16.5076 470.193L13.3629 402.293C13.3579 402.209 13.3579 402.126 13.3629 402.043C19.4792 245.532 2.08002 131.442 -0.5 -25.5988L-13.5 -25.1527C-21.1547 -68.8374 -12.0347 -70.9156 -25 -97.5988" fill="#B59D92"/>
<path d="M1444.84 212.348C1442.93 218.32 1440.96 224.261 1439 230.203L1436.11 239.119C1435.15 242.086 1434.2 245.061 1433.29 248.035C1429.63 259.941 1426.34 271.931 1423.92 284.056C1421.54 296.182 1420 308.451 1419.79 320.735C1419.58 333.012 1420.72 345.304 1423.58 357.218L1418.68 358.603C1417.44 353.895 1415.69 349.308 1413.46 344.948C1411.21 340.604 1408.59 336.411 1405.51 332.558C1402.42 328.713 1399 325.095 1395.19 321.908C1391.41 318.677 1387.26 315.846 1382.85 313.409C1387.58 315.142 1392.1 317.526 1396.33 320.38C1400.52 323.278 1404.47 326.609 1407.97 330.401C1411.45 334.193 1414.63 338.333 1417.23 342.844C1419.85 347.348 1422 352.139 1423.58 357.157L1418.68 358.542C1415.15 346.25 1413.71 333.398 1413.85 320.66C1414 307.906 1415.68 295.228 1418.53 282.883C1421.34 270.53 1425.23 258.503 1429.75 246.786C1430.89 243.857 1432.05 240.943 1433.23 238.044C1434.43 235.145 1435.69 232.277 1436.94 229.401C1439.44 223.656 1442.09 217.979 1444.84 212.348Z" fill="#B1BF91"/>
<path d="M83.6925 299.544C86.535 308.945 87.6525 318.905 87.2775 328.805C87.09 333.756 86.5575 338.698 85.7475 343.595C84.93 348.492 83.7975 353.329 82.4775 358.105C79.8375 367.665 76.2825 376.937 72.255 385.959C70.2375 390.47 68.115 394.928 65.895 399.326C63.6525 403.716 61.3275 408.06 58.95 412.359C49.5075 429.556 39.465 446.314 31.59 464.01C27.63 472.828 24.1575 481.85 21.675 491.129C21.09 493.453 20.565 495.792 20.0025 498.123L18.7275 505.193L17.8575 512.307L17.46 519.46L12.0825 518.809C14.5125 508.674 18.6225 498.986 24.1425 490.259C29.6475 481.517 36.4125 473.622 44.1975 466.969C48.0825 463.631 52.1925 460.581 56.505 457.856C60.8325 455.154 65.34 452.778 69.9975 450.764C79.3125 446.73 89.25 444.232 99.255 443.543C89.34 445.095 79.77 448.274 70.8975 452.74C66.4575 454.965 62.1975 457.531 58.1475 460.392C54.0825 463.223 50.235 466.356 46.6275 469.74C39.4425 476.529 33.15 484.264 28.1775 492.772C23.2275 501.279 19.47 510.483 17.3775 520.066L12 519.415L12.2775 511.868L13.05 504.368C13.47 501.893 13.8825 499.417 14.3325 496.95C14.9025 494.513 15.435 492.06 16.035 489.631C18.5775 479.943 22.0725 470.58 26.13 461.535C34.3425 443.46 44.475 426.574 54.285 409.703C56.7225 405.487 59.1 401.24 61.395 396.956C63.705 392.68 65.9475 388.366 68.055 383.998C70.17 379.631 72.165 375.203 74.0025 370.715C75.84 366.226 77.5725 361.693 79.065 357.083C80.5725 352.474 81.8475 347.796 82.8975 343.058C83.955 338.327 84.735 333.529 85.1925 328.692C86.115 319.004 85.7325 309.156 83.6925 299.544Z" fill="#B1BF91"/>
<path d="M1380.43 140.866C1378.31 144.651 1376.63 148.64 1375.37 152.742C1374.09 156.844 1373.44 161.106 1373.02 165.344C1372.6 169.598 1372.66 173.882 1373.02 178.128C1373.14 180.255 1373.46 182.367 1373.73 184.471C1374.1 186.568 1374.44 188.672 1374.94 190.738C1376.81 199.041 1379.83 207.019 1383.52 214.724C1387.22 222.407 1391.47 229.855 1395.97 237.189C1398.22 240.86 1400.53 244.508 1402.84 248.164C1405.13 251.835 1407.42 255.529 1409.67 259.26C1414.16 266.731 1418.46 274.353 1422.32 282.217C1426.15 290.096 1429.66 298.157 1432.58 306.46C1435.56 314.741 1437.82 323.286 1439.53 331.937L1434.43 333.269C1432.19 325.875 1429 318.745 1424.94 312.129L1421.74 307.263L1418.23 302.6L1414.47 298.134L1410.43 293.911C1404.85 288.461 1398.64 283.61 1391.88 279.628C1385.14 275.624 1377.86 272.46 1370.25 270.265C1378.05 271.651 1385.68 274.262 1392.85 277.834C1400.01 281.43 1406.74 285.963 1412.78 291.345L1417.2 295.508L1421.35 299.951L1425.2 304.682L1428.75 309.654C1433.27 316.436 1436.95 323.846 1439.47 331.68L1434.37 333.012C1433.43 328.849 1432.42 324.701 1431.19 320.614C1429.96 316.527 1428.62 312.47 1427.15 308.458C1424.25 300.42 1420.77 292.586 1416.97 284.911C1415.04 281.089 1413.1 277.267 1411.04 273.505C1408.98 269.743 1406.87 266.004 1404.67 262.31C1402.48 258.609 1400.23 254.923 1397.97 251.229C1395.74 247.521 1393.51 243.797 1391.31 240.035C1389.12 236.266 1386.97 232.466 1384.92 228.598C1382.86 224.73 1380.97 220.764 1379.2 216.73C1375.72 208.669 1372.79 200.222 1371.35 191.48C1370.94 189.308 1370.7 187.105 1370.42 184.91C1370.25 182.7 1370.03 180.505 1370.02 178.287C1369.93 173.867 1370.16 169.439 1370.87 165.087C1370.95 164.542 1371.01 163.997 1371.13 163.452L1371.46 161.832C1371.7 160.758 1371.89 159.675 1372.22 158.623C1372.53 157.563 1372.81 156.504 1373.14 155.459L1374.25 152.364C1375.85 148.269 1377.94 144.409 1380.43 140.866Z" fill="#B1BF91"/>
</g>
</g>
<defs>
<linearGradient id="paint0_linear_334_282" x1="720" y1="25.6925" x2="720" y2="4360.75" gradientUnits="userSpaceOnUse">
<stop stop-color="#E3FAFF"/>
<stop offset="1" stop-color="#86D0EB"/>
</linearGradient>
<clipPath id="clip0_334_282">
<rect width="1440" height="5493" fill="white" transform="translate(0 -783)"/>
</clipPath>
<clipPath id="clip1_334_282">
<rect width="1440" height="4420.59" fill="white" transform="translate(0 -29)"/>
</clipPath>
</defs>
</svg>
